<svg width="60" height="60" viewBox="0 0 60 60" fill="none" xmlns="http://www.w3.org/2000/svg">
<path d="M35.7422 30C35.7422 33.1711 33.1711 35.7422 30 35.7422C26.8289 35.7422 24.2578 33.1711 24.2578 30C24.2578 26.8289 26.8289 24.2578 30 24.2578C33.1711 24.2578 35.7422 26.8289 35.7422 30Z" fill="#247CB8"/>
<path d="M43.4285 19.8397C43.1519 19.0921 42.7125 18.4147 42.1394 17.8593C41.584 17.2874 40.9066 16.8468 40.159 16.5702C39.552 16.3347 38.6402 16.0534 36.9609 15.9772C35.1445 15.894 34.5996 15.8765 30 15.8765C25.4004 15.8765 24.8555 15.894 23.0391 15.9772C21.3598 16.0546 20.4469 16.3347 19.841 16.5702C19.0922 16.8468 18.416 17.2862 17.8605 17.8593C17.2887 18.4147 16.848 19.0921 16.5715 19.8397C16.3359 20.4468 16.0547 21.3585 15.9785 23.039C15.8953 24.8554 15.8777 25.4003 15.8777 29.9999C15.8777 34.5995 15.8953 35.1444 15.9785 36.9608C16.0547 38.6401 16.3359 39.5519 16.5715 40.1589C16.848 40.9077 17.2875 41.5839 17.8605 42.1394C18.416 42.7112 19.0934 43.1519 19.841 43.4284C20.448 43.6651 21.3598 43.9452 23.0402 44.0214C24.8566 44.1046 25.4004 44.1222 30.0012 44.1222C34.6019 44.1222 35.1469 44.1046 36.9621 44.0214C38.6414 43.9452 39.5543 43.664 40.1613 43.4284C41.6637 42.8483 42.8508 41.6612 43.4309 40.1589C43.6664 39.5519 43.9477 38.6401 44.0238 36.9608C44.107 35.1444 44.1246 34.5995 44.1246 29.9999C44.1246 25.4003 44.107 24.8554 44.0238 23.039C43.9477 21.3597 43.6664 20.4468 43.4309 19.8397H43.4285ZM30 38.8452C25.1144 38.8452 21.1535 34.8855 21.1535 29.9999C21.1535 25.1144 25.1144 21.1546 30 21.1546C34.8855 21.1546 38.8453 25.1144 38.8453 29.9999C38.8453 34.8855 34.8844 38.8452 30 38.8452ZM39.1957 22.8714C38.0543 22.8714 37.1285 21.9456 37.1285 20.8042C37.1285 19.6628 38.0543 18.737 39.1957 18.737C40.3371 18.737 41.2629 19.6628 41.2629 20.8042C41.2629 21.9456 40.3371 22.8714 39.1957 22.8714Z" fill="#247CB8"/>
<path d="M30 0C13.4344 0 0 13.4344 0 30C0 46.5656 13.4344 60 30 60C46.5656 60 60 46.5656 60 30C60 13.4344 46.5656 0 30 0ZM47.1223 37.1027C47.0391 38.9367 46.7473 40.1883 46.3219 41.284C45.4266 43.5984 43.5973 45.4277 41.284 46.3219C40.1883 46.7473 38.9355 47.0391 37.1027 47.1223C35.2652 47.2055 34.6793 47.2266 30 47.2266C25.3207 47.2266 24.7348 47.2066 22.8973 47.1223C21.0645 47.0391 19.8117 46.7473 18.716 46.3219C17.5664 45.8895 16.5246 45.2109 15.6645 44.3344C14.7879 43.4742 14.1105 42.4324 13.6781 41.2828C13.2527 40.1871 12.9609 38.9344 12.8777 37.1016C12.7934 35.2641 12.7734 34.677 12.7734 29.9988C12.7734 25.3207 12.7934 24.7336 12.8777 22.8961C12.9609 21.0621 13.2527 19.8105 13.6781 18.7148C14.1105 17.5652 14.7891 16.5234 15.6656 15.6633C16.5258 14.7867 17.5676 14.1082 18.7172 13.6758C19.8129 13.2504 21.0656 12.9586 22.8984 12.8754C24.7359 12.7922 25.3219 12.7711 30.0012 12.7711C34.6805 12.7711 35.2664 12.791 37.1039 12.8754C38.9379 12.9586 40.1895 13.2504 41.2852 13.6746C42.4348 14.107 43.4766 14.7855 44.3367 15.6621C45.2133 16.5223 45.8918 17.5641 46.323 18.7137C46.7496 19.8094 47.0402 21.0621 47.1246 22.8949C47.2078 24.7324 47.2277 25.3184 47.2277 29.9977C47.2277 34.677 47.2078 35.2629 47.1234 37.1004L47.1223 37.1027Z" fill="#247CB8"/>
</svg>
