<svg width="30" height="30" viewBox="0 0 30 30" fill="none" xmlns="http://www.w3.org/2000/svg">
<path d="M15 30C23.2863 30 30 23.2863 30 15C30 6.71367 23.2863 0 15 0C6.71367 0 0 6.71367 0 15C0 23.2863 6.71367 30 15 30ZM6.86367 14.6748L21.3264 9.09844C21.9979 8.85586 22.5838 9.26191 22.3664 10.2773L22.3676 10.2762L19.9049 21.8771C19.7227 22.6998 19.2334 22.8996 18.5496 22.5123L14.7996 19.7484L12.9908 21.491C12.791 21.6908 12.6223 21.8596 12.2344 21.8596L12.5004 18.0434L19.4502 11.7645C19.7525 11.4984 19.3828 11.3484 18.9838 11.6133L10.3951 17.0209L6.69258 15.866C5.88867 15.6111 5.87109 15.0621 6.8625 14.6748H6.86367Z" fill="white"/>
</svg>
