<svg width="60" height="60" viewBox="0 0 60 60" fill="none" xmlns="http://www.w3.org/2000/svg">
<path d="M30 60C46.5685 60 60 46.5685 60 30C60 13.4315 46.5685 0 30 0C13.4315 0 0 13.4315 0 30C0 46.5685 13.4315 60 30 60Z" fill="#247CB8"/>
<path fill-rule="evenodd" clip-rule="evenodd" d="M28.8663 43.1553H31.2193C31.2193 43.1553 31.9305 43.075 32.2941 42.6847C32.6257 42.3264 32.615 41.6526 32.615 41.6526C32.615 41.6526 32.5669 38.4922 34.0374 38.0269C35.4813 37.567 37.3369 41.0804 39.3048 42.4333C40.7915 43.4547 41.9251 43.2301 41.9251 43.2301L47.1872 43.1553C47.1872 43.1553 49.9412 42.9841 48.6364 40.8237C48.5294 40.6472 47.877 39.2248 44.7273 36.2996C41.4278 33.2408 41.8717 33.7328 45.8449 28.4387C48.2674 25.2141 49.23 23.2462 48.9305 22.4012C48.6417 21.5991 46.861 21.813 46.861 21.813L40.9358 21.8504C40.9358 21.8504 40.4973 21.7916 40.1711 21.9841C39.8503 22.1766 39.6471 22.6205 39.6471 22.6205C39.6471 22.6205 38.7112 25.1178 37.4599 27.2408C34.8235 31.7221 33.7701 31.9574 33.3369 31.6793C32.3316 31.0323 32.5829 29.075 32.5829 27.6847C32.5829 23.3424 33.2407 21.5349 31.2995 21.0643C30.6578 20.9093 30.1818 20.8077 28.5348 20.7916C26.4225 20.7702 24.631 20.797 23.6203 21.2943C22.9465 21.6258 22.4278 22.3585 22.7433 22.4012C23.1337 22.4547 24.0214 22.6419 24.492 23.2782C25.0963 24.1018 25.0802 25.9574 25.0802 25.9574C25.0802 25.9574 25.4278 31.0643 24.2674 31.7007C23.4706 32.1339 22.3743 31.2462 20.0214 27.182C18.8182 25.1018 17.9091 22.8023 17.9091 22.8023C17.9091 22.8023 17.7326 22.3745 17.4225 22.1446C17.0428 21.8665 16.5134 21.7756 16.5134 21.7756L10.8877 21.813C10.8877 21.813 10.0428 21.8344 9.73263 22.2034C9.45456 22.5296 9.71124 23.2087 9.71124 23.2087C9.71124 23.2087 14.1177 33.5189 19.107 38.7114C23.6845 43.4761 28.877 43.1606 28.877 43.1606L28.8663 43.1553Z" fill="white"/>
</svg>
