<svg width="30" height="30" viewBox="0 0 30 30" fill="none" xmlns="http://www.w3.org/2000/svg">
<path d="M15 30C23.2843 30 30 23.2843 30 15C30 6.71573 23.2843 0 15 0C6.71573 0 0 6.71573 0 15C0 23.2843 6.71573 30 15 30Z" fill="white"/>
<path fill-rule="evenodd" clip-rule="evenodd" d="M14.4332 21.5776H15.6096C15.6096 21.5776 15.9653 21.5375 16.1471 21.3423C16.3129 21.1632 16.3075 20.8263 16.3075 20.8263C16.3075 20.8263 16.2834 19.2461 17.0187 19.0135C17.7407 18.7835 18.6685 20.5402 19.6524 21.2167C20.3957 21.7274 20.9626 21.6151 20.9626 21.6151L23.5936 21.5776C23.5936 21.5776 24.9706 21.4921 24.3182 20.4118C24.2647 20.3236 23.9385 19.6124 22.3637 18.1498C20.7139 16.6204 20.9358 16.8664 22.9225 14.2193C24.1337 12.607 24.615 11.6231 24.4653 11.2006C24.3209 10.7996 23.4305 10.9065 23.4305 10.9065L20.4679 10.9252C20.4679 10.9252 20.2487 10.8958 20.0856 10.9921C19.9252 11.0883 19.8235 11.3102 19.8235 11.3102C19.8235 11.3102 19.3556 12.5589 18.73 13.6204C17.4118 15.861 16.885 15.9787 16.6685 15.8397C16.1658 15.5161 16.2915 14.5375 16.2915 13.8423C16.2915 11.6712 16.6203 10.7675 15.6498 10.5322C15.3289 10.4546 15.0909 10.4038 14.2674 10.3958C13.2113 10.3851 12.3155 10.3985 11.8102 10.6471C11.4733 10.8129 11.2139 11.1792 11.3717 11.2006C11.5669 11.2274 12.0107 11.3209 12.246 11.6391C12.5481 12.0509 12.5401 12.9787 12.5401 12.9787C12.5401 12.9787 12.7139 15.5322 12.1337 15.8504C11.7353 16.0669 11.1872 15.6231 10.0107 13.591C9.40911 12.5509 8.95457 11.4012 8.95457 11.4012C8.95457 11.4012 8.86633 11.1873 8.71125 11.0723C8.52141 10.9332 8.2567 10.8878 8.2567 10.8878L5.44387 10.9065C5.44387 10.9065 5.02141 10.9172 4.86633 11.1017C4.72729 11.2648 4.85563 11.6044 4.85563 11.6044C4.85563 11.6044 7.05884 16.7594 9.5535 19.3557C11.8423 21.7381 14.4385 21.5803 14.4385 21.5803L14.4332 21.5776Z" fill="#247CB8"/>
</svg>
