<svg width="60" height="60" viewBox="0 0 60 60" fill="none" xmlns="http://www.w3.org/2000/svg">
<circle cx="30" cy="30" r="30" fill="#247CB8"/>
<path d="M45.5925 14.85C44.5693 13.91 40.4347 10.9211 31.2252 10.8805C31.2252 10.8805 20.3649 10.2283 15.0706 15.0642C12.1235 17.9995 11.0868 22.2945 10.9774 27.6194C10.8681 32.9443 10.7266 42.9236 20.3865 45.6294H20.3958L20.3896 49.7583C20.3896 49.7583 20.3278 51.4299 21.4331 51.7707C22.7701 52.1842 23.5548 50.9137 24.8312 49.5442C25.5318 48.7924 26.4994 47.688 27.2284 46.8439C33.835 47.3976 38.9161 46.132 39.4932 45.945C40.8271 45.5143 48.3752 44.5515 49.6029 34.5729C50.87 24.2879 48.99 17.7823 45.5925 14.85ZM46.712 33.8352C45.6759 42.1668 39.5537 42.6904 38.4249 43.0509C37.9449 43.2047 33.4822 44.3103 27.8704 43.9455C27.8704 43.9455 23.6888 48.9689 22.3827 50.2751C22.1788 50.4794 21.9391 50.5618 21.7791 50.5212C21.5542 50.4664 21.4924 50.2013 21.4949 49.8137C21.4986 49.2599 21.5307 42.9525 21.5307 42.9525C21.5307 42.9525 21.5258 42.9525 21.5307 42.9525C13.3592 40.6933 13.8355 32.1999 13.9282 27.7523C14.0209 23.3047 14.8599 19.6612 17.3523 17.2107C21.8304 13.1717 31.0553 13.7752 31.0553 13.7752C38.8457 13.8091 42.5786 16.1451 43.4442 16.9277C46.3184 19.3782 47.7827 25.2421 46.712 33.8327V33.8352Z" fill="white"/>
<path d="M35.0157 27.9055C34.7401 27.9055 34.5097 27.6902 34.4961 27.4127C34.4084 25.6507 33.5761 24.7887 31.8764 24.7001C31.5892 24.6853 31.3686 24.4411 31.3834 24.155C31.3982 23.8689 31.6417 23.6493 31.9308 23.664C34.1748 23.7803 35.4216 25.0588 35.5365 27.361C35.5507 27.6471 35.3296 27.8907 35.0423 27.9049C35.0336 27.9049 35.025 27.9055 35.0163 27.9055H35.0157Z" fill="white"/>
<path d="M37.6885 28.7975C37.6848 28.7975 37.681 28.7975 37.6767 28.7975C37.3894 28.7913 37.1608 28.5539 37.167 28.2678C37.2053 26.4953 36.6968 25.0599 35.6125 23.8792C34.5294 22.7017 33.0448 22.0594 31.0745 21.916C30.7878 21.8951 30.5722 21.6465 30.5932 21.3611C30.6142 21.0756 30.8644 20.8609 31.1505 20.8818C33.3673 21.0436 35.1269 21.8163 36.3805 23.1791C37.6372 24.5468 38.2519 26.2664 38.2081 28.2905C38.2019 28.5729 37.9702 28.7981 37.6878 28.7981L37.6885 28.7975Z" fill="white"/>
<path d="M40.4242 29.8632C40.1382 29.8632 39.9059 29.6337 39.9034 29.3482C39.8793 26.2191 38.9365 23.7286 37.1003 21.9463C35.261 20.1608 32.936 19.2453 30.1916 19.2263C29.9037 19.2244 29.6726 18.9906 29.6745 18.7039C29.6763 18.4185 29.9092 18.189 30.1953 18.189H30.199C33.2221 18.2099 35.7892 19.2244 37.8281 21.203C39.8707 23.186 40.9191 25.9232 40.9457 29.3396C40.9482 29.6263 40.7165 29.8601 40.4286 29.862H40.4242V29.8632Z" fill="white"/>
<path d="M32.0068 34.3334C32.0068 34.3334 32.7389 34.395 33.1331 33.9114L33.9017 32.9485C34.2724 32.4711 35.1671 32.1666 36.0431 32.6526C36.6999 33.0254 37.3369 33.4309 37.9529 33.8671C38.5343 34.2928 39.7249 35.2821 39.7286 35.2821C40.2957 35.759 40.4267 36.4591 40.0406 37.1974C40.0406 37.2017 40.0375 37.2091 40.0375 37.2128C39.6124 37.9468 39.0724 38.6088 38.4379 39.1742C38.4305 39.1779 38.4305 39.1816 38.4237 39.1852C37.8726 39.6436 37.3313 39.9045 36.7994 39.9672C36.7209 39.9807 36.6412 39.9857 36.5621 39.982C36.3274 39.9844 36.0944 39.9488 35.8714 39.8762L35.8541 39.8509C35.0348 39.6208 33.6669 39.045 31.389 37.7936C30.0705 37.078 28.8157 36.2524 27.6375 35.3258C27.0468 34.8619 26.4833 34.3642 25.9501 33.8357L25.8933 33.7791L25.8365 33.7225L25.7796 33.6653C25.7605 33.6468 25.7419 33.6278 25.7228 33.6087C25.192 33.0777 24.6922 32.5166 24.2264 31.9285C23.2959 30.7552 22.4668 29.5056 21.7482 28.1933C20.4915 25.9243 19.9132 24.5634 19.6822 23.7463L19.6568 23.7291C19.5845 23.507 19.5487 23.2745 19.5512 23.0413C19.5469 22.9625 19.5512 22.8832 19.5654 22.805C19.6315 22.2765 19.8941 21.7376 20.3519 21.1869C20.3556 21.1802 20.3593 21.1802 20.363 21.1728C20.9302 20.5409 21.595 20.0038 22.3327 19.5805C22.3364 19.5805 22.3438 19.5768 22.3481 19.5768C23.0895 19.1923 23.7926 19.3228 24.2708 19.8845C24.2746 19.8882 25.2662 21.0737 25.6919 21.6527C26.1299 22.2667 26.5371 22.9016 26.9115 23.5562C27.3996 24.428 27.0938 25.3208 26.6143 25.6887L25.6474 26.454C25.1593 26.8466 25.2236 27.5756 25.2236 27.5756C25.2236 27.5756 26.6557 32.9731 32.0068 34.3334Z" fill="white"/>
</svg>
