<svg width="30" height="30" viewBox="0 0 30 30" fill="none" xmlns="http://www.w3.org/2000/svg">
<circle cx="15" cy="15" r="15" fill="white"/>
<path d="M22.7962 7.42502C22.2846 6.95498 20.2173 5.46055 15.6126 5.44025C15.6126 5.44025 10.1824 5.11417 7.53524 7.53208C6.06169 8.99974 5.54333 11.1472 5.48865 13.8097C5.43397 16.4722 5.36323 21.4618 10.1932 22.8147H10.1978L10.1947 24.8791C10.1947 24.8791 10.1638 25.7149 10.7165 25.8854C11.385 26.0921 11.7773 25.4569 12.4155 24.7721C12.7659 24.3962 13.2496 23.844 13.6142 23.4219C16.9174 23.6988 19.458 23.066 19.7465 22.9725C20.4135 22.7572 24.1875 22.2757 24.8014 17.2864C25.435 12.1439 24.4949 8.89115 22.7962 7.42502ZM23.3559 16.9176C22.8379 21.0834 19.7768 21.3452 19.2124 21.5255C18.9724 21.6024 16.741 22.1552 13.9351 21.9727C13.9351 21.9727 11.8444 24.4845 11.1913 25.1375C11.0894 25.2397 10.9695 25.2809 10.8895 25.2606C10.777 25.2332 10.7461 25.1006 10.7474 24.9068C10.7492 24.63 10.7653 21.4762 10.7653 21.4762C10.7653 21.4762 10.7628 21.4762 10.7653 21.4762C6.67953 20.3467 6.91771 16.0999 6.96405 13.8761C7.01039 11.6524 7.4299 9.83062 8.67608 8.60537C10.9151 6.58583 15.5276 6.88761 15.5276 6.88761C19.4228 6.90453 21.2893 8.07257 21.7221 8.46386C23.1592 9.68912 23.8913 12.6211 23.3559 16.9164V16.9176Z" fill="#247CB8"/>
<path d="M17.5079 13.9529C17.3701 13.9529 17.2549 13.8452 17.2481 13.7065C17.2042 12.8254 16.7881 12.3945 15.9383 12.3502C15.7946 12.3428 15.6843 12.2207 15.6918 12.0776C15.6992 11.9346 15.8209 11.8248 15.9655 11.8321C17.0875 11.8903 17.7109 12.5295 17.7683 13.6806C17.7754 13.8237 17.6648 13.9455 17.5212 13.9526C17.5169 13.9526 17.5125 13.9529 17.5082 13.9529H17.5079Z" fill="#247CB8"/>
<path d="M18.8442 14.3987C18.8424 14.3987 18.8405 14.3987 18.8384 14.3987C18.6947 14.3957 18.5804 14.2769 18.5835 14.1339C18.6027 13.2476 18.3484 12.5299 17.8063 11.9396C17.2647 11.3508 16.5224 11.0297 15.5373 10.958C15.3939 10.9475 15.2861 10.8233 15.2966 10.6805C15.3071 10.5378 15.4322 10.4304 15.5753 10.4409C16.6837 10.5218 17.5635 10.9082 18.1903 11.5895C18.8186 12.2734 19.126 13.1332 19.104 14.1453C19.1009 14.2865 18.9851 14.3991 18.8439 14.3991L18.8442 14.3987Z" fill="#247CB8"/>
<path d="M20.2121 14.9316C20.069 14.9316 19.9529 14.8169 19.9516 14.6741C19.9396 13.1096 19.4682 11.8643 18.5501 10.9731C17.6304 10.0804 16.4679 9.62267 15.0957 9.61313C14.9518 9.61221 14.8362 9.49531 14.8372 9.35196C14.8381 9.20923 14.9546 9.09448 15.0976 9.09448H15.0994C16.611 9.10494 17.8945 9.61221 18.914 10.6015C19.9353 11.593 20.4595 12.9616 20.4728 14.6698C20.474 14.8132 20.3582 14.9301 20.2142 14.931H20.2121V14.9316Z" fill="#247CB8"/>
<path d="M16.0033 17.1667C16.0033 17.1667 16.3693 17.1975 16.5664 16.9557L16.9507 16.4743C17.1361 16.2355 17.5834 16.0833 18.0214 16.3263C18.3498 16.5127 18.6683 16.7154 18.9763 16.9335C19.267 17.1464 19.8623 17.6411 19.8642 17.6411C20.1477 17.8795 20.2132 18.2296 20.0202 18.5987C20.0202 18.6009 20.0186 18.6045 20.0186 18.6064C19.8061 18.9734 19.5361 19.3044 19.2188 19.5871C19.2151 19.5889 19.2151 19.5908 19.2117 19.5926C18.9362 19.8218 18.6655 19.9522 18.3996 19.9836C18.3603 19.9904 18.3205 19.9928 18.2809 19.991C18.1635 19.9922 18.0471 19.9744 17.9356 19.9381L17.9269 19.9255C17.5173 19.8104 16.8333 19.5225 15.6944 18.8968C15.0351 18.539 14.4077 18.1262 13.8186 17.6629C13.5233 17.431 13.2415 17.1821 12.9749 16.9179L12.9465 16.8896L12.9181 16.8613L12.8897 16.8326C12.8801 16.8234 12.8708 16.8139 12.8613 16.8043C12.5959 16.5389 12.346 16.2583 12.1131 15.9642C11.6478 15.3776 11.2333 14.7528 10.874 14.0967C10.2456 12.9622 9.95649 12.2817 9.84095 11.8732L9.82828 11.8646C9.79214 11.7535 9.77422 11.6372 9.77546 11.5206C9.7733 11.4813 9.77546 11.4416 9.78256 11.4025C9.81562 11.1383 9.94691 10.8688 10.1758 10.5935C10.1777 10.5901 10.1795 10.5901 10.1814 10.5864C10.465 10.2705 10.7974 10.0019 11.1662 9.79027C11.1681 9.79027 11.1718 9.78842 11.1739 9.78842C11.5446 9.59616 11.8962 9.66138 12.1353 9.94223C12.1371 9.94408 12.633 10.5369 12.8458 10.8263C13.0648 11.1333 13.2684 11.4508 13.4556 11.7781C13.6997 12.214 13.5467 12.6604 13.307 12.8443L12.8236 13.227C12.5795 13.4233 12.6116 13.7878 12.6116 13.7878C12.6116 13.7878 13.3277 16.4866 16.0033 17.1667Z" fill="#247CB8"/>
</svg>
