<svg width="12" height="15" viewBox="0 0 12 15" fill="none" xmlns="http://www.w3.org/2000/svg">
<path d="M0.5 5.78618C0.5 6.547 0.663268 7.27805 0.98647 7.9548L0.986565 7.955C2.27001 10.6451 4.71193 13.4569 5.41665 14.2422L5.41749 14.2431C5.56912 14.4112 5.78257 14.5 6 14.5C6.21743 14.5 6.43088 14.4112 6.58251 14.2431L6.58335 14.2421C7.28823 13.4567 9.72868 10.6449 11.0134 7.955C11.3367 7.27819 11.5 6.54707 11.5 5.78618C11.5 2.84979 9.01245 0.5 6.00139 0.5H5.99861C2.98746 0.5 0.5 2.85121 0.5 5.78618ZM5.99861 7.77308C4.82254 7.77308 3.90133 6.86148 3.90133 5.78618C3.90133 4.71071 4.82133 3.79928 5.99861 3.79928C7.17589 3.79928 8.09589 4.71071 8.09589 5.78618C8.09589 6.86049 7.17572 7.77308 5.99861 7.77308Z" stroke="white"/>
</svg>
