<svg width="237" height="60" viewBox="0 0 237 60" fill="none" xmlns="http://www.w3.org/2000/svg">
<rect x="0.5" y="0.5" width="236" height="59" rx="4.5" stroke="#247CB8"/>
<path d="M32.769 37.1084L38.873 40.2785C39.0429 40.3667 39.2598 40.349 39.4121 40.2374C39.5704 40.1228 39.6466 39.9289 39.6143 39.735L38.451 33.0305L43.3828 28.2768C43.5205 28.1446 43.5732 27.933 43.5146 27.7509C43.456 27.5717 43.2949 27.4306 43.1073 27.4012H43.0985L36.2796 26.42L33.2291 20.3118C33.1412 20.1385 32.9654 20.0269 32.772 20.0269C32.5786 20.0269 32.3998 20.1356 32.3119 20.3118L29.2614 26.417L22.4425 27.3954C22.252 27.4218 22.085 27.5628 22.0264 27.745C21.9648 27.9389 22.0147 28.1358 22.1582 28.2738L27.09 33.0275L25.9267 39.7321C25.8915 39.9289 25.9677 40.1169 26.1289 40.2345C26.2812 40.3461 26.4981 40.3637 26.6651 40.2756L32.769 37.1055V37.1084Z" fill="#247CB8"/>
<path d="M63.5377 37.1084L69.6416 40.2785C69.8116 40.3667 70.0284 40.349 70.1808 40.2374C70.3391 40.1228 70.4152 39.9289 70.383 39.735L69.2197 33.0305L74.1514 28.2768C74.2892 28.1446 74.3419 27.933 74.2833 27.7509C74.2247 27.5717 74.0635 27.4306 73.876 27.4012H73.8672L67.0483 26.42L63.9978 20.3118C63.9099 20.1385 63.734 20.0269 63.5406 20.0269C63.3472 20.0269 63.1685 20.1356 63.0806 20.3118L60.0301 26.417L53.2112 27.3954C53.0207 27.4218 52.8537 27.5628 52.7951 27.745C52.7335 27.9389 52.7833 28.1358 52.9269 28.2738L57.8587 33.0275L56.6954 39.7321C56.6602 39.9289 56.7364 40.1169 56.8975 40.2345C57.0499 40.3461 57.2668 40.3637 57.4338 40.2756L63.5377 37.1055V37.1084Z" fill="#247CB8"/>
<path d="M94.3064 37.1084L100.41 40.2785C100.58 40.3667 100.797 40.349 100.949 40.2374C101.108 40.1228 101.184 39.9289 101.149 39.735L99.9854 33.0305L104.917 28.2768C105.055 28.1446 105.108 27.933 105.049 27.7509C104.99 27.5717 104.829 27.4306 104.645 27.4012H104.633L97.814 26.42L94.7635 20.3118C94.6756 20.1385 94.4998 20.0269 94.3064 20.0269C94.113 20.0269 93.9342 20.1356 93.8463 20.3118L90.7958 26.417L83.9769 27.3954C83.7864 27.4218 83.6194 27.5628 83.5608 27.745C83.4993 27.9389 83.5491 28.1358 83.6927 28.2738L88.6244 33.0275L87.4611 39.7321C87.4259 39.9289 87.5021 40.1169 87.6633 40.2345C87.8157 40.3461 88.0325 40.3637 88.1995 40.2756L94.3035 37.1055L94.3064 37.1084Z" fill="#247CB8"/>
<path d="M118.432 40.2374C118.584 40.349 118.801 40.3667 118.968 40.2785L125.072 37.1084L131.176 40.2785C131.346 40.3667 131.563 40.349 131.715 40.2374C131.873 40.1228 131.95 39.9289 131.914 39.735L130.751 33.0305L135.683 28.2768C135.821 28.1446 135.873 27.933 135.815 27.7509C135.756 27.5687 135.589 27.4247 135.399 27.3983L128.577 26.4199L125.529 20.3118C125.441 20.1385 125.265 20.0298 125.069 20.0298C124.873 20.0298 124.697 20.1385 124.609 20.3148L121.559 26.4229L114.74 27.4012C114.549 27.4277 114.382 27.5687 114.323 27.7509C114.262 27.9448 114.312 28.1416 114.455 28.2797L119.387 33.0334L118.224 39.7379C118.189 39.9348 118.265 40.1228 118.426 40.2403L118.432 40.2374Z" fill="#247CB8"/>
<path d="M149.204 40.2374C149.356 40.349 149.573 40.3667 149.74 40.2785L155.844 37.1084L161.93 40.2697C162.112 40.3608 162.334 40.3461 162.507 40.2227C162.648 40.1199 162.721 39.926 162.689 39.735L161.526 33.0305L166.457 28.2768C166.595 28.1446 166.648 27.933 166.589 27.7509C166.528 27.5599 166.372 27.4277 166.173 27.3983L159.351 26.42L156.304 20.3118C156.216 20.1385 156.04 20.0269 155.844 20.0269C155.647 20.0269 155.472 20.1356 155.384 20.3118L152.333 26.42L145.514 27.3983C145.321 27.4248 145.157 27.5628 145.098 27.7479C145.037 27.9389 145.086 28.1387 145.23 28.2768L150.162 33.0305L148.998 39.735C148.963 39.9318 149.039 40.1199 149.201 40.2374H149.204Z" fill="#247CB8"/>
<path d="M216.674 34.4248C216.853 34.4248 217 34.2768 217 34.0969V26.1032C216.987 25.2487 216.618 24.4167 215.985 23.8265C215.353 23.2362 214.496 22.927 213.633 22.9757H213.57C213.076 22.9776 212.599 23.0582 212.144 23.2175L210.764 23.7009L210.443 22.2674C210.279 21.531 209.862 20.8714 209.268 20.4086C208.673 19.9458 207.932 19.7041 207.184 19.7322H207.101C206.599 19.7322 206.1 19.8034 205.616 19.9402L203.955 20.4142V13.5148C203.928 12.2631 203.233 11.092 202.141 10.468C201.047 9.844 199.689 9.844 198.595 10.468C197.505 11.092 196.81 12.2612 196.78 13.5223V32.2886L194.479 29.5379C193.091 27.8795 191.755 26.9183 190.507 26.684L190.417 26.6691C190.244 26.6391 190.069 26.6259 189.894 26.6259C189.221 26.6259 188.552 26.8396 188.004 27.2387C187.473 27.6284 187.117 28.2337 187.03 28.8933C186.829 30.3867 187.647 32.4423 189.459 35.0019L189.482 35.0338L197.719 47.5415C198.701 49.0219 200.346 49.9419 202.116 50H205.26C205.439 50 205.586 49.852 205.586 49.6721C205.586 49.4922 205.439 49.3442 205.26 49.3442L201.995 49.3404C200.527 49.2355 199.193 48.4878 198.334 47.2867L198.31 47.2511L190.007 34.6422C188.286 32.2081 187.499 30.3005 187.676 28.9813C187.742 28.4848 188.006 28.0426 188.418 27.7371C189.02 27.2912 189.8 27.2274 190.331 27.3174C193.02 27.754 195.698 32.3074 196.435 33.6528H196.447L196.564 33.8626L196.819 34.3892C196.888 34.5316 197.048 34.6028 197.203 34.5578C197.354 34.5129 197.449 34.363 197.429 34.2056L197.408 34.0407L197.419 33.9488C197.425 32.952 197.434 21.2106 197.438 13.4998V13.4305C197.537 11.8659 198.826 10.6497 200.372 10.6497C201.919 10.6497 203.208 11.8659 203.305 13.4193V34.1362C203.307 34.3161 203.454 34.4641 203.633 34.4641C203.812 34.4641 203.959 34.3161 203.959 34.1362V22.6553C203.959 21.3193 205.267 20.3861 207.142 20.3861C208.623 20.3861 209.828 21.4036 209.828 22.6553V34.0969C209.828 34.2786 209.976 34.4248 210.154 34.4248C210.333 34.4248 210.481 34.2768 210.481 34.0969L210.486 26.1013C210.486 24.739 211.867 23.6316 213.562 23.6316C215.258 23.6316 216.35 24.6697 216.35 26.1013V34.095C216.35 34.2749 216.497 34.4229 216.676 34.4229L216.674 34.4248Z" fill="#247CB8" stroke="#247CB8" stroke-width="0.25"/>
<path d="M155.844 10.1698C156.125 10.1698 156.356 9.93771 156.356 9.65566V4.51415C156.356 4.2321 156.125 4 155.844 4C155.562 4 155.331 4.2321 155.331 4.51415V9.65566C155.331 9.93771 155.562 10.1698 155.844 10.1698Z" fill="#247CB8"/>
<path d="M169.851 14.6651L173.039 10.6665C173.136 10.5489 173.174 10.4197 173.159 10.2816C173.145 10.1406 173.077 10.0201 172.969 9.93196C172.881 9.86144 172.761 9.82031 172.646 9.82031C172.629 9.82031 172.611 9.82031 172.591 9.82325C172.453 9.83794 172.333 9.90551 172.248 10.0142L169.036 14.0393C168.948 14.148 168.91 14.2802 168.928 14.4183C168.942 14.5564 169.007 14.6739 169.112 14.7591C169.332 14.9295 169.666 14.8913 169.851 14.6651Z" fill="#247CB8"/>
<path d="M136.987 10.6664L140.184 14.6739C140.363 14.8913 140.697 14.9265 140.925 14.7503C141.019 14.6739 141.086 14.5475 141.098 14.4212C141.113 14.2802 141.078 14.148 140.99 14.0393L137.787 10.023C137.699 9.9143 137.582 9.84967 137.444 9.83204C137.424 9.83204 137.406 9.8291 137.385 9.8291C137.271 9.8291 137.16 9.8673 137.066 9.94075C136.846 10.117 136.808 10.4431 136.987 10.6635V10.6664Z" fill="#247CB8"/>
<path d="M176.447 28.124H181.484C181.766 28.124 181.997 27.8919 181.997 27.6099C181.997 27.3278 181.766 27.0957 181.484 27.0957H176.447C176.166 27.0957 175.934 27.3278 175.934 27.6099C175.934 27.8919 176.166 28.124 176.447 28.124Z" fill="#247CB8"/>
<path d="M171.943 42.0942C171.946 42.2323 172.002 42.3586 172.104 42.4527L175.802 45.9783C176.002 46.1634 176.342 46.1516 176.541 45.946C176.62 45.8607 176.673 45.7256 176.67 45.5934C176.667 45.4582 176.608 45.326 176.512 45.232L172.813 41.7064C172.717 41.6124 172.591 41.5595 172.456 41.5654C172.309 41.5683 172.186 41.6241 172.09 41.727C171.996 41.8269 171.946 41.9532 171.949 42.0942H171.943Z" fill="#247CB8"/>
</svg>
