<svg width="35" height="30" viewBox="0 0 35 30" fill="none" xmlns="http://www.w3.org/2000/svg">
<path d="M29.2195 6.08108V6.13288L29.2618 6.16276L34.528 9.88264C34.5281 9.90369 34.5276 9.92734 34.5271 9.95104C34.5269 9.96221 34.5266 9.9734 34.5265 9.98433L34.6264 9.98594L34.5265 9.98394C34.5257 10.0228 34.5249 10.0629 34.5249 10.1031V29.4876C34.5249 29.6289 34.5072 29.7371 34.4864 29.8132C34.4763 29.85 34.4656 29.8789 34.4561 29.9H0.694573C0.46237 29.8565 0.279288 29.6734 0.235742 29.4412L0.235742 10.1348C0.246803 10.0592 0.287054 9.99115 0.347897 9.94538L5.90554 6.12679L5.94891 6.09699V6.04437V0.547382C5.98104 0.323631 6.14948 0.145386 6.37104 0.1L28.7982 0.1C29.0188 0.144648 29.1873 0.322683 29.2195 0.54736V6.08108ZM6.466 0.517091H6.366V0.617091V14.3556V14.4054L6.40581 14.4354L17.5236 22.8169L17.5838 22.8623L17.644 22.8169L28.7626 14.4354L28.8024 14.4054V14.3556V0.617091V0.517091H28.7024L6.466 0.517091ZM5.78802 13.9873L5.94891 14.1108V13.908V6.76301V6.76222V6.57051L5.79169 6.68021L0.915108 10.0828L0.803085 10.161L0.911441 10.2441L5.78802 13.9873ZM0.813197 10.7569L0.652833 10.6354V10.8366L0.652833 29.1775V29.3656L0.808776 29.2604L13.6161 20.6164L13.732 20.5382L13.6206 20.4538L0.813197 10.7569ZM1.5 29.3007L1.492 29.3061L1.48517 29.3129L1.48439 29.3137L1.3134 29.4845H1.55505H33.6063H33.9325L33.6623 29.3016L21.0088 20.7405L20.949 20.7L20.8918 20.7441L17.5866 23.2893C17.5865 23.2894 17.5864 23.2895 17.5862 23.2896C17.5645 23.3061 17.5421 23.3229 17.5217 23.3386C17.5106 23.347 17.5001 23.355 17.4902 23.3625C17.4375 23.3506 17.3874 23.3271 17.3409 23.2913L17.3405 23.291L14.1535 20.8671L14.0965 20.8238L14.0371 20.8638L1.5 29.3007ZM33.9528 28.973L34.1086 29.0776V28.89V10.8296V10.6269L33.9477 10.7502L21.388 20.376L21.2774 20.4608L21.3931 20.5384L33.9528 28.973ZM29.3768 6.73054L29.2202 6.62313V6.813V13.8074V13.8572V13.858H29.3202H29.3208L29.3805 13.937L34.2665 10.2446L34.3773 10.1609L34.2628 10.0824L29.3768 6.73054Z" fill="#247CB8" stroke="#247CB8" stroke-width="0.2"/>
<path d="M14.9115 5.61397C14.9115 5.71522 14.8292 5.79751 14.728 5.79751H11.0551C10.9539 5.79751 10.8716 5.71522 10.8716 5.61397C10.8716 5.51272 10.9539 5.43042 11.0551 5.43042H14.728C14.8292 5.43042 14.9115 5.51272 14.9115 5.61397Z" fill="#247CB8" stroke="#247CB8" stroke-width="0.25"/>
<path d="M24.2976 9.28682C24.2976 9.38807 24.2153 9.47036 24.114 9.47036H11.0551C10.9539 9.47036 10.8716 9.38807 10.8716 9.28682C10.8716 9.18557 10.9539 9.10327 11.0551 9.10327H24.114C24.2153 9.10327 24.2976 9.18557 24.2976 9.28682Z" fill="#247CB8" stroke="#247CB8" stroke-width="0.25"/>
<path d="M24.2976 12.9597C24.2976 13.0609 24.2153 13.1432 24.114 13.1432H11.0551C10.9539 13.1432 10.8716 13.0609 10.8716 12.9597C10.8716 12.8584 10.9539 12.7761 11.0551 12.7761H24.114C24.2153 12.7761 24.2976 12.8584 24.2976 12.9597Z" fill="#247CB8" stroke="#247CB8" stroke-width="0.25"/>
</svg>
