<svg width="23" height="32" viewBox="0 0 23 32" fill="none" xmlns="http://www.w3.org/2000/svg">
<path d="M8.0866 9.0383C8.14109 8.76043 8.41358 8.57726 8.69685 8.63022C9.26654 8.75918 9.7887 9.04204 10.2044 9.44701C10.5308 9.81771 11.0054 10.0308 11.5048 10.0289C11.5124 10.0283 11.5193 10.032 11.5276 10.032C11.5358 10.032 11.5409 10.0289 11.5485 10.0289C12.0478 10.0314 12.5237 9.81833 12.8495 9.44576C13.2652 9.04204 13.7873 8.75918 14.357 8.62959C14.6403 8.57664 14.9134 8.75918 14.9673 9.03768C15.0211 9.31555 14.8355 9.58469 14.5522 9.63765C14.1618 9.73858 13.8063 9.94294 13.5256 10.2277C13.0237 10.7361 12.3406 11.0332 11.6201 11.0563C11.5897 11.0563 11.558 11.055 11.5269 11.0544C11.4959 11.0557 11.4642 11.0563 11.4338 11.0563C10.7139 11.0332 10.0308 10.7361 9.52889 10.2277C9.24753 9.94294 8.89266 9.73858 8.5023 9.63765C8.21904 9.58469 8.03337 9.31617 8.08723 9.03768L8.0866 9.0383ZM22.9994 19.5114V23.6882C22.9968 25.8918 22.1052 28.0045 20.5203 29.5627C18.9355 31.1209 16.7866 31.9975 14.5452 32H8.45477C6.21339 31.9975 4.06453 31.1209 2.47965 29.5627C0.894145 28.0045 0.00253478 25.8918 0 23.6882V19.5114C0 19.2279 0.233834 18.9986 0.521532 18.9986H2.80537C1.96953 16.6025 1.19515 14.3372 1.13685 12.3379C1.02659 10.7653 1.57917 9.21711 2.66469 8.05703C3.35289 7.38104 4.20331 6.88636 5.13737 6.61846L4.7692 3.27155L3.58292 3.39927C3.56391 3.40114 3.5449 3.40239 3.52525 3.40239C3.2591 3.40239 3.03667 3.20551 3.00752 2.94508L2.78002 0.905291C2.74897 0.623682 2.95556 0.37011 3.24199 0.338958L6.35407 0.00314599C6.6405 -0.0280054 6.89842 0.175725 6.9301 0.457334L7.1576 2.49775C7.18928 2.77936 6.98206 3.03293 6.69563 3.06408L5.80656 3.16003L6.16396 6.40663C6.43645 6.36925 6.71148 6.34993 6.9865 6.34744C7.98394 6.34495 8.96236 6.61223 9.81659 7.11937C10.3273 7.44397 10.9179 7.62652 11.5263 7.64708C12.134 7.62652 12.7253 7.44459 13.236 7.11937C14.0896 6.61223 15.068 6.34495 16.0655 6.34744C17.6795 6.33436 19.2333 6.94929 20.3879 8.05828C21.4734 9.21773 22.026 10.766 21.9157 12.3379C21.8568 14.3384 21.0831 16.6031 20.2472 18.9993H22.4785C22.6166 18.9993 22.7497 19.0535 22.8473 19.1494C22.9449 19.246 23 19.3762 23 19.512L22.9994 19.5114ZM6.27613 7.42466L7.41551 17.7788C7.57394 17.4859 7.77165 17.2149 8.00422 16.9738C8.79317 16.1707 9.91227 15.7963 11.5269 15.7963C13.1416 15.7963 14.2632 16.1707 15.0528 16.9751C16.0471 17.9881 16.4856 19.7039 16.3937 22.221C16.3031 24.1498 16.3886 26.0837 16.6485 27.9983C16.881 27.7939 17.0147 27.503 17.0179 27.1958C17.2568 24.5343 18.1022 21.963 19.0229 19.3444L19.1921 18.8591C20.0273 16.4667 20.8163 14.2063 20.8727 12.308C20.9791 11.0127 20.5324 9.73173 19.6401 8.77289C18.6833 7.86078 17.3988 7.35737 16.0661 7.37232C15.2391 7.37108 14.428 7.59786 13.7246 8.02588C13.0636 8.43085 12.3051 8.65389 11.5269 8.67258C10.7488 8.65389 9.99022 8.43085 9.32927 8.02588C8.62587 7.59786 7.81474 7.3717 6.98777 7.37232C6.75013 7.37419 6.51249 7.39164 6.27739 7.42466H6.27613ZM7.46367 27.9441C7.84896 27.726 8.13349 27.3703 8.25896 26.9504C8.3331 26.5678 8.3781 26.1797 8.39267 25.7903C8.53969 23.8333 8.78556 20.5575 11.5263 20.5575C14.267 20.5575 14.5129 23.8333 14.6599 25.7903C14.6745 26.1803 14.7195 26.5678 14.7936 26.9516C14.9197 27.3703 15.2043 27.726 15.5883 27.9453C15.3424 26.0345 15.2626 24.1069 15.35 22.1829C15.3684 21.6783 15.3621 21.2173 15.3367 20.7892C14.6536 19.755 13.5921 19.0186 12.3716 18.732C12.089 18.679 11.9027 18.4105 11.9566 18.132C12.0104 17.8535 12.2836 17.671 12.5668 17.7239C13.4762 17.904 14.3203 18.3177 15.0135 18.9233C14.8735 18.4635 14.6301 18.0411 14.3006 17.6872C13.7132 17.0891 12.8577 16.8218 11.5263 16.8218C10.1949 16.8218 9.34195 17.0884 8.75515 17.6853C8.42689 18.0379 8.18355 18.4585 8.0435 18.9158C8.73677 18.3139 9.57895 17.9034 10.4858 17.7246C10.769 17.6716 11.0422 17.8541 11.096 18.1326C11.1505 18.4111 10.9642 18.6797 10.6809 18.7332C9.46172 19.0192 8.40091 19.755 7.71715 20.788C7.69117 21.2166 7.6842 21.6783 7.70194 22.1842C7.78939 24.1075 7.70955 26.0345 7.46304 27.9447L7.46367 27.9441ZM6.06257 2.09901L5.94851 1.07849L3.87315 1.30216L3.98722 2.32206L6.06257 2.09839V2.09901ZM3.85921 18.8566L4.02841 19.3419V19.3432H4.02904C4.87946 21.5649 5.51189 23.8614 5.91745 26.2009C5.96498 26.5311 6.00427 26.8625 6.03405 27.1952C6.03722 27.5011 6.17093 27.7921 6.4035 27.9964C6.66331 26.0819 6.74886 24.1486 6.65824 22.2197C6.63923 21.6989 6.64684 21.178 6.68232 20.6578L5.25207 7.66078C4.55944 7.88445 3.92892 8.26512 3.41245 8.77102C2.51958 9.73048 2.07345 11.0114 2.17991 12.308C2.23568 14.2044 3.024 16.4642 3.85921 18.856V18.8566ZM21.9557 20.0248H19.8892C19.8594 20.1101 19.8296 20.1955 19.7998 20.2808C19.7441 20.4416 19.6889 20.6023 19.6338 20.7624C19.5774 20.9282 19.5223 21.0933 19.4671 21.2584C19.4184 21.4048 19.3696 21.5512 19.322 21.6976C19.2663 21.8683 19.2137 22.039 19.1604 22.2097C19.1167 22.3499 19.0724 22.4901 19.0299 22.6303C18.9779 22.8041 18.9285 22.9773 18.8784 23.1511C18.8392 23.2882 18.7992 23.4253 18.7618 23.5623C18.7137 23.7393 18.67 23.9168 18.625 24.0944C18.5914 24.2271 18.5565 24.3598 18.5248 24.4925C18.4817 24.6757 18.4437 24.8595 18.4051 25.0433C18.3785 25.1704 18.3487 25.2968 18.3246 25.4239C18.2853 25.6258 18.2536 25.8283 18.2207 26.0301C18.2036 26.1379 18.182 26.2457 18.1662 26.3535C18.1212 26.6638 18.0838 26.9747 18.0559 27.2862C18.0616 27.7422 17.8968 28.1833 17.592 28.5266C17.2879 28.8699 16.8652 29.0905 16.4058 29.1465C16.3785 29.149 16.3506 29.1447 16.3234 29.1465C16.3196 29.1472 16.3164 29.1496 16.3132 29.1509C16.2835 29.1559 16.253 29.1584 16.2226 29.1584C16.1998 29.1559 16.1776 29.1521 16.1554 29.1465C15.6098 29.1098 15.0896 28.9067 14.6663 28.5665C14.243 28.2263 13.9375 27.7647 13.793 27.2463C13.6916 26.7934 13.6327 26.3317 13.6181 25.8675C13.4553 23.7006 13.16 21.5848 11.5257 21.5848C9.89136 21.5848 9.59543 23.7 9.4332 25.8675C9.41799 26.3311 9.35969 26.7921 9.25893 27.2444C9.21521 27.3877 9.16008 27.5267 9.09354 27.6612C9.06882 27.7117 9.03777 27.7566 9.00989 27.8045C8.96553 27.8837 8.92244 27.9634 8.87048 28.0369C8.83119 28.093 8.7862 28.1428 8.74374 28.1952C8.69621 28.2531 8.65059 28.3129 8.59926 28.3671C8.54793 28.4207 8.49279 28.4668 8.4383 28.5154C8.38824 28.5603 8.33881 28.6064 8.28558 28.6469C8.22538 28.6923 8.16264 28.7316 8.0999 28.7721C8.04604 28.8064 7.99344 28.8412 7.93768 28.8712C7.87241 28.906 7.80523 28.9353 7.73806 28.964C7.67913 28.9889 7.62083 29.0138 7.56063 29.0338C7.49409 29.0562 7.42628 29.0736 7.35785 29.0898C7.29257 29.1054 7.2273 29.1185 7.1614 29.1285C7.09613 29.1378 7.03149 29.1434 6.96559 29.1465C6.92883 29.1484 6.89208 29.1565 6.85532 29.1565H6.83885C6.83505 29.1559 6.83188 29.1577 6.82871 29.1577C6.80463 29.1577 6.77991 29.1553 6.75583 29.1515C6.72035 29.1496 6.68486 29.1496 6.64874 29.1459C6.18868 29.0905 5.76537 28.8699 5.46056 28.5272C5.15512 28.184 4.98972 27.7422 4.99543 27.2868C4.96754 26.9747 4.93016 26.6631 4.88516 26.3523C4.87059 26.2532 4.85094 26.1535 4.8351 26.0544C4.80088 25.8432 4.7673 25.6314 4.72674 25.4208C4.70329 25.3006 4.67541 25.1803 4.65006 25.0601C4.61014 24.8701 4.57085 24.6807 4.52649 24.4906C4.49607 24.3611 4.46185 24.2315 4.4289 24.1019C4.38391 23.9218 4.33892 23.7411 4.29012 23.5611C4.25337 23.4253 4.21345 23.2894 4.17479 23.1542C4.12473 22.9798 4.0753 22.8047 4.0227 22.6303C3.98088 22.492 3.93715 22.3537 3.89406 22.2153C3.83956 22.0415 3.7857 21.8671 3.72867 21.6926C3.68494 21.5574 3.63932 21.4222 3.59432 21.2864C3.53349 21.1039 3.47265 20.9207 3.40992 20.7375C3.36809 20.6154 3.32627 20.4933 3.28381 20.3712C3.24389 20.2553 3.20333 20.14 3.16278 20.0235H1.0437V23.6876C1.04623 25.6189 1.82758 27.4712 3.21664 28.8369C4.6057 30.2026 6.48968 30.9708 8.45414 30.9733H14.5446C16.5091 30.9708 18.393 30.2026 19.7821 28.8369C21.1712 27.4706 21.9525 25.6189 21.955 23.6876V20.0235L21.9557 20.0248Z" fill="black"/>
</svg>
