<svg width="27" height="30" viewBox="0 0 27 30" fill="none" xmlns="http://www.w3.org/2000/svg">
<path d="M26.0435 1.67924C26.034 1.63436 26.0309 1.58885 26.0189 1.5446C25.9866 1.44093 25.9468 1.33916 25.8994 1.24118C25.8868 1.21337 25.8798 1.18366 25.8659 1.15648C25.8002 1.02879 25.7224 0.908057 25.6326 0.796172C25.5587 0.702618 25.4771 0.615386 25.3887 0.535739L25.3855 0.533843L25.3779 0.526258C25.0378 0.231691 24.6149 0.0509052 24.1668 0.00855336H24.1636C23.5896 -0.0426482 23.0188 0.137505 22.5789 0.50919L1.24998 18.6851C0.67728 19.1731 0.403573 19.9266 0.530629 20.6687L1.64063 28.9614C1.69373 29.2528 1.8467 29.5158 2.07363 29.7054C2.30056 29.8951 2.58691 29.9994 2.88274 30C2.95796 30 3.03381 29.993 3.10777 29.9798C3.41561 29.9223 3.69122 29.7522 3.88148 29.5032C4.07175 29.2541 4.16341 28.9437 4.13812 28.6315L3.67415 21.328L3.92763 21.1225L4.4643 28.0916C4.46556 28.1112 4.46872 28.1308 4.47188 28.1504C4.53383 28.4798 4.72599 28.7705 5.00413 28.9576C5.28226 29.1447 5.62423 29.2111 5.95293 29.1429C6.25825 29.0828 6.53069 28.9115 6.71716 28.6624C6.90364 28.4134 6.99213 28.1043 6.96495 27.7945L7.00225 20.9247L25.3299 3.78356C25.3817 3.74058 25.4215 3.69001 25.4677 3.64386C25.5227 3.59329 25.5751 3.54019 25.6244 3.48457C25.668 3.43084 25.6997 3.37142 25.7376 3.3139C25.7761 3.25511 25.821 3.19885 25.8533 3.1369C25.8861 3.07496 25.907 3.00732 25.9335 2.94284C25.9582 2.8809 25.9898 2.82084 26.0088 2.757C26.0277 2.68494 26.0423 2.61161 26.053 2.53766C26.0644 2.47697 26.0821 2.41819 26.089 2.35687C26.0947 2.27469 26.096 2.19189 26.0916 2.10908C26.0916 2.05535 26.0973 2.00225 26.0928 1.94852C26.0821 1.85813 26.0656 1.76774 26.0435 1.67924ZM6.12803 20.3172C6.02373 20.4152 5.96368 20.5511 5.96305 20.6946L5.92449 27.8173C5.92449 27.8401 5.92575 27.8622 5.92828 27.8837C5.94092 27.9981 5.86191 28.1024 5.74813 28.122C5.6925 28.1346 5.63435 28.1232 5.58757 28.091C5.54522 28.0632 5.51424 28.0215 5.4997 27.9728L4.9112 20.3273L13.9303 13.0201L6.12803 20.3172ZM25.0568 2.07495C25.0606 2.13373 25.0599 2.19252 25.0549 2.25067C25.0524 2.27343 25.0454 2.29492 25.0416 2.31705C25.0353 2.36382 25.0258 2.4106 25.0138 2.45674C25.005 2.48582 24.9904 2.513 24.9797 2.54145C24.9664 2.57938 24.9512 2.61604 24.9342 2.6527C24.9196 2.68051 24.8994 2.70517 24.8823 2.73172C24.8621 2.76585 24.8406 2.79935 24.8166 2.83159C24.7976 2.85561 24.7723 2.87521 24.7508 2.89796C24.7224 2.92957 24.6921 2.95991 24.6598 2.98836L4.03951 19.694L4.03825 19.6952L2.81068 20.6876C2.6792 20.7932 2.60777 20.9569 2.61788 21.1251L3.10019 28.7124C3.11093 28.8262 3.03445 28.9305 2.92256 28.9545C2.81068 28.9766 2.70006 28.909 2.66845 28.7996L1.55845 20.5069C1.48955 20.1232 1.62925 19.7313 1.92508 19.4771L23.2546 1.30187C23.4563 1.13246 23.7116 1.04017 23.9746 1.0408C24.0068 1.0408 24.0391 1.04207 24.072 1.04459C24.2995 1.06609 24.5151 1.15711 24.6895 1.30566C24.7363 1.34864 24.7793 1.39479 24.8185 1.44472C24.9101 1.55914 24.9778 1.69062 25.0182 1.83158L25.0195 1.83853C25.0378 1.90427 25.0505 1.97191 25.0568 2.04018C25.0581 2.05156 25.0555 2.06357 25.0568 2.07495Z" fill="black"/>
</svg>
