<svg width="26" height="35" viewBox="0 0 26 35" fill="none" xmlns="http://www.w3.org/2000/svg">
<path d="M23.9873 9.97603C22.6464 8.66571 20.8417 7.93949 18.967 7.95581C17.8083 7.95309 16.6714 8.26928 15.68 8.86902C15.0741 9.25729 14.3751 9.47625 13.6557 9.50276C12.9383 9.47625 12.24 9.25797 11.6348 8.87106C10.9963 8.50047 10.3034 8.23188 9.58193 8.07481C9.42485 8.04421 9.26234 8.08228 9.13518 8.17884C9.00803 8.27608 8.92847 8.42296 8.91623 8.58207C8.79247 10.2269 7.62426 12.5137 6.76001 12.8007C6.06983 13.0325 4.07136 12.2261 2.87188 11.5808C2.73316 11.506 2.56861 11.4931 2.42037 11.5454C2.27146 11.5978 2.15178 11.7107 2.09058 11.8562C1.68735 12.8653 1.50376 13.9485 1.55204 15.0337C1.62275 17.4851 2.58425 20.2771 3.6015 23.2329C4.66907 26.3336 5.77336 29.5398 6.06507 32.82C6.19562 34.2887 7.12448 34.9028 7.95065 34.9871C8.62996 35.0129 9.2977 34.8055 9.84372 34.4009C10.3897 33.9957 10.7814 33.417 10.9541 32.7595C11.0718 32.2243 11.1391 31.679 11.1568 31.1316C11.3485 28.5293 11.7001 25.9882 13.6557 25.9882C15.6113 25.9882 15.9629 28.5286 16.1546 31.1316C16.1716 31.6803 16.2396 32.2257 16.3573 32.7622C16.5245 33.3782 16.8815 33.9263 17.3779 34.3282C17.8743 34.73 18.4842 34.9646 19.1221 35C19.2016 35 19.2819 34.9959 19.3614 34.9878C20.1876 34.9034 21.1164 34.2894 21.247 32.8207C21.5387 29.5411 22.643 26.3343 23.7106 23.2336C24.7285 20.2777 25.6893 17.4864 25.76 15.0344C25.8994 13.1747 25.2568 11.3421 23.9873 9.97671V9.97603ZM22.6518 22.8678C21.5625 26.0324 20.4358 29.3045 20.1312 32.72C20.07 33.4109 19.7558 33.8202 19.2472 33.8719C18.8276 33.8706 18.421 33.7284 18.0919 33.4694C17.7628 33.2096 17.5295 32.8472 17.4303 32.4399C17.3419 31.9802 17.2888 31.5151 17.2712 31.0473C17.1005 28.7353 16.8149 24.8669 13.655 24.8669C10.4951 24.8669 10.2102 28.736 10.0389 31.0473C10.0219 31.5137 9.96884 31.9788 9.88044 32.4372C9.78048 32.8445 9.54793 33.2069 9.21814 33.4666C8.88903 33.7264 8.4824 33.8692 8.06353 33.8719C7.55491 33.8196 7.24076 33.4102 7.17956 32.7193C6.87561 29.3038 5.74888 26.0317 4.65887 22.8671C3.6695 19.9949 2.7352 17.2817 2.66992 15.0018C2.64205 14.2796 2.72636 13.5582 2.91948 12.8619C3.97277 13.3746 6.00183 14.2341 7.11292 13.8628C8.48648 13.4065 9.60573 11.0579 9.94028 9.32529C10.3449 9.47081 10.7365 9.65032 11.1112 9.86112C11.8762 10.3371 12.754 10.6003 13.655 10.6227C14.5573 10.6003 15.4372 10.3364 16.2029 9.85908C17.0332 9.34569 17.9899 9.07438 18.9663 9.07574C20.5385 9.05738 22.0548 9.66188 23.1836 10.7573C24.2382 11.9085 24.7659 13.446 24.6401 15.0018C24.5748 17.2824 23.6399 19.9955 22.6512 22.8678H22.6518ZM17.6315 11.1184C17.6893 11.4223 17.4901 11.7154 17.1862 11.7732C16.7204 11.8949 16.2967 12.1418 15.9615 12.4865C15.3828 13.0835 14.5954 13.4324 13.7645 13.4603C13.7217 13.4603 13.6781 13.4596 13.6333 13.4575C12.771 13.4623 11.9455 13.1107 11.3506 12.4865C11.15 12.3056 10.9351 12.1418 10.7073 11.9969C10.4414 11.8392 10.3537 11.4958 10.5108 11.2292C10.6685 10.9634 11.0126 10.8756 11.2785 11.0334C11.5614 11.2095 11.8286 11.4101 12.0768 11.6331C12.4725 12.0785 13.0383 12.3349 13.6333 12.339C14.2439 12.3451 14.828 12.0881 15.2366 11.6338C15.7167 11.1592 16.3192 10.8267 16.9767 10.6737C17.28 10.6173 17.5724 10.8158 17.6315 11.1191V11.1184ZM5.56732 5.90703C7.12584 5.38956 8.3566 2.43708 8.48648 0.710614C8.50824 0.428422 8.31512 0.174789 8.03769 0.119031C7.6297 0.0381129 7.21492 -0.00132597 6.79877 3.39959e-05C4.66091 3.39959e-05 1.74039 1.02205 0.542945 3.90312C0.432788 4.16832 0.540905 4.47431 0.794537 4.61098C1.27256 4.8687 3.45326 5.99814 4.93358 5.99814C5.14845 6.00222 5.36265 5.97162 5.568 5.90771L5.56732 5.90703ZM6.79877 1.11996C6.97148 1.11996 7.13808 1.12744 7.30127 1.1424C7.01228 2.71316 5.99027 4.58718 5.21305 4.84422C4.60719 5.04685 2.99496 4.45187 1.79887 3.8664C2.89364 1.85026 5.12805 1.11996 6.79877 1.11996ZM5.84407 7.52538V9.84412L6.29354 9.50072C6.41118 9.40825 6.56077 9.36745 6.70969 9.38649C6.85793 9.40553 6.99256 9.48237 7.08368 9.60136C7.1748 9.72036 7.21424 9.86996 7.19384 10.0182C7.17344 10.1664 7.09456 10.2997 6.97488 10.3895L5.62512 11.4224C5.60336 11.436 5.58092 11.4482 5.5578 11.4577C5.54352 11.4659 5.53128 11.4774 5.51632 11.4842C5.50544 11.489 5.49524 11.4924 5.48368 11.4971C5.42045 11.523 5.35313 11.5366 5.28513 11.5373C5.21713 11.5359 5.14981 11.5223 5.08658 11.4971C5.0757 11.4931 5.06482 11.4897 5.05462 11.4849C5.03898 11.4781 5.02674 11.4665 5.01246 11.4584C4.98934 11.4475 4.9669 11.436 4.94514 11.4224L3.59538 10.3895C3.35399 10.2004 3.30911 9.85159 3.4961 9.60748C3.6831 9.36337 4.03125 9.31577 4.27672 9.50005L4.72619 9.84344V7.5247C4.72619 7.21531 4.9771 6.96508 5.28581 6.96508C5.59452 6.96508 5.84611 7.21599 5.84611 7.5247L5.84407 7.52538Z" fill="black"/>
</svg>
