<svg width="32" height="30" viewBox="0 0 32 30" fill="none" xmlns="http://www.w3.org/2000/svg">
<path d="M10.3607 15.7932H22.6062C22.8912 15.7932 23.1125 15.5718 23.1125 15.3187C23.1125 15.0656 22.8912 14.8442 22.638 14.8442H10.3607C10.1075 14.8442 9.88623 15.0656 9.88623 15.3187C9.88623 15.5718 10.1075 15.7932 10.3607 15.7932Z" fill="black"/>
<path fill-rule="evenodd" clip-rule="evenodd" d="M16.2148 13.768C15.1075 13.768 14.1897 12.8502 14.1897 11.7429C14.1897 10.6356 15.1075 9.71777 16.2148 9.71777C17.3221 9.71777 18.24 10.6356 18.24 11.7429C18.24 12.281 18.0186 12.7873 17.6389 13.167C17.2592 13.5467 16.7529 13.768 16.2148 13.768ZM16.2148 10.6667C15.6138 10.6667 15.1386 11.1411 15.1386 11.7429C15.1386 12.3447 15.6131 12.8191 16.2148 12.8191C16.8166 12.8191 17.291 12.3447 17.291 11.7429C17.291 11.4579 17.1645 11.173 16.9742 10.9835C16.7529 10.7622 16.4998 10.6667 16.2148 10.6667Z" fill="black"/>
<path fill-rule="evenodd" clip-rule="evenodd" d="M17.0061 21.2983C15.8988 21.2983 14.981 20.3805 14.981 19.2732C14.981 18.1659 15.8988 17.248 17.0061 17.248C18.1134 17.248 19.0312 18.1659 19.0312 19.2732C19.0312 19.8113 18.8099 20.3176 18.4302 20.6973C18.0505 21.077 17.5442 21.2983 17.0061 21.2983ZM17.0061 18.197C16.4051 18.197 15.9299 18.6714 15.9299 19.2732C15.9299 19.8749 16.4043 20.3494 17.0061 20.3494C17.6078 20.3494 18.0823 19.8749 18.0823 19.2732C18.0823 18.9882 17.9557 18.7032 17.7655 18.5138C17.5442 18.2924 17.291 18.197 17.0061 18.197Z" fill="black"/>
<path fill-rule="evenodd" clip-rule="evenodd" d="M4.75598 3.52035L4.69766 3.57868L0.520104 8.32471C0.0138223 8.92647 -0.143848 9.74881 0.140393 10.4764L5.7095 25.1586C6.12103 26.2659 7.35491 26.804 8.4304 26.3925L12.417 24.8736L16.7841 29.2407C17.7966 30.2532 19.442 30.2532 20.4546 29.2407L30.6439 19.0514C31.6565 18.007 31.6565 16.3616 30.6439 15.349L16.3096 1.01544C15.6138 0.319668 14.6324 0.0976272 13.7145 0.382592L5.93154 2.78743C5.82655 2.81972 5.72363 2.85818 5.62331 2.90281C5.35328 1.63112 4.65851 0.35583 2.03901 0.00349291C1.78587 -0.0283305 1.532 0.161164 1.5009 0.414305C1.4698 0.667446 1.6593 0.920587 1.91244 0.95241C4.15804 1.26166 4.56127 2.24252 4.75598 3.52035ZM7.53585 7.4367C7.83894 7.49995 8.17782 7.54407 8.55703 7.5659C8.81017 7.5659 9.06331 7.31276 9.06331 7.05962C9.06331 6.80648 8.842 6.58516 8.58886 6.58516C8.23848 6.5673 7.93464 6.52965 7.67065 6.47393C7.86367 6.19465 8.18636 6.01435 8.55687 6.01435C8.84183 6.01435 9.1268 6.10982 9.31629 6.33114C9.50651 6.52063 9.63308 6.80559 9.63308 7.09056C9.63308 7.69231 9.15862 8.16677 8.55687 8.16677C8.07664 8.16677 7.67748 7.8646 7.53585 7.4367ZM6.53178 7.10318C6.53872 8.20484 7.45376 9.11569 8.55687 9.11569C9.09497 9.11569 9.60126 8.89437 9.98097 8.51466C10.3607 8.13495 10.582 7.62866 10.582 7.09056C10.582 5.98325 9.66418 5.06543 8.55687 5.06543C7.793 5.06543 7.11932 5.5022 6.7749 6.13663C6.01777 5.6641 5.90003 4.86302 5.77698 3.89951C5.90225 3.81687 6.03889 3.75113 6.18323 3.70597L13.9988 1.26931C14.1572 1.20566 14.3156 1.20566 14.4732 1.20566C14.9159 1.20566 15.3274 1.39516 15.6442 1.68012L29.9785 16.0144C30.6113 16.6791 30.6113 17.7228 29.9785 18.3563L19.7899 28.5456C19.1571 29.1785 18.1127 29.1785 17.448 28.5456L3.11372 14.2113C2.67108 13.7687 2.51269 13.1351 2.70218 12.5659L5.00652 5.10748C5.19884 5.88498 5.58266 6.63645 6.53178 7.10318ZM3.68364 6.14191L1.21588 8.95829C0.930916 9.27508 0.867269 9.74954 0.99384 10.1292L1.81691 12.2491L3.68364 6.14191ZM6.56367 24.8114C6.81681 25.4125 7.48148 25.6974 8.08251 25.4761L11.6901 24.1475L3.05152 15.5089L6.56367 24.8114Z" fill="black"/>
</svg>
