<svg class="stroke-gray-300 duration-300 group-hover:stroke-blue-500" width="23" height="20" viewBox="0 0 23 20" fill="none" xmlns="http://www.w3.org/2000/svg"><path d="M11.197 2.92535L11.5 3.34062L11.803 2.92535C12.9155 1.40028 14.8759 0.375 16.883 0.375C20.0433 0.375 22.6254 2.98741 22.625 6.20756V6.20761C22.625 8.86137 20.9707 11.4931 18.7308 13.827C16.5015 16.1497 13.7522 18.1153 11.6889 19.4339L11.6887 19.4341L11.5 19.5548L11.3113 19.4341L11.3111 19.4339C9.2478 18.1153 6.49846 16.1497 4.26923 13.827C2.02927 11.4931 0.375 8.86137 0.375 6.20761C0.375 2.98736 2.95632 0.375 6.11705 0.375C8.12409 0.375 10.0845 1.40028 11.197 2.92535Z" stroke-width="0.75"/></svg>