<svg width="30" height="30" viewBox="0 0 30 30" fill="none" xmlns="http://www.w3.org/2000/svg">
<path d="M28.4569 29.0272H26.8924V27.5326C26.8924 27.1455 26.7416 26.7744 26.4739 26.5007C26.2062 26.2271 25.8431 26.0729 25.4644 26.0723H25.2956L21.0381 21.9891C21.7059 21.5984 22.1251 20.8798 22.1453 20.0938L22.1482 19.9933L25.2933 23.1138C25.709 23.5257 26.2646 23.7556 26.8433 23.7562C26.882 23.7562 26.9208 23.755 26.9595 23.7532C27.5434 23.7213 28.0921 23.4548 28.4852 23.0121C28.8784 22.5694 29.0854 21.9861 29.0605 21.3886C29.0356 20.7911 28.7818 20.2279 28.3528 19.8207L23.7566 15.458C23.6826 15.3877 23.6051 15.3221 23.5265 15.2589V3.77114C23.5253 2.77118 23.1362 1.81259 22.4448 1.10576C21.7522 0.398936 20.8144 0.00119819 19.8368 1.62055e-05H16.979C16.8662 1.62055e-05 16.7576 0.0407947 16.6714 0.11526L15.673 0.978109C14.8977 0.256507 13.8576 -0.0915877 12.8152 0.020701C11.7722 0.133581 10.8269 0.696206 10.2158 1.56674C10.2054 1.58565 10.1962 1.60515 10.1892 1.62525C10.154 1.70089 10.1343 1.78304 10.1314 1.86637C10.1337 1.90538 10.1413 1.94438 10.1528 1.98162C10.1569 2.00112 10.1615 2.02062 10.1673 2.03894C10.1904 2.09568 10.2239 2.14768 10.2661 2.19201L14.7271 6.7858C14.8161 6.87799 14.9381 6.93 15.0647 6.93C15.1376 6.93118 15.2093 6.91168 15.2729 6.87445C15.2954 6.86499 15.3174 6.85435 15.3388 6.84135C16.1164 6.27991 16.6506 5.43183 16.8287 4.47561C17.0067 3.51938 16.8148 2.53006 16.2933 1.71567L17.1536 0.9722H19.8368C20.5623 0.972791 21.2584 1.2677 21.7712 1.7925C22.284 2.3173 22.5731 3.02826 22.5737 3.76996V14.7246C22.1979 14.5851 21.8013 14.5136 21.4018 14.513H12.888L14.2345 12.9658H20.1594C20.4224 12.9658 20.6352 12.7477 20.6352 12.4794C20.6352 12.2111 20.4218 11.993 20.1594 11.993H14.0206C13.8847 11.993 13.7552 12.0521 13.6651 12.1561L11.6138 14.5136H11.3912C11.0426 14.5136 10.7055 14.3842 10.4436 14.149L7.49855 11.5149C7.61071 11.2372 7.63962 10.9316 7.58238 10.6367C7.52514 10.3424 7.3835 10.0711 7.17652 9.85837L4.47774 7.09902C4.19792 6.81417 3.81981 6.65401 3.42494 6.65401C3.03006 6.65401 2.65138 6.81417 2.37213 7.09902L0.435922 9.07649C0.157256 9.36194 0 9.74904 0 10.1527C0 10.5563 0.156677 10.9434 0.435922 11.2289L3.13471 13.9882C3.41395 14.2743 3.79264 14.4344 4.18751 14.4338C4.22335 14.4338 4.25862 14.4262 4.29504 14.4232L8.07265 17.8982C8.58662 18.3704 9.22721 18.6736 9.91173 18.77V20.0299C9.91231 20.6322 10.1465 21.209 10.5633 21.6351C10.9801 22.0606 11.5444 22.3 12.1335 22.3011H15.2099L19.143 26.0729H7.62632C7.24763 26.0729 6.88456 26.2271 6.61688 26.5007C6.3492 26.7744 6.1983 27.1455 6.19772 27.5326V29.0272H4.63326C4.3702 29.0272 4.15745 29.2453 4.15745 29.5136C4.15745 29.7819 4.37078 30 4.63326 30H28.4563C28.7194 30 28.9321 29.7819 28.9321 29.5136C28.9321 29.2453 28.7194 29.0272 28.4563 29.0272H28.4569ZM15.0989 5.7882L11.2455 1.81968C11.7572 1.28188 12.4585 0.976928 13.1921 0.973382C13.9264 0.969245 14.6306 1.26711 15.1474 1.79959C15.6643 2.33207 15.9505 3.05427 15.9412 3.80424C15.932 4.55421 15.6284 5.26931 15.0989 5.7882ZM1.10888 10.5404C0.899595 10.3258 0.899595 9.97893 1.10888 9.7644L3.04278 7.78753C3.25265 7.57359 3.59202 7.57359 3.80246 7.78753L6.50125 10.5463C6.67585 10.7289 6.70244 11.012 6.56484 11.2247C6.54288 11.2389 6.52264 11.2549 6.50356 11.2726C6.47754 11.3069 6.45673 11.3441 6.44112 11.3843L4.56735 13.2997C4.35748 13.5137 4.01811 13.5137 3.80825 13.2997L1.10946 10.541L1.10888 10.5404ZM5.24263 13.9853L6.90884 12.282L9.8146 14.8812C10.2505 15.2719 10.8102 15.487 11.39 15.487H21.4012C22.0343 15.4864 22.6442 15.7311 23.1079 16.1719L27.7042 20.5347C27.9487 20.7669 28.0944 21.089 28.1083 21.4306C28.1227 21.7722 28.0042 22.1049 27.7799 22.3585C27.555 22.6114 27.2422 22.7633 26.9081 22.7816C26.5548 22.8029 26.2091 22.6699 25.9559 22.4164L22.0337 18.5241C21.588 18.0803 20.9902 17.832 20.3675 17.8332H10.387C9.76719 17.8332 9.16939 17.5992 8.70919 17.1749L5.24263 13.9859V13.9853ZM10.8634 20.0294V18.8066H20.3681C20.6756 18.8078 20.974 18.91 21.2197 19.0991L21.1931 20.066C21.1856 20.404 21.048 20.7255 20.8109 20.9614C20.5733 21.1972 20.2553 21.3284 19.9241 21.3266H12.133C11.7965 21.3266 11.4739 21.1895 11.2357 20.946C10.9975 20.7025 10.8639 20.3727 10.8634 20.0288V20.0294ZM16.6009 22.3005H19.9241C19.9385 22.3005 19.9518 22.2964 19.9657 22.2964L23.9034 26.0723H20.534L16.6009 22.3005ZM7.15051 27.5326C7.15051 27.2637 7.36384 27.0462 7.62632 27.0462H25.4644C25.7275 27.0462 25.9402 27.2643 25.9402 27.5326V29.0272H7.15108V27.5326H7.15051Z" fill="black"/>
</svg>
