<svg width="19" height="33" viewBox="0 0 19 33" fill="none" xmlns="http://www.w3.org/2000/svg">
<path d="M18.9936 12.6875C18.9936 12.6811 18.9962 12.6747 18.9955 12.6683L18.4527 7.51538V3.90987C18.4527 3.68432 18.3096 3.48377 18.096 3.41072L16.8051 2.96924V1.09056C16.8051 0.799017 16.5683 0.563221 16.2764 0.563221C15.9844 0.563221 15.7483 0.799658 15.7483 1.09056V2.96924L14.4574 3.41072C14.2437 3.48377 14.1 3.68496 14.1 3.91051V7.5173L13.6791 12.6811C13.6785 12.6914 13.683 12.7003 13.6823 12.7106C13.6823 12.7151 13.6798 12.7183 13.6798 12.7228V30.3197C13.6734 31.0284 13.9512 31.7102 14.451 32.2138C14.9508 32.7174 15.6309 33.0006 16.3405 33.0006C17.0501 33.0006 17.7303 32.7174 18.2301 32.2138C18.7299 31.7102 19.0071 31.0284 19.0006 30.3197V12.7215C19.0006 12.7093 18.9949 12.6991 18.9936 12.6869V12.6875ZM15.1568 4.28791L16.2764 3.90474L17.396 4.28791V7.01367H15.1561V4.28791H15.1568ZM15.1157 8.06963H17.4492L17.8836 12.1954H14.7788L15.1157 8.06963ZM17.9439 30.321C17.949 30.749 17.7822 31.161 17.4807 31.4654C17.1791 31.7698 16.7691 31.9408 16.3405 31.9408C15.9119 31.9408 15.5013 31.7698 15.1997 31.4654C14.8982 31.161 14.732 30.749 14.7365 30.321V27.3447H17.9439V30.321ZM17.9439 26.2894H14.7365V25.0226H17.9439V26.2894ZM17.9439 23.968H14.7365V13.2495H17.9439V23.9667V23.968ZM8.72077 1.69158H7.11995L6.67595 0.360743C6.60409 0.145451 6.40199 0 6.17486 0H0.528045C0.236754 0 0 0.236437 0 0.527339V3.91051C0.00320805 3.93934 0.00898254 3.96754 0.0173235 3.99573C0.0186067 4.02456 0.0218147 4.05275 0.0282308 4.08095L2.9636 12.6728V30.189C2.95718 30.8977 3.235 31.5795 3.73417 32.0831C4.23399 32.5867 4.91409 32.8699 5.62371 32.8699C6.33333 32.8699 7.01344 32.5867 7.51326 32.0831C8.01307 31.5795 8.29025 30.8977 8.28447 30.189V12.5908C8.28447 12.5869 8.28255 12.5837 8.28255 12.5805C8.27164 12.512 8.25624 12.4434 8.23699 12.3761C8.23443 12.3704 8.23507 12.3633 8.23186 12.3575L4.34113 4.43913H6.17486C6.40199 4.43913 6.60409 4.29368 6.67595 4.07839L7.11995 2.74754H8.72141C9.01334 2.74754 9.24945 2.51175 9.24945 2.22021C9.24945 1.92866 9.0127 1.69287 8.72141 1.69287L8.72077 1.69158ZM7.22774 30.1877C7.23287 30.6158 7.06605 31.0278 6.7645 31.3321C6.46294 31.6365 6.05295 31.8076 5.62435 31.8076C5.19576 31.8076 4.78513 31.6365 4.48357 31.3321C4.18201 31.0278 4.01584 30.6158 4.02033 30.1877V27.3434H7.22774V30.1877ZM7.22774 26.2881H4.02033V25.0214H7.22774V26.2881ZM7.22774 23.9667H4.02033V13.1181H7.22774V23.9673V23.9667ZM6.91078 12.0622H3.87212L1.26718 4.43785H3.16442L6.91078 12.0628V12.0622ZM5.79374 3.38317H1.05673V1.05532H5.79374L6.18191 2.21956L5.79374 3.38317Z" fill="black"/>
</svg>
