<svg width="38" height="30" viewBox="0 0 38 30" fill="none" xmlns="http://www.w3.org/2000/svg">
<path d="M3.23575 10.1321C3.68382 10.382 4.18725 10.5161 4.69943 10.5241C4.70453 10.5241 4.70963 10.5212 4.71473 10.5212C5.29102 10.5051 5.85202 10.3376 6.34307 10.0359C6.79988 9.75035 7.32808 9.59953 7.86649 9.60026C8.73275 9.58861 9.56768 9.9201 10.1906 10.5226C10.7676 11.1587 11.054 12.006 10.9818 12.8613C10.9447 14.18 10.3939 15.7792 9.81102 17.4716C9.0708 19.3827 8.56154 21.3753 8.29561 23.4072C8.25773 23.8291 8.06757 23.848 8.00492 23.8546C7.61951 23.8364 7.29238 23.5632 7.20569 23.1872C7.15979 22.9308 7.13137 22.6721 7.12044 22.412C7.01845 21.0394 6.82902 18.4844 4.6987 18.4844C4.69142 18.4844 4.68486 18.488 4.67758 18.4887C3.98908 18.4822 3.34941 18.8392 2.99314 19.4278C2.81391 19.7069 2.89551 20.0777 3.17382 20.2569C3.45286 20.4362 3.82443 20.3546 4.00293 20.0763C4.14062 19.8242 4.41019 19.6726 4.69797 19.6857H4.70307C5.54894 19.6894 5.79155 20.7203 5.92269 22.5002C5.93362 22.847 5.97806 23.1923 6.05529 23.5304C6.17113 23.9529 6.41738 24.3281 6.75908 24.6021C7.10077 24.876 7.52115 25.0349 7.95829 25.056C8.01366 25.056 8.06903 25.0531 8.1244 25.048C8.50107 25.005 8.84859 24.825 9.10068 24.5416C9.35203 24.2582 9.49118 23.8925 9.489 23.5136C9.74545 21.5778 10.2336 19.6806 10.9439 17.8622C11.3104 16.7977 11.6623 15.7697 11.8976 14.7935C12.133 15.7697 12.4841 16.7977 12.8513 17.8622C13.5617 19.6806 14.0498 21.5778 14.3063 23.5136C14.3048 23.8925 14.4432 24.2589 14.6946 24.5423C14.9467 24.8258 15.2942 25.0057 15.6708 25.0487C15.7262 25.0545 15.7816 25.0574 15.8377 25.0574C16.2756 25.0363 16.6952 24.8775 17.0369 24.6035C17.3793 24.3296 17.6256 23.9544 17.7414 23.5318C17.8186 23.193 17.8624 22.8477 17.874 22.5009C18.0059 20.7174 18.2485 19.6843 19.0987 19.6843C19.949 19.6843 20.1916 20.7174 20.3234 22.5009C20.3344 22.8477 20.3788 23.193 20.456 23.5318C20.5719 23.9544 20.8181 24.3296 21.1598 24.6035C21.5023 24.8775 21.9219 25.0363 22.359 25.0574C22.4151 25.0574 22.4705 25.0545 22.5259 25.0487C22.9026 25.0057 23.2501 24.8258 23.5022 24.5423C23.7542 24.2589 23.8927 23.8932 23.8905 23.5136C24.1469 21.5778 24.6351 19.6806 25.3454 17.8622C25.7119 16.7977 26.0638 15.7697 26.2991 14.7935C26.5344 15.7697 26.8856 16.7977 27.2528 17.8622C27.9632 19.6806 28.4513 21.5778 28.7077 23.5136C28.7063 23.8925 28.8447 24.2589 29.0961 24.5423C29.3481 24.8258 29.6957 25.0057 30.0723 25.0487C30.1277 25.0545 30.1831 25.0574 30.2384 25.0574C30.6763 25.0363 31.096 24.8775 31.4384 24.6035C31.7808 24.3296 32.0271 23.9544 32.1422 23.5318C32.2194 23.193 32.2639 22.8477 32.2748 22.5009C32.4059 20.721 32.6485 19.6894 33.4944 19.6857H33.4995C33.7865 19.6726 34.0561 19.8242 34.1945 20.0763C34.3738 20.3553 34.7446 20.4362 35.0236 20.2569C35.3027 20.0777 35.3836 19.7069 35.2043 19.4278C34.8488 18.8384 34.2084 18.4814 33.5199 18.4887C33.5126 18.4887 33.5068 18.4844 33.4988 18.4844C31.3684 18.4844 31.179 21.0394 31.077 22.412C31.0661 22.6721 31.0377 22.9308 30.9918 23.1872C30.9073 23.5646 30.5794 23.8386 30.1925 23.8546C30.1299 23.8488 29.9397 23.8291 29.9019 23.4072C29.6359 21.3753 29.1274 19.3827 28.3872 17.4716C27.8043 15.7792 27.2528 14.18 27.2164 12.8613C27.1442 12.0052 27.4306 11.1579 28.0076 10.5226C28.6305 9.92083 29.4654 9.58933 30.3317 9.60026C30.8701 9.60026 31.3983 9.75107 31.8551 10.0359C32.3454 10.3376 32.9072 10.5044 33.4835 10.5212C33.4886 10.5212 33.4937 10.5241 33.4988 10.5241C34.0117 10.5168 34.5144 10.382 34.9624 10.1321C35.1096 10.0644 35.2225 9.9405 35.2772 9.78823C35.3318 9.63596 35.3216 9.46766 35.2502 9.32268C35.1788 9.1777 35.0521 9.06768 34.8983 9.01668C34.7446 8.96641 34.577 8.98026 34.4335 9.05457C34.1508 9.21995 33.831 9.31248 33.5039 9.32268L33.498 9.32122C33.1119 9.30592 32.7381 9.18571 32.4154 8.9737C31.7859 8.59703 31.0654 8.39814 30.331 8.39886C29.1412 8.39012 27.9967 8.85276 27.1464 9.68478C26.7705 10.0746 26.482 10.5387 26.2984 11.0479C26.1148 10.5387 25.8255 10.0746 25.4503 9.68478C24.6001 8.85203 23.4555 8.39012 22.2658 8.39886C21.5321 8.39886 20.8116 8.59703 20.1814 8.9737C19.8652 9.19955 19.4863 9.32122 19.0987 9.32122C18.7111 9.32122 18.3316 9.19955 18.0161 8.9737C17.3866 8.59703 16.6661 8.39814 15.9317 8.39886C14.7419 8.39012 13.5974 8.85276 12.7471 9.68478C12.3719 10.0746 12.0827 10.5387 11.8984 11.0479C11.7148 10.5387 11.4255 10.0746 11.0496 9.68478C10.1993 8.85203 9.05478 8.39012 7.86503 8.39886C7.13137 8.39886 6.41082 8.59703 5.78135 8.9737C5.45859 9.18571 5.08411 9.3052 4.6987 9.32122L4.69215 9.32268C4.36502 9.31248 4.04518 9.22068 3.7625 9.05457C3.61897 8.9788 3.45141 8.96496 3.29695 9.01523C3.14322 9.0655 3.01572 9.17551 2.94433 9.32122C2.87293 9.46694 2.86346 9.63451 2.9181 9.7875C2.97274 9.93977 3.0864 10.0644 3.23429 10.1314L3.23575 10.1321ZM13.609 10.5219C14.2312 9.9201 15.0669 9.58861 15.9324 9.59953C16.4708 9.59953 16.999 9.75035 17.4558 10.0352C17.9454 10.3529 18.5159 10.5212 19.0995 10.5212C19.683 10.5212 20.2535 10.3521 20.7431 10.0352C21.1999 9.74962 21.7281 9.59881 22.2665 9.59953C23.1328 9.58788 23.9677 9.91937 24.5899 10.5219C25.1669 11.1579 25.454 12.0052 25.3819 12.8606C25.3447 14.1793 24.7939 15.7785 24.2111 17.4709C23.4701 19.3819 22.9616 21.3746 22.6956 23.4065C22.6578 23.8284 22.4676 23.8473 22.4049 23.8539C22.0195 23.8342 21.6931 23.5624 21.6057 23.1865C21.5598 22.93 21.5314 22.6714 21.5205 22.4113C21.4185 21.0387 21.229 18.4836 19.0987 18.4836C16.9684 18.4836 16.779 21.0387 16.677 22.4113C16.6668 22.6714 16.6376 22.93 16.5918 23.1865C16.5065 23.5639 16.1787 23.8371 15.7925 23.8539C15.7299 23.848 15.5397 23.8284 15.5018 23.4065C15.2359 21.3746 14.7274 19.3819 13.9864 17.4709C13.4036 15.7785 12.852 14.1793 12.8156 12.8606C12.7435 12.0045 13.0298 11.1572 13.6076 10.5212L13.609 10.5219ZM37.0993 0H1.09961C0.768839 0 0.5 0.268839 0.5 0.600335V29.4004C0.5 29.5592 0.563385 29.7122 0.675583 29.8244C0.788511 29.9373 0.94078 30 1.09961 30H34.6994C35.495 29.9993 36.2571 29.6824 36.8195 29.1206C37.382 28.5589 37.6982 27.7954 37.6989 27.0005V0.599607C37.6989 0.44078 37.6355 0.287782 37.5233 0.175583C37.4104 0.0626564 37.2581 0 37.0993 0ZM36.4997 26.9998C36.4997 27.477 36.3096 27.9345 35.9715 28.2719C35.6342 28.6092 35.1766 28.7993 34.6994 28.7993H1.69994V1.19994H36.4997V26.9998ZM4.09983 4.20016C4.09983 3.86866 4.36866 3.60055 4.69943 3.60055H12.4994C12.8309 3.60055 13.0998 3.86866 13.0998 4.20016C13.0998 4.53166 12.8309 4.79977 12.4994 4.79977H4.69943C4.36794 4.79977 4.09983 4.53093 4.09983 4.20016Z" fill="black"/>
</svg>
