<svg width="29" height="30" viewBox="0 0 29 30" fill="none" xmlns="http://www.w3.org/2000/svg">
<path d="M25.8839 2.49022C24.2476 0.880096 22.0395 -0.0152405 19.7441 0.000196351C18.33 -0.000474816 16.9427 0.380748 15.7272 1.10359C15.2292 1.43716 14.65 1.62912 14.0506 1.65865C13.4526 1.62912 12.8734 1.43784 12.3754 1.10427C11.1606 0.381419 9.77259 0.000196351 8.35845 0.000196351C6.06306 -0.0152405 3.85559 0.880096 2.21929 2.48955C0.664193 4.16076 -0.131811 6.39977 0.0178596 8.67704C0.110481 10.3919 0.421902 12.0872 0.946083 13.7222C1.04474 14.0564 1.24609 14.3518 1.52127 14.5659C1.79578 14.7806 2.13136 14.9035 2.4797 14.9182C2.74414 15.7317 3.02603 16.5606 3.31799 17.4096C4.46367 20.7399 5.6476 24.1837 5.96171 27.7066C6.0993 29.2523 7.07383 29.898 7.94031 29.9866C8.02421 29.9953 8.1081 30 8.192 30C8.86585 29.9624 9.51017 29.7134 10.0343 29.2886C10.5579 28.8637 10.9351 28.2845 11.1109 27.6328C11.2351 27.0623 11.3069 26.4817 11.3257 25.8978C11.5337 23.0856 11.915 20.3399 14.052 20.3399C16.1889 20.3399 16.5708 23.0856 16.7782 25.8972C16.797 26.4817 16.8688 27.0636 16.9937 27.6348C17.1756 28.3288 17.5897 28.9396 18.1655 29.3671C18.7414 29.7946 19.4461 30.0128 20.1629 29.9866C21.0294 29.898 22.0046 29.2523 22.1415 27.7073C22.4556 24.1837 23.6396 20.7399 24.7852 17.4096C25.0772 16.5606 25.3598 15.7317 25.6235 14.9182C25.9712 14.9035 26.3054 14.7813 26.5799 14.5672C26.8545 14.3538 27.0558 14.0591 27.1551 13.7256C27.68 12.0892 27.9921 10.3919 28.0847 8.67637C28.2344 6.3991 27.4384 4.16076 25.8839 2.48955V2.49022ZM21.0395 27.61C20.9717 28.3758 20.62 28.8295 20.0495 28.8879C19.5891 28.8879 19.1414 28.7335 18.7796 28.4489C18.4179 28.1644 18.1615 27.7664 18.0521 27.3194C17.9561 26.8234 17.8984 26.3213 17.8796 25.8166C17.6977 23.3548 17.3937 19.2352 14.0506 19.2352C10.7075 19.2352 10.4035 23.3554 10.2223 25.8173C10.2035 26.3207 10.1458 26.822 10.0505 27.3173C9.93971 27.7643 9.68333 28.1617 9.32157 28.4462C8.95981 28.7308 8.51282 28.8865 8.05239 28.8885C7.4819 28.8302 7.13021 28.3758 7.06242 27.61C6.73624 23.9521 5.52948 20.4439 4.36299 17.0512C4.11399 16.3283 3.87505 15.6216 3.64484 14.9243H8.69806C9.0927 14.9256 9.4746 14.786 9.77461 14.5296C10.0753 14.2739 10.274 13.9188 10.335 13.5289L10.5693 12.0725C10.6116 11.804 10.8431 11.6067 11.1149 11.6074H17.0098C17.2836 11.606 17.5165 11.806 17.5561 12.0772L17.7742 13.5148C17.832 13.9081 18.0293 14.2665 18.3306 14.5256C18.632 14.7847 19.0166 14.9256 19.4132 14.9243H24.4577C24.2275 15.6216 23.9879 16.3283 23.7389 17.0512C22.5724 20.4439 21.3657 23.9528 21.0401 27.61H21.0395ZM26.9793 8.64616C26.888 10.2677 26.5907 11.8704 26.094 13.4161C26.0236 13.6537 25.8054 13.8175 25.5571 13.8188H19.4126C19.1387 13.8202 18.9058 13.6202 18.8662 13.349L18.6481 11.9121C18.5904 11.5188 18.3931 11.1597 18.0917 10.9013C17.7903 10.6422 17.4058 10.5006 17.0084 10.5026H11.1136C10.7189 10.5013 10.337 10.6409 10.0364 10.8973C9.73635 11.153 9.53769 11.508 9.47661 11.898L9.24237 13.3544C9.20009 13.6229 8.96854 13.8202 8.69671 13.8195H2.54077C2.29177 13.8188 2.07364 13.6531 2.00653 13.4128C1.51053 11.8684 1.21321 10.2664 1.1226 8.64684C0.985011 6.66757 1.66826 4.71917 3.0126 3.26005C4.4395 1.86268 6.36173 1.08816 8.35845 1.10628C9.59205 1.10762 10.8022 1.44455 11.8586 2.08148C12.515 2.50163 13.2727 2.73721 14.0513 2.76473C14.8305 2.73721 15.5883 2.50096 16.2453 2.08081C17.3017 1.44455 18.5112 1.10762 19.7448 1.10628C21.7415 1.08816 23.6644 1.86335 25.0913 3.26072C26.435 4.71984 27.1182 6.66824 26.9806 8.64684L26.9793 8.64616ZM18.2662 3.352C18.2937 3.49563 18.2629 3.64463 18.1803 3.76611C18.0977 3.88692 17.9709 3.97082 17.8266 3.99834C17.3192 4.12988 16.8574 4.39768 16.4923 4.77353C15.8842 5.40846 15.0513 5.77894 14.1721 5.80579C14.1325 5.80579 14.0922 5.80444 14.0513 5.8031C14.0103 5.80444 13.9701 5.80579 13.9305 5.80579C13.0519 5.77894 12.219 5.40846 11.6102 4.77353C11.2445 4.39768 10.7834 4.12988 10.276 3.99834C9.97596 3.94129 9.77931 3.65201 9.83635 3.352C9.8934 3.05199 10.1827 2.85534 10.4827 2.91239C11.1794 3.07548 11.8176 3.42784 12.3264 3.93122C12.7593 4.41714 13.3774 4.69568 14.0285 4.69836C14.0365 4.69836 14.0432 4.70172 14.0513 4.70172C14.0593 4.70172 14.066 4.69836 14.0741 4.69836C14.7258 4.70172 15.3466 4.42184 15.7755 3.93122C16.2843 3.42784 16.9225 3.07548 17.6192 2.91239C17.9185 2.85534 18.2078 3.05199 18.2655 3.352H18.2662Z" fill="black"/>
</svg>
