<svg width="28" height="31" viewBox="0 0 28 31" fill="none" xmlns="http://www.w3.org/2000/svg">
<path d="M27.2743 15.384H24.4716C25.4856 12.4291 26.4343 9.6379 26.5053 7.18578C26.6467 5.29792 25.9948 3.43692 24.7064 2.05125C23.3444 0.721239 21.5115 -0.0157385 19.6083 0.000254973C18.4318 -0.00166424 17.2777 0.318844 16.2714 0.927874C15.6458 1.32835 14.9248 1.55418 14.1821 1.58041C13.44 1.55418 12.7183 1.32835 12.0927 0.927874C11.0864 0.319484 9.93165 -0.00166424 8.75581 0.000254973C6.85259 -0.0157385 5.02038 0.721239 3.65902 2.05125C2.36995 3.43756 1.71806 5.29856 1.86008 7.18578C1.93109 9.63854 2.87982 12.4297 3.89381 15.384H1.0265C0.735423 15.384 0.5 15.6201 0.5 15.9112V20.99C0.503199 23.6437 1.55877 26.1885 3.43511 28.0649C5.31146 29.9412 7.85634 30.9974 10.51 31H17.7908C20.4444 30.9968 22.9887 29.9412 24.8657 28.0649C26.742 26.1885 27.7976 23.6437 27.8008 20.99V15.9112C27.8008 15.7717 27.7451 15.6374 27.6466 15.5388C27.5481 15.4397 27.4137 15.3847 27.2743 15.3847V15.384ZM8.04698 29.5932C6.17831 29.0571 4.53418 27.928 3.36346 26.376C2.19274 24.824 1.55749 22.9336 1.55429 20.9894V16.4377H4.25398C5.28204 19.4278 6.20774 22.3661 6.47131 25.3562C6.59158 26.7099 7.38549 27.333 8.1551 27.4923C8.10967 28.379 8.07193 29.1102 8.04698 29.5932ZM17.7915 29.9457H10.5106C10.0346 29.9425 9.55996 29.9009 9.09039 29.8222C9.11598 29.3296 9.15948 28.4948 9.21258 27.4539C10.2611 27.1539 11.0806 26.3344 11.3794 25.2859C11.4977 24.7421 11.5662 24.1887 11.5841 23.6321C11.7818 20.9516 12.1451 18.3345 14.1827 18.3345C16.2203 18.3345 16.5836 20.9516 16.7813 23.6321C16.7992 24.1894 16.8683 24.7434 16.9867 25.2878C17.2771 26.3018 18.0512 27.1059 19.053 27.4347C19.1189 28.4865 19.1733 29.3264 19.2059 29.8229C18.7383 29.9016 18.2649 29.9425 17.7908 29.9457H17.7915ZM9.2708 26.3165C9.3079 25.5942 9.34756 24.8125 9.38787 24.0019C9.42753 23.936 9.45184 23.8618 9.45952 23.7857L9.48255 23.4761C9.74676 19.891 10.5119 16.2259 14.1827 16.2259C17.343 16.2259 18.348 18.9442 18.7357 21.988C18.8157 23.4863 18.902 24.9641 18.9807 26.2512C18.5035 25.9704 18.151 25.5168 17.9968 24.9846C17.9053 24.5124 17.8503 24.0333 17.8324 23.5528C17.659 21.2063 17.3699 17.2789 14.1827 17.2789C10.9955 17.2789 10.7064 21.2063 10.5336 23.5528C10.5157 24.0333 10.4607 24.5111 10.3699 24.9833C10.2061 25.5616 9.80754 26.0446 9.2708 26.3152V26.3165ZM19.504 13.7808C19.5488 13.4405 19.4983 13.0944 19.3582 12.7816C19.2187 12.4681 18.9948 12.2 18.7114 12.0056C18.8912 11.6403 18.9718 11.2334 18.9449 10.8272L19.6429 10.49C19.9026 10.3621 20.0107 10.0486 19.8847 9.78823C19.7586 9.52786 19.4458 9.41719 19.1842 9.5413L18.8074 9.72362C18.7882 9.59056 18.7683 9.45045 18.7498 9.29755L19.3499 8.32899C19.5028 8.08142 19.4266 7.75643 19.179 7.60353C18.9315 7.45063 18.6065 7.52676 18.4536 7.77434L18.0486 8.42879L17.3481 7.96114C17.1063 7.79929 16.7794 7.86454 16.6175 8.10636C16.4557 8.34819 16.5209 8.67509 16.7628 8.83694L17.7121 9.47092C17.7428 9.71914 17.7755 9.94881 17.8062 10.1484C17.9226 10.9091 17.9527 11.1918 17.7409 11.5891C17.6059 11.7944 17.5637 12.0471 17.6251 12.2858C17.6865 12.5237 17.8465 12.7246 18.064 12.8385C18.2783 12.9895 18.4625 13.1206 18.4497 13.7597C18.4453 13.9862 18.444 14.2459 18.4459 14.5325L17.9098 14.0924C17.8023 14.0022 17.6629 13.9587 17.5228 13.9715C17.3827 13.9843 17.2541 14.0527 17.1645 14.1615C17.0756 14.2702 17.0334 14.4097 17.0474 14.5498C17.0615 14.6899 17.1312 14.8178 17.2406 14.9061L18.4587 15.9067C18.4625 15.9099 18.467 15.9105 18.4709 15.9137C18.4856 16.4549 18.5054 17.0435 18.5304 17.6653C18.1113 16.8848 17.4812 16.2381 16.7129 15.7973C15.9445 15.3565 15.0681 15.1403 14.1827 15.1723C13.2442 15.1416 12.3172 15.3879 11.5169 15.8805C10.7172 16.373 10.0801 17.0896 9.68471 17.9417C9.76787 16.1664 9.83057 14.72 9.8472 14.0553L10.7326 13.4834C10.9731 13.3241 11.0403 13.001 10.8842 12.7585C10.7275 12.5161 10.4057 12.4451 10.1613 12.5986L9.72373 12.8814C9.61945 12.5768 9.45184 12.2979 9.23241 12.0631C9.06032 11.8623 9.05329 11.8463 9.07568 11.7132C9.10574 11.5309 9.27655 11.3601 9.55292 11.0978C10.1351 10.6352 10.5176 9.96672 10.6213 9.23038C10.6328 9.12163 10.6104 9.01287 10.5573 8.91755L10.3679 8.57849L11.0211 8.14219C11.2629 7.98098 11.3282 7.65343 11.1663 7.41161C11.0045 7.16979 10.6776 7.10454 10.4351 7.26639L9.8504 7.65727L9.49406 7.02073C9.35204 6.76675 9.0309 6.67655 8.77692 6.81857C8.52294 6.9606 8.43274 7.28174 8.57476 7.53572L9.54908 9.2758C9.42945 9.69867 9.17548 10.0704 8.82618 10.3358C8.43466 10.6378 8.15701 11.062 8.0361 11.5418C7.95742 11.9857 8.10583 12.4393 8.4321 12.7502C8.69887 13.0202 8.83322 13.3938 8.79995 13.7719C8.79995 13.8921 8.79419 14.1167 8.78396 14.4161L8.60931 14.1839C8.52678 14.0694 8.40075 13.9926 8.26065 13.9715C8.12055 13.9497 7.97789 13.9862 7.86465 14.0713C7.75142 14.1564 7.67721 14.2837 7.6593 14.4238C7.64075 14.5645 7.67977 14.7059 7.76741 14.8178L8.71678 16.0781C8.67392 17.0556 8.61763 18.2526 8.55557 19.5404C8.13526 18.0351 7.64075 16.5496 7.1232 15.0533L6.9204 14.4609C5.97359 11.7023 5.07924 9.09668 5.02166 7.09622C4.92058 6.0656 5.24813 5.03818 5.92689 4.25579C6.69458 3.5412 7.70856 3.14968 8.75773 3.16184C9.41922 3.16312 10.0666 3.35824 10.6187 3.72353C11.6973 4.37094 12.9269 4.72215 14.184 4.74263C15.4417 4.72215 16.6719 4.3703 17.7505 3.72289C18.302 3.35824 18.9487 3.16312 19.6102 3.16184C20.6594 3.14904 21.6734 3.5412 22.4417 4.25579C23.1211 5.03818 23.4487 6.06624 23.3469 7.0975C23.2894 9.09604 22.395 11.701 21.4469 14.4647L21.2435 15.0577C20.6754 16.7012 20.1342 18.3306 19.6908 19.9882C19.5661 17.4305 19.4791 15.0546 19.5053 13.7828L19.504 13.7808ZM19.9026 23.9706C19.9269 23.9239 19.9435 23.8733 19.9531 23.8215C20.4476 20.9484 21.2134 18.1278 22.2389 15.3987L22.4443 14.8012C23.4173 11.9646 24.3366 9.2854 24.3993 7.12629C24.5145 5.80971 24.0794 4.50337 23.196 3.52009C22.2274 2.60462 20.9422 2.09795 19.6089 2.10691C18.776 2.10755 17.9603 2.34489 17.2566 2.79015C16.3309 3.35888 15.269 3.66851 14.1827 3.68706C13.0964 3.66851 12.0351 3.35888 11.1088 2.79015C10.4051 2.34425 9.58939 2.10755 8.75645 2.10691C7.42324 2.09795 6.13864 2.60399 5.17008 3.51945C4.28724 4.50273 3.85158 5.80779 3.96674 7.12373C4.02879 9.28412 4.94809 11.964 5.92305 14.8044L6.12457 15.3936C7.10593 18.0229 7.85314 20.7335 8.35853 23.494C8.30671 24.5239 8.25681 25.5187 8.21139 26.4156C7.99708 26.3107 7.81795 26.1457 7.69576 25.941C7.57357 25.7362 7.5128 25.5002 7.52239 25.2616C7.23771 22.0341 6.22885 18.9147 5.13106 15.7384L4.92762 15.146C3.92643 12.2295 2.98154 9.4754 2.91437 7.1538C2.78578 5.55189 3.32956 3.96854 4.41583 2.78375C5.57759 1.65653 7.13855 1.03407 8.75709 1.05198C9.76212 1.05006 10.7473 1.32899 11.602 1.85741C12.378 2.34169 13.2692 2.6091 14.1833 2.63277C15.0975 2.60974 15.9893 2.34169 16.7653 1.85741C17.62 1.32899 18.6052 1.05006 19.6102 1.05198C21.2294 1.03343 22.7904 1.65653 23.9521 2.78375C25.0378 3.96854 25.5822 5.55125 25.4536 7.1538C25.3864 9.47604 24.4415 12.2301 23.4403 15.1467L23.2375 15.7378C22.1391 18.9154 21.1296 22.0347 20.8456 25.2622C20.7867 25.9218 20.5059 26.3357 20.0504 26.4508C20.0037 25.6857 19.9531 24.847 19.9032 23.9706H19.9026ZM26.7478 20.9888C26.7446 22.9342 26.1087 24.8259 24.936 26.3779C23.7634 27.9305 22.118 29.059 20.2474 29.5945C20.2161 29.1166 20.1694 28.3924 20.1143 27.5096C20.9115 27.3848 21.7681 26.7662 21.8935 25.3556C22.157 22.3661 23.0827 19.4284 24.1108 16.437H26.7478V20.9888Z" fill="black"/>
</svg>
