<svg width="36" height="30" viewBox="0 0 36 30" fill="none" xmlns="http://www.w3.org/2000/svg">
<mask id="path-1-inside-1_2172_584" fill="white">
<path d="M18.9634 15.0317L19.0825 16.2212C19.1065 16.4578 19.0353 16.6936 18.8858 16.8775C18.7364 17.0613 18.5181 17.178 18.2823 17.2012C18.2527 17.2036 18.2208 17.2052 18.1912 17.2052C17.7323 17.2044 17.3478 16.8559 17.3031 16.3994L17.184 15.2099C17.16 14.9733 17.2311 14.7375 17.3814 14.5536C17.5317 14.3698 17.7483 14.2531 17.9849 14.2299C18.4742 14.1883 18.9082 14.5441 18.9642 15.0317H18.9634ZM8.57617 16.8087C8.64092 16.8087 8.70567 16.8015 8.76882 16.7879L10.3756 16.433C10.6106 16.3842 10.8152 16.2444 10.9463 16.0429C11.0766 15.8423 11.1214 15.5976 11.0695 15.3634C11.0183 15.1292 10.8752 14.9262 10.6722 14.7983C10.4691 14.6704 10.2237 14.6296 9.99108 14.6839L8.38431 15.0389C7.93826 15.1372 7.63769 15.5553 7.68725 16.0093C7.73681 16.4634 8.11972 16.8079 8.57697 16.8079L8.57617 16.8087ZM22.5622 20.9519C22.5662 21.4436 22.9659 21.8401 23.4575 21.8401H23.4647C23.9596 21.8361 24.3568 21.4316 24.3528 20.9367C24.468 18.7688 24.0795 16.6041 23.2169 14.6128C22.3544 12.6207 21.0418 10.8565 19.3815 9.45756C19.196 9.30728 18.9586 9.23693 18.7212 9.26251C18.4838 9.28809 18.2671 9.4072 18.1176 9.59426C17.969 9.78131 17.901 10.0195 17.9282 10.2562C17.9562 10.4928 18.0777 10.7094 18.2655 10.8565C21.1969 13.3658 22.7861 17.1005 22.5622 20.9527V20.9519ZM35.7049 7.04262C35.4531 6.39432 34.9487 5.87471 34.3076 5.60452C32.5921 4.99459 30.7088 5.05854 29.0388 5.78358C28.9861 5.80117 28.9357 5.81956 28.8846 5.83794C28.883 5.79238 28.8814 5.74601 28.8814 5.69885C28.7487 2.3814 27.1139 -0.13507 25.1762 0.00562197C24.4744 0.0479894 23.8197 0.37334 23.3608 0.90653C22.2529 2.34622 21.7301 4.15124 21.8971 5.96025L21.9027 6.09215C21.8628 6.07936 21.8204 6.06577 21.7788 6.05378C18.9322 5.25919 16.3926 5.78758 15.4845 7.26165C10.8944 5.73162 5.99815 5.35751 1.22901 6.17289C0.950822 6.22565 0.714204 6.40711 0.590299 6.66131C0.466394 6.91551 0.470391 7.21369 0.599892 7.46549C1.00758 8.40797 1.31454 9.39121 1.51439 10.3976C3.24346 17.8511 6.47698 22.8353 11.1254 25.2087C13.1558 26.2319 15.4005 26.7563 17.674 26.7387C19.4318 26.7363 21.1793 26.4589 22.8516 25.9185C23.6702 27.0185 24.3664 28.204 24.9276 29.4558C25.1219 29.9107 25.6479 30.1217 26.1027 29.9282C26.3209 29.8347 26.4936 29.6588 26.5823 29.4382C26.6711 29.2176 26.6679 28.9714 26.5751 28.7531C24.3265 23.486 18.3631 18.059 13.7978 14.4537L13.2478 10.8013C13.1742 10.3129 12.7186 9.97636 12.2302 10.0499C11.7417 10.1235 11.4052 10.5791 11.4779 11.0675L11.7505 12.8789C9.7033 11.3537 8.23483 10.3896 8.05017 10.2697C7.85112 10.1402 7.60891 10.0939 7.37629 10.1434C7.14367 10.1922 6.94062 10.3321 6.81112 10.5311C6.68162 10.7302 6.63685 10.9732 6.68562 11.205C6.73518 11.4376 6.87507 11.6407 7.07412 11.7694C10.4427 14.0388 13.6515 16.5369 16.6779 19.246L13.745 19.621C13.2766 19.6809 12.9352 20.0942 12.9648 20.565C12.9944 21.0359 13.3845 21.4036 13.8569 21.4044C13.8953 21.4044 13.9337 21.402 13.9728 21.3972L18.3694 20.8352C19.535 21.9616 20.6389 23.1502 21.6757 24.3957C18.443 25.3326 14.9792 25.0544 11.9384 23.6131C7.78158 21.4907 4.86142 16.9078 3.25785 9.99235C3.03402 9.02989 2.81899 8.30245 2.64072 7.77486C7.03335 7.15213 11.5123 7.66534 15.6507 9.26491C16.1 9.47115 16.6316 9.2745 16.8378 8.82605C16.8914 8.70614 16.917 8.57584 16.9138 8.44474C16.9242 8.40557 16.9321 8.3656 16.9377 8.32563C17.1264 7.66054 18.917 7.11456 21.2728 7.77006C21.7309 7.90675 22.1793 8.07303 22.6158 8.26648C22.9259 8.40957 23.2913 8.3624 23.5559 8.14657C23.8205 7.93074 23.9396 7.583 23.8628 7.24966C23.7605 6.8052 23.7021 6.35115 23.6878 5.8955C23.5551 4.56052 23.9044 3.22155 24.6742 2.1216C24.8157 1.94493 25.0187 1.82742 25.2426 1.79305H25.2602C25.9492 1.79305 26.9948 3.32387 27.0907 5.762C27.1115 6.22884 27.0907 6.69648 27.0292 7.16013C26.978 7.50067 27.1275 7.8396 27.4121 8.03306C27.6975 8.22571 28.0676 8.2377 28.365 8.06423C28.7695 7.82442 29.1963 7.62457 29.64 7.46869C30.8702 6.91232 32.262 6.82598 33.5514 7.22728C33.7528 7.30322 33.9191 7.4527 34.0166 7.64455C34.2548 8.31284 33.1229 9.81809 30.8007 10.663C30.3634 10.8261 29.9126 10.95 29.4529 11.0308C29.114 11.0939 28.8414 11.3457 28.7519 11.6783C28.6623 12.0108 28.7719 12.3665 29.0333 12.5904C29.3826 12.9005 29.7015 13.2427 29.9869 13.6128C30.8886 14.6072 31.3938 15.899 31.405 17.242C31.3922 17.469 31.2947 17.6824 31.1308 17.8399C30.9478 17.9542 30.7288 17.9958 30.5169 17.9558C29.1939 17.6193 28.0404 16.8063 27.2786 15.6728C26.994 15.3291 26.751 14.9517 26.556 14.5497C26.3417 14.1044 25.8077 13.9157 25.3617 14.13C24.9156 14.3442 24.7278 14.879 24.942 15.3243C25.1946 15.8519 25.5112 16.3467 25.8845 16.7967C26.9341 18.3036 28.5176 19.3532 30.3139 19.7345C30.4378 19.7489 30.5617 19.7561 30.6864 19.7561C31.2484 19.7704 31.7975 19.589 32.2412 19.2428C32.784 18.7992 33.1229 18.1549 33.1821 17.457C33.226 15.6392 32.5865 13.871 31.3914 12.5008C31.3619 12.4625 31.3299 12.4241 31.3003 12.3873L31.4258 12.3401C34.5354 11.209 36.3748 8.93317 35.7049 7.04182V7.04262ZM25.5839 13.1891C24.7246 13.1891 23.9292 12.7326 23.4951 11.9916C23.061 11.2498 23.0522 10.3337 23.4727 9.58387C23.8932 8.83404 24.6798 8.3632 25.5391 8.34722C26.3985 8.33123 27.2019 8.77169 27.6503 9.50473C28.0988 10.2378 28.1252 11.1539 27.7191 11.9117C27.3138 12.6695 26.5368 13.1547 25.6774 13.1883C25.6463 13.1899 25.6143 13.1899 25.5831 13.1899L25.5839 13.1891ZM25.157 11.2306C25.2801 11.3441 25.4432 11.4041 25.6103 11.3993C25.958 11.3841 26.2282 11.0915 26.2154 10.7438C26.1786 10.408 25.9005 10.1506 25.5631 10.1386C25.2146 10.153 24.9428 10.4456 24.9564 10.7941C24.962 10.9612 25.0339 11.1187 25.1578 11.2314L25.157 11.2306Z"/>
</mask>
<path d="M18.9634 15.0317L19.0825 16.2212C19.1065 16.4578 19.0353 16.6936 18.8858 16.8775C18.7364 17.0613 18.5181 17.178 18.2823 17.2012C18.2527 17.2036 18.2208 17.2052 18.1912 17.2052C17.7323 17.2044 17.3478 16.8559 17.3031 16.3994L17.184 15.2099C17.16 14.9733 17.2311 14.7375 17.3814 14.5536C17.5317 14.3698 17.7483 14.2531 17.9849 14.2299C18.4742 14.1883 18.9082 14.5441 18.9642 15.0317H18.9634ZM8.57617 16.8087C8.64092 16.8087 8.70567 16.8015 8.76882 16.7879L10.3756 16.433C10.6106 16.3842 10.8152 16.2444 10.9463 16.0429C11.0766 15.8423 11.1214 15.5976 11.0695 15.3634C11.0183 15.1292 10.8752 14.9262 10.6722 14.7983C10.4691 14.6704 10.2237 14.6296 9.99108 14.6839L8.38431 15.0389C7.93826 15.1372 7.63769 15.5553 7.68725 16.0093C7.73681 16.4634 8.11972 16.8079 8.57697 16.8079L8.57617 16.8087ZM22.5622 20.9519C22.5662 21.4436 22.9659 21.8401 23.4575 21.8401H23.4647C23.9596 21.8361 24.3568 21.4316 24.3528 20.9367C24.468 18.7688 24.0795 16.6041 23.2169 14.6128C22.3544 12.6207 21.0418 10.8565 19.3815 9.45756C19.196 9.30728 18.9586 9.23693 18.7212 9.26251C18.4838 9.28809 18.2671 9.4072 18.1176 9.59426C17.969 9.78131 17.901 10.0195 17.9282 10.2562C17.9562 10.4928 18.0777 10.7094 18.2655 10.8565C21.1969 13.3658 22.7861 17.1005 22.5622 20.9527V20.9519ZM35.7049 7.04262C35.4531 6.39432 34.9487 5.87471 34.3076 5.60452C32.5921 4.99459 30.7088 5.05854 29.0388 5.78358C28.9861 5.80117 28.9357 5.81956 28.8846 5.83794C28.883 5.79238 28.8814 5.74601 28.8814 5.69885C28.7487 2.3814 27.1139 -0.13507 25.1762 0.00562197C24.4744 0.0479894 23.8197 0.37334 23.3608 0.90653C22.2529 2.34622 21.7301 4.15124 21.8971 5.96025L21.9027 6.09215C21.8628 6.07936 21.8204 6.06577 21.7788 6.05378C18.9322 5.25919 16.3926 5.78758 15.4845 7.26165C10.8944 5.73162 5.99815 5.35751 1.22901 6.17289C0.950822 6.22565 0.714204 6.40711 0.590299 6.66131C0.466394 6.91551 0.470391 7.21369 0.599892 7.46549C1.00758 8.40797 1.31454 9.39121 1.51439 10.3976C3.24346 17.8511 6.47698 22.8353 11.1254 25.2087C13.1558 26.2319 15.4005 26.7563 17.674 26.7387C19.4318 26.7363 21.1793 26.4589 22.8516 25.9185C23.6702 27.0185 24.3664 28.204 24.9276 29.4558C25.1219 29.9107 25.6479 30.1217 26.1027 29.9282C26.3209 29.8347 26.4936 29.6588 26.5823 29.4382C26.6711 29.2176 26.6679 28.9714 26.5751 28.7531C24.3265 23.486 18.3631 18.059 13.7978 14.4537L13.2478 10.8013C13.1742 10.3129 12.7186 9.97636 12.2302 10.0499C11.7417 10.1235 11.4052 10.5791 11.4779 11.0675L11.7505 12.8789C9.7033 11.3537 8.23483 10.3896 8.05017 10.2697C7.85112 10.1402 7.60891 10.0939 7.37629 10.1434C7.14367 10.1922 6.94062 10.3321 6.81112 10.5311C6.68162 10.7302 6.63685 10.9732 6.68562 11.205C6.73518 11.4376 6.87507 11.6407 7.07412 11.7694C10.4427 14.0388 13.6515 16.5369 16.6779 19.246L13.745 19.621C13.2766 19.6809 12.9352 20.0942 12.9648 20.565C12.9944 21.0359 13.3845 21.4036 13.8569 21.4044C13.8953 21.4044 13.9337 21.402 13.9728 21.3972L18.3694 20.8352C19.535 21.9616 20.6389 23.1502 21.6757 24.3957C18.443 25.3326 14.9792 25.0544 11.9384 23.6131C7.78158 21.4907 4.86142 16.9078 3.25785 9.99235C3.03402 9.02989 2.81899 8.30245 2.64072 7.77486C7.03335 7.15213 11.5123 7.66534 15.6507 9.26491C16.1 9.47115 16.6316 9.2745 16.8378 8.82605C16.8914 8.70614 16.917 8.57584 16.9138 8.44474C16.9242 8.40557 16.9321 8.3656 16.9377 8.32563C17.1264 7.66054 18.917 7.11456 21.2728 7.77006C21.7309 7.90675 22.1793 8.07303 22.6158 8.26648C22.9259 8.40957 23.2913 8.3624 23.5559 8.14657C23.8205 7.93074 23.9396 7.583 23.8628 7.24966C23.7605 6.8052 23.7021 6.35115 23.6878 5.8955C23.5551 4.56052 23.9044 3.22155 24.6742 2.1216C24.8157 1.94493 25.0187 1.82742 25.2426 1.79305H25.2602C25.9492 1.79305 26.9948 3.32387 27.0907 5.762C27.1115 6.22884 27.0907 6.69648 27.0292 7.16013C26.978 7.50067 27.1275 7.8396 27.4121 8.03306C27.6975 8.22571 28.0676 8.2377 28.365 8.06423C28.7695 7.82442 29.1963 7.62457 29.64 7.46869C30.8702 6.91232 32.262 6.82598 33.5514 7.22728C33.7528 7.30322 33.9191 7.4527 34.0166 7.64455C34.2548 8.31284 33.1229 9.81809 30.8007 10.663C30.3634 10.8261 29.9126 10.95 29.4529 11.0308C29.114 11.0939 28.8414 11.3457 28.7519 11.6783C28.6623 12.0108 28.7719 12.3665 29.0333 12.5904C29.3826 12.9005 29.7015 13.2427 29.9869 13.6128C30.8886 14.6072 31.3938 15.899 31.405 17.242C31.3922 17.469 31.2947 17.6824 31.1308 17.8399C30.9478 17.9542 30.7288 17.9958 30.5169 17.9558C29.1939 17.6193 28.0404 16.8063 27.2786 15.6728C26.994 15.3291 26.751 14.9517 26.556 14.5497C26.3417 14.1044 25.8077 13.9157 25.3617 14.13C24.9156 14.3442 24.7278 14.879 24.942 15.3243C25.1946 15.8519 25.5112 16.3467 25.8845 16.7967C26.9341 18.3036 28.5176 19.3532 30.3139 19.7345C30.4378 19.7489 30.5617 19.7561 30.6864 19.7561C31.2484 19.7704 31.7975 19.589 32.2412 19.2428C32.784 18.7992 33.1229 18.1549 33.1821 17.457C33.226 15.6392 32.5865 13.871 31.3914 12.5008C31.3619 12.4625 31.3299 12.4241 31.3003 12.3873L31.4258 12.3401C34.5354 11.209 36.3748 8.93317 35.7049 7.04182V7.04262ZM25.5839 13.1891C24.7246 13.1891 23.9292 12.7326 23.4951 11.9916C23.061 11.2498 23.0522 10.3337 23.4727 9.58387C23.8932 8.83404 24.6798 8.3632 25.5391 8.34722C26.3985 8.33123 27.2019 8.77169 27.6503 9.50473C28.0988 10.2378 28.1252 11.1539 27.7191 11.9117C27.3138 12.6695 26.5368 13.1547 25.6774 13.1883C25.6463 13.1899 25.6143 13.1899 25.5831 13.1899L25.5839 13.1891ZM25.157 11.2306C25.2801 11.3441 25.4432 11.4041 25.6103 11.3993C25.958 11.3841 26.2282 11.0915 26.2154 10.7438C26.1786 10.408 25.9005 10.1506 25.5631 10.1386C25.2146 10.153 24.9428 10.4456 24.9564 10.7941C24.962 10.9612 25.0339 11.1187 25.1578 11.2314L25.157 11.2306Z" fill="black" stroke="#F7F7F8" stroke-width="0.6" mask="url(#path-1-inside-1_2172_584)"/>
</svg>
