<svg width="23" height="30" viewBox="0 0 23 30" fill="none" xmlns="http://www.w3.org/2000/svg">
<path d="M14.4791 3.53058C14.4803 2.65945 14.1465 1.82232 13.5468 1.19045C12.9471 0.558589 12.1279 0.182066 11.2586 0.137551C10.3893 0.0930361 9.53548 0.384856 8.87517 0.951804C8.21487 1.51875 7.79754 2.31817 7.70974 3.18497C7.62195 4.05178 7.87111 4.91796 8.40405 5.60609C8.93762 6.2936 9.71539 6.7505 10.576 6.88095V11.7306C10.0332 11.8475 9.54661 12.1467 9.19729 12.5782C8.84797 13.0098 8.65692 13.5483 8.65631 14.1035V29.0067C8.65631 29.2695 8.75956 29.5211 8.94503 29.7079C9.13051 29.894 9.38153 29.9991 9.64429 29.9997H12.526C12.7894 29.9997 13.0416 29.8946 13.2277 29.7085C13.4138 29.5224 13.5183 29.2701 13.5189 29.0067V14.1041C13.5165 13.5489 13.3248 13.0104 12.9749 12.5789C12.6249 12.1473 12.1384 11.8481 11.5949 11.7312V6.88219C12.3968 6.75977 13.1282 6.35481 13.6574 5.74025C14.1861 5.1257 14.4779 4.34174 14.4797 3.5312L14.4791 3.53058ZM9.67459 23.5592H12.5007V24.7815H9.67459V23.5592ZM12.526 28.982L9.67459 29.0074V25.7998H12.5205L12.526 28.982ZM12.0877 13.1124C12.3535 13.374 12.5025 13.7313 12.5007 14.1041L12.5149 22.5409H9.67459V14.1041C9.67459 13.7301 9.82359 13.3715 10.0882 13.1075C10.3528 12.8435 10.7114 12.6945 11.0848 12.6945C11.462 12.6926 11.8237 12.8435 12.0871 13.113L12.0877 13.1124ZM11.0861 5.90595C10.4561 5.90595 9.85203 5.65555 9.40688 5.2104C8.96173 4.76525 8.71133 4.16059 8.71133 3.5312C8.71133 2.90181 8.96173 2.29715 9.40688 1.852C9.85265 1.40685 10.4567 1.15645 11.0861 1.15645C11.7155 1.15645 12.3201 1.40685 12.7653 1.852C13.2104 2.29715 13.4608 2.90181 13.4608 3.5312C13.4602 4.16059 13.2098 4.76464 12.7647 5.20978C12.3195 5.65493 11.7155 5.90533 11.0855 5.90657L11.0861 5.90595ZM20.4447 6.83149C21.2373 5.83238 22.2284 4.47158 22.4485 3.66474C22.7607 2.70025 22.5505 1.6424 21.8933 0.870812C21.3653 0.306955 20.2957 -0.277304 18.1961 0.147443L17.3967 0.30881L17.3837 0.311283L17.3621 0.315611L17.2533 0.337868L17.2545 0.344051C17.1197 0.363836 16.9992 0.439882 16.9225 0.553024C16.8458 0.666166 16.8205 0.805894 16.852 0.938821C16.9194 1.27577 17.0078 1.3716 17.4517 1.31843L17.4554 1.33575L17.5853 1.30916C17.6112 1.3036 17.6366 1.29618 17.6613 1.2869C17.8536 1.25475 18.0941 1.20591 18.3983 1.1447C19.6942 0.88194 20.6475 1.02785 21.1502 1.56574C21.5632 2.08013 21.6831 2.77135 21.4667 3.39518C21.0006 4.41346 20.3879 5.35817 19.6472 6.19777C19.3776 6.53967 19.2305 6.96194 19.2298 7.3972V11.73C18.6864 11.8462 18.1998 12.1455 17.8499 12.577C17.4999 13.0086 17.3089 13.5471 17.3077 14.1029V29.0061C17.3077 29.2689 17.4109 29.5205 17.5964 29.7072C17.7819 29.8933 18.0329 29.9984 18.2957 29.9991H21.1823C21.4451 29.9978 21.6967 29.8933 21.8816 29.7072C22.0671 29.5211 22.1709 29.2689 22.1703 29.0061V14.1041C22.1678 13.5489 21.9762 13.011 21.6269 12.5801C21.2775 12.1486 20.791 11.8493 20.2487 11.7312V7.39844C20.2487 7.19256 20.318 6.99286 20.4454 6.83087L20.4447 6.83149ZM18.3253 23.5592H21.1514V24.7815H18.3253V23.5592ZM21.1817 28.982L18.3253 29.0074V25.7998H21.1749L21.1811 28.982H21.1817ZM20.7384 13.113C21.0043 13.374 21.1533 13.7313 21.1514 14.1041L21.1687 22.5409H18.3259V14.1041C18.3272 13.7295 18.4768 13.3709 18.742 13.1062C19.0073 12.8416 19.3671 12.6932 19.7412 12.6939C20.1164 12.6926 20.4763 12.8441 20.7384 13.113ZM5.41661 2.11352L1.30454 0.0540855C1.0529 -0.0720403 0.746862 0.0299732 0.620736 0.281606C0.494611 0.53324 0.596624 0.83928 0.848257 0.965406L4.42677 2.75775L2.01925 6.11863C1.95742 6.20457 1.92342 6.30844 1.92342 6.41478V11.7312C1.38058 11.8481 0.894009 12.1473 0.544072 12.5789C0.194135 13.0104 0.00247305 13.5483 0 14.1041V29.0074C0 29.2707 0.105105 29.523 0.291202 29.7091C0.477299 29.8952 0.729551 29.9997 0.992931 30.0003H3.87466C4.13742 29.9991 4.38843 29.8946 4.57391 29.7085C4.75877 29.5224 4.86264 29.2701 4.86264 29.0074V14.1041C4.86141 13.5489 4.67036 13.0104 4.32104 12.5789C3.97172 12.1473 3.48515 11.8481 2.94232 11.7312V6.57862L5.60209 2.86595C5.68864 2.74477 5.71832 2.59144 5.68246 2.44738C5.6466 2.30271 5.54953 2.18091 5.41661 2.11414V2.11352ZM1.01828 23.5586H3.84436V24.7809H1.01828V23.5586ZM3.87466 28.9814L1.01828 29.0067V25.7992H3.86847L3.87466 28.9814ZM3.84436 14.1035L3.86229 22.5403H1.01828V14.1041C1.02137 13.7301 1.17161 13.3721 1.43623 13.1081C1.70146 12.8441 2.05944 12.6951 2.43349 12.6939C2.80753 12.6939 3.16613 12.8429 3.43013 13.1069C3.69474 13.3715 3.84313 13.7301 3.84374 14.1035H3.84436Z" fill="black"/>
</svg>
