<svg width="60" height="60" viewBox="0 0 60 60" fill="none" xmlns="http://www.w3.org/2000/svg">
<path d="M30 60C46.5727 60 60 46.5727 60 30C60 13.4273 46.5727 0 30 0C13.4273 0 0 13.4273 0 30C0 46.5727 13.4273 60 30 60ZM13.7273 29.3496L42.6527 18.1969C43.9957 17.7117 45.1676 18.5238 44.7328 20.5547L44.7352 20.5523L39.8098 43.7543C39.4453 45.3996 38.4668 45.7992 37.0992 45.0246L29.5992 39.4969L25.9816 42.982C25.582 43.3816 25.2445 43.7191 24.4688 43.7191L25.0008 36.0867L38.9004 23.5289C39.5051 22.9969 38.7656 22.6969 37.9676 23.2266L20.7902 34.0418L13.3852 31.732C11.7773 31.2223 11.7422 30.1242 13.725 29.3496H13.7273Z" fill="#247CB8"/>
</svg>
