<svg width="50" height="50" viewBox="0 0 50 50" fill="none" xmlns="http://www.w3.org/2000/svg">
<path d="M49.0297 4.31206C48.405 3.68428 47.5562 3.33072 46.6703 3.32771H41.6702V1.67239C41.6702 1.22943 41.4944 0.804556 41.18 0.490167C40.8667 0.176781 40.4408 0 39.9978 0H10.0002C9.55728 0 9.1314 0.175777 8.81801 0.490167C8.50462 0.803552 8.32784 1.22943 8.32784 1.67239V3.32871H3.32875C2.44283 3.32871 1.59408 3.68127 0.970323 4.30905C0.346566 4.93682 -0.0039836 5.78658 3.41601e-05 6.67249V14.6096C3.41601e-05 15.5377 0.257171 16.4487 0.746333 17.2372C1.23449 18.0267 1.93458 18.6645 2.76626 19.0773L10.6722 23.0308C11.2588 23.9619 11.9448 24.8267 12.7193 25.6092C14.5282 27.4182 16.7712 28.731 19.2351 29.422L17.6731 38.3284H16.064C14.9089 38.3304 13.79 38.7312 12.896 39.4624C12.0021 40.1947 11.3884 41.2122 11.1584 42.3442L10.0334 48.0002C9.93696 48.4783 10.0545 48.9745 10.3548 49.3592C10.6551 49.7439 11.1081 49.9779 11.5953 50H38.3274C38.8146 49.9779 39.2686 49.7439 39.5689 49.3592C39.8693 48.9745 39.9868 48.4783 39.8904 48.0002L38.7654 42.3442C38.5354 41.2122 37.9216 40.1947 37.0277 39.4634C36.1337 38.7322 35.0148 38.3314 33.8597 38.3294H32.2506L30.6887 29.423C33.1536 28.728 35.3975 27.4102 37.2045 25.5951C37.9789 24.8127 38.6649 23.9489 39.2515 23.0177L47.1575 19.0653C48.0022 18.6655 48.7174 18.0357 49.2196 17.2482C49.7228 16.4608 49.993 15.5467 50.001 14.6126V6.67149C50.002 5.78758 49.6545 4.93983 49.0328 4.31206H49.0297ZM4.24982 16.0931C3.96054 15.9505 3.71947 15.7275 3.55575 15.4493C3.39203 15.1711 3.31268 14.8516 3.32774 14.5302V6.67249H8.32784V15.0003C8.33387 16.1203 8.46545 17.2372 8.71857 18.328L4.24982 16.0931ZM35.4989 42.9991L36.2332 46.6552H13.7036L14.4378 43.0001C14.5112 42.6334 14.704 42.302 14.9873 42.0579C15.2705 41.8148 15.6271 41.6722 15.9998 41.6551H33.937C34.3207 41.6591 34.6924 41.7937 34.9877 42.0388C35.284 42.2829 35.4859 42.6224 35.5612 42.9991H35.4979H35.4989ZM28.7963 38.3113H21.1405L22.5306 29.9363C24.1759 30.0227 25.8232 30.0227 27.4684 29.9363L28.7963 38.3113ZM34.843 23.2337C32.6604 25.4304 29.6903 26.6628 26.5936 26.6558H23.3281C20.2315 26.6628 17.2613 25.4304 15.0787 23.2337C12.9061 21.043 11.6827 18.0849 11.6726 14.9993V3.32871H38.3274V15.0003C38.3405 18.095 37.1141 21.0661 34.9214 23.2498L34.842 23.2337H34.843ZM46.593 14.5935C46.608 14.9159 46.5287 15.2343 46.365 15.5126C46.2012 15.7898 45.9602 16.0138 45.6709 16.1564L41.2021 18.3913C41.4502 17.2995 41.5758 16.1825 41.5768 15.0626V6.67249H46.5769L46.592 14.5935H46.593Z" fill="#247CB8"/>
<path d="M24.9998 17.9348L28.9675 19.9642C29.0779 20.0206 29.2189 20.0093 29.3179 19.9378C29.4208 19.8645 29.4703 19.7404 29.4494 19.6162L28.6932 15.3243L31.8989 12.2812C31.9884 12.1966 32.0227 12.0612 31.9846 11.9446C31.9465 11.8298 31.8418 11.7395 31.7199 11.7207H31.7142L27.2817 11.0926L25.2988 7.18244C25.2417 7.07147 25.1274 7 25.0017 7C24.876 7 24.7598 7.06959 24.7026 7.18244L22.7197 11.0907L18.2873 11.717C18.1635 11.7339 18.0549 11.8242 18.0168 11.9408C17.9768 12.0649 18.0092 12.1909 18.1025 12.2793L21.3083 15.3224L20.5521 19.6143C20.5292 19.7404 20.5788 19.8607 20.6835 19.936C20.7826 20.0074 20.9235 20.0187 21.0321 19.9623L24.9998 17.9329V17.9348Z" fill="#247CB8"/>
</svg>
