<svg width="51" height="50" viewBox="0 0 51 50" fill="none" xmlns="http://www.w3.org/2000/svg">
<path d="M27.6021 46.6642H23.3846C22.9939 46.6642 22.6154 46.5297 22.3131 46.2816C22.0109 46.0336 21.804 45.6892 21.7287 45.3056L21.4164 43.0874C21.3722 42.7791 21.2417 42.4889 21.0398 42.2519C20.838 42.0139 20.5739 41.8382 20.2757 41.7448C19.2866 41.4305 18.3246 41.0328 17.4017 40.5579C17.1246 40.4103 16.8113 40.345 16.499 40.3691C16.1857 40.3942 15.8864 40.5077 15.6364 40.6975L13.8399 42.041C13.5186 42.279 13.124 42.3935 12.7253 42.3654C12.3277 42.3363 11.9521 42.1665 11.6689 41.8854L8.68553 38.8237C8.40437 38.5405 8.23466 38.1649 8.20554 37.7673C8.17642 37.3686 8.2919 36.973 8.52989 36.6527L9.87347 34.8562C10.0633 34.6062 10.1777 34.3069 10.2018 33.9936C10.2269 33.6813 10.1617 33.368 10.013 33.0909C9.53406 32.169 9.13641 31.2081 8.82612 30.2169C8.73173 29.9197 8.556 29.6546 8.31901 29.4528C8.08102 29.2509 7.79182 29.1204 7.48354 29.0762L5.26533 28.7639C4.86768 28.7037 4.50518 28.5048 4.24108 28.2006C3.97799 27.8973 3.83138 27.5097 3.82837 27.107V22.8895C3.83138 22.4878 3.97799 22.1002 4.24108 21.796C4.50417 21.4927 4.86768 21.2929 5.26533 21.2336L7.48354 20.9213C7.79182 20.8762 8.08203 20.7466 8.31901 20.5448C8.557 20.3429 8.73273 20.0788 8.82612 19.7806C9.14042 18.7915 9.53807 17.8295 10.013 16.9067C10.1607 16.6295 10.2259 16.3162 10.2018 16.0039C10.1767 15.6906 10.0633 15.3914 9.87347 15.1413L8.52989 13.3449C8.2919 13.0246 8.17742 12.6289 8.20554 12.2303C8.23466 11.8326 8.40437 11.457 8.68553 11.1739L11.6689 8.19048C11.9541 7.91233 12.3287 7.74363 12.7263 7.71551C13.124 7.68739 13.5186 7.79986 13.8409 8.03483L15.6374 9.37841C15.8874 9.5682 16.1867 9.68268 16.5 9.70678C16.8123 9.73188 17.1256 9.66661 17.4027 9.51799C18.3246 9.039 19.2855 8.64135 20.2767 8.33107C20.7617 8.0981 21.1031 7.64522 21.1925 7.11502C21.2818 6.58481 21.1091 6.04457 20.7285 5.665C20.348 5.28542 19.8067 5.11471 19.2765 5.20709C18.439 5.46316 17.6196 5.77746 16.8243 6.14499L15.8402 5.41094C14.8762 4.69396 13.6873 4.34652 12.4883 4.43288C11.2903 4.51924 10.1627 5.03237 9.31013 5.87989L6.32674 8.81608C5.48223 9.66962 4.97111 10.7963 4.88475 11.9943C4.79839 13.1922 5.14383 14.3802 5.85779 15.3462L6.59184 16.3303C6.37293 16.7992 6.17009 17.2832 5.99838 17.7672L4.79538 17.939C3.60544 18.1147 2.51793 18.7102 1.72965 19.6189C0.943388 20.5267 0.506574 21.6875 0.500549 22.8905V27.108C0.506574 28.311 0.943388 29.4718 1.73066 30.3796C2.51893 31.2884 3.60645 31.8839 4.79639 32.0596L5.99938 32.2313C6.17109 32.7153 6.37394 33.1993 6.59284 33.6683L5.8588 34.6524C5.14483 35.6174 4.7994 36.8063 4.88576 38.0033C4.97212 39.2012 5.48324 40.3279 6.32774 41.1815L9.31113 44.1648C10.1647 45.0094 11.2914 45.5205 12.4893 45.6068C13.6873 45.6932 14.8752 45.3478 15.8412 44.6338L16.8253 43.8997C17.2943 44.1187 17.7783 44.3215 18.2623 44.4932L18.434 45.6962C18.6097 46.8861 19.2052 47.9737 20.114 48.7619C21.0228 49.5502 22.1836 49.987 23.3856 49.992H27.6031C28.072 50.0372 28.539 49.8826 28.8874 49.5663C29.2369 49.249 29.4357 48.8001 29.4357 48.3281C29.4357 47.8562 29.2369 47.4073 28.8874 47.091C28.538 46.7747 28.072 46.619 27.6031 46.6652L27.6021 46.6642Z" fill="#247CB8"/>
<path d="M46.1902 17.9392L44.9872 17.7675C44.8155 17.2835 44.6127 16.7994 44.3938 16.3305L45.1278 15.3464C45.8418 14.3814 46.1872 13.1925 46.1009 11.9955C46.0145 10.7975 45.5034 9.67084 44.6589 8.8173L41.6755 5.83391C40.822 4.9894 39.6953 4.47828 38.4973 4.39192C37.2993 4.30556 36.1114 4.651 35.1454 5.36496L34.1613 6.09901C33.6923 5.8801 33.2083 5.67726 32.7243 5.50555L32.5526 4.30255C32.3769 3.11261 31.7814 2.0251 30.8726 1.23682C29.9659 0.449554 28.8051 0.0137448 27.6021 0.0077198H23.3845C22.9156 -0.0374678 22.4487 0.117174 22.1002 0.433488C21.7508 0.750805 21.5519 1.19967 21.5519 1.67163C21.5519 2.14359 21.7508 2.59245 22.1002 2.90877C22.4497 3.22508 22.9156 3.38072 23.3845 3.33453H27.6021C28.0037 3.33755 28.3913 3.48415 28.6956 3.74725C28.9989 4.01034 29.1987 4.37385 29.2579 4.7715L29.5702 6.98971C29.6144 7.29799 29.745 7.5882 29.9468 7.82518C30.1486 8.06317 30.4127 8.2389 30.711 8.33228C31.6991 8.6496 32.6601 9.04625 33.5849 9.51921C33.8621 9.66683 34.1754 9.7321 34.4876 9.708C34.801 9.68289 35.1002 9.56942 35.3502 9.37963L37.1467 8.03605C37.469 7.80108 37.8637 7.68861 38.2613 7.71673C38.659 7.74485 39.0335 7.91355 39.3187 8.1917L42.3021 11.1751C42.5833 11.4583 42.753 11.8338 42.7821 12.2315C42.8112 12.6301 42.6957 13.0258 42.4577 13.3461L41.1142 15.1426C40.9244 15.3926 40.8099 15.6918 40.7858 16.0051C40.7607 16.3174 40.826 16.6307 40.9746 16.9079C41.4536 17.8297 41.8512 18.7907 42.1615 19.7818C42.2559 20.0791 42.4316 20.3442 42.6686 20.546C42.9066 20.7478 43.1958 20.8784 43.5041 20.9226L45.8006 21.2509C46.1842 21.3041 46.5367 21.4899 46.7988 21.7741C47.0609 22.0593 47.2165 22.4258 47.2376 22.8124V27.0299C47.2537 27.4456 47.1161 27.8513 46.85 28.1717C46.5849 28.492 46.2113 28.7029 45.7996 28.7631L43.5814 29.0754C43.2731 29.1206 42.9829 29.2501 42.7459 29.452C42.508 29.6538 42.3322 29.9179 42.2388 30.2162C41.9245 31.2053 41.5269 32.1673 41.0519 33.0901C40.8922 33.3592 40.8139 33.6695 40.825 33.9818C40.836 34.2941 40.9364 34.5973 41.1142 34.8554L42.4577 36.6519C42.6957 36.9722 42.8102 37.3678 42.7821 37.7665C42.753 38.1642 42.5833 38.5397 42.3021 38.8229L39.3187 41.8063C39.0355 42.0874 38.66 42.2571 38.2623 42.2863C37.8637 42.3154 37.468 42.1999 37.1477 41.9619L35.3512 40.6183C35.1012 40.4286 34.802 40.3141 34.4887 40.29C34.1764 40.2649 33.8631 40.3301 33.5859 40.4788C32.6641 40.9577 31.7031 41.3554 30.712 41.6657C30.227 41.8987 29.8855 42.3515 29.7962 42.8817C29.7068 43.4119 29.8795 43.9522 30.2601 44.3318C30.6407 44.7113 31.1819 44.882 31.7121 44.7897C32.5496 44.5336 33.369 44.2193 34.1643 43.8518L35.1484 44.5858C36.011 45.2275 37.0573 45.5719 38.1318 45.5699C39.4583 45.5699 40.7326 45.0487 41.6775 44.1169L44.6609 41.1335C45.5054 40.2799 46.0165 39.1533 46.1029 37.9553C46.1892 36.7583 45.8438 35.5694 45.1298 34.6044L44.3958 33.6203C44.6147 33.1513 44.8175 32.6673 44.9893 32.1833L46.1922 32.0116C47.3742 31.8379 48.4556 31.2484 49.2429 30.3497C50.0302 29.451 50.471 28.3012 50.4891 27.1072V22.8897C50.4831 21.6867 50.0462 20.5259 49.259 19.6181C48.4707 18.7094 47.3832 18.1139 46.1933 17.9382L46.1902 17.9392Z" fill="#247CB8"/>
<path d="M35.5119 14.9822C32.8549 12.3252 29.2509 10.833 25.4933 10.833C21.7367 10.837 18.1358 12.3312 15.4797 14.9873C12.8237 17.6433 11.3295 21.2442 11.3255 25.0008C11.3255 28.7584 12.8187 32.3614 15.4747 35.0194C18.1318 37.6765 21.7357 39.1687 25.4933 39.1687C29.2509 39.1687 32.8539 37.6755 35.5119 35.0194C38.169 32.3624 39.6611 28.7584 39.6611 25.0008C39.6611 21.2432 38.168 17.6403 35.5119 14.9822ZM35.1394 29.9183C35.1283 29.9393 35.1173 29.9604 35.1062 29.9815C35.0781 30.0357 35.05 30.089 35.0209 30.1422C33.2907 33.3415 29.997 35.5697 26.1641 35.8037C26.143 35.8047 26.1219 35.8067 26.1008 35.8077C26.0346 35.8117 25.9673 35.8137 25.9 35.8167C25.8619 35.8177 25.8227 35.8198 25.7845 35.8208C25.7414 35.8218 25.6972 35.8218 25.653 35.8228C25.5476 35.8248 25.4421 35.8248 25.3367 35.8228C25.2925 35.8228 25.2483 35.8228 25.2041 35.8208C25.166 35.8198 25.1278 35.8177 25.0907 35.8167C25.0234 35.8147 24.9551 35.8117 24.8878 35.8077C24.8677 35.8067 24.8466 35.8047 24.8266 35.8037C20.9926 35.5697 17.697 33.3405 15.9678 30.1412C15.9407 30.091 15.9146 30.0408 15.8884 29.9906C15.8754 29.9664 15.8623 29.9413 15.8503 29.9172C15.3151 28.8729 14.9465 27.7372 14.7728 26.5503C14.3179 23.4383 15.2408 20.2832 17.2993 17.9064C19.3589 15.5295 22.3513 14.1679 25.4953 14.1759C28.6404 14.1679 31.6328 15.5295 33.6914 17.9064C35.7509 20.2832 36.6737 23.4383 36.2179 26.5503C36.0441 27.7382 35.6756 28.8739 35.1394 29.9193V29.9183Z" fill="#247CB8"/>
</svg>
