<svg width="50" height="50" viewBox="0 0 50 50" fill="none" xmlns="http://www.w3.org/2000/svg">
<path d="M47.5621 2.43785C46.0022 0.871901 43.8818 -0.00599593 41.671 3.08264e-05H8.32797C6.11917 3.08264e-05 4.00177 0.877928 2.43983 2.43986C0.877897 4.0018 0 6.1192 0 8.328V41.671C0 43.8798 0.877897 45.9982 2.43983 47.5602C4.00177 49.1221 6.12017 50 8.32898 50H41.671C43.8798 50 45.9982 49.1221 47.5601 47.5602C49.1221 45.9982 49.999 43.8798 49.999 41.671V8.328C50.005 6.11819 49.1271 3.99677 47.5611 2.43685L47.5621 2.43785ZM30.0002 3.32881V13.969L25.7503 11.8436C25.2621 11.5855 24.6765 11.5855 24.1884 11.8436L20.0008 13.969V3.32881H30.0002ZM46.6722 41.672C46.6722 42.9979 46.1459 44.2696 45.2077 45.2077C44.2695 46.1459 42.9979 46.6722 41.672 46.6722H8.32898C7.00309 46.6722 5.73144 46.1459 4.79328 45.2077C3.85511 44.2696 3.32878 42.9979 3.32878 41.672V8.32901C3.32878 7.00312 3.85511 5.73147 4.79328 4.79331C5.73144 3.85515 7.00309 3.32881 8.32898 3.32881H16.6569V16.657C16.6359 17.2446 16.9241 17.8001 17.4173 18.1205C17.9105 18.4409 18.5353 18.4781 19.0636 18.2199L25.001 15.2045L30.9233 18.1576C31.4506 18.4168 32.0764 18.3786 32.5696 18.0592C33.0628 17.7388 33.3511 17.1833 33.33 16.5957V3.32881H41.6579C42.9838 3.32881 44.2555 3.85515 45.1936 4.79331C46.1318 5.73147 46.6581 7.00312 46.6581 8.32901L46.6732 41.672H46.6722Z" fill="#247CB8"/>
<path d="M14.0624 30.2816L9.06223 33.6094L10.9376 36.3908L13.3442 34.8288V40.0008H16.672V34.7826L19.0787 36.3446L20.9229 33.5632L15.9227 30.2354C15.6434 30.0556 15.317 29.9642 14.9865 29.9733C14.6551 29.9813 14.3336 30.0898 14.0634 30.2826L14.0624 30.2816Z" fill="#247CB8"/>
</svg>
