<svg width="20" height="21" viewBox="0 0 20 21" fill="none" xmlns="http://www.w3.org/2000/svg"><path d="M15.7326 6.32021C15.7326 9.44635 13.1885 11.9904 10.0624 11.9904C6.93626 11.9904 4.39219 9.44635 4.39219 6.32021C4.39219 3.19407 6.93626 0.65 10.0624 0.65C13.1885 0.65 15.7326 3.19407 15.7326 6.32021ZM14.4806 6.32021C14.4806 3.88307 12.4995 1.90206 10.0624 1.90206C7.62526 1.90206 5.64424 3.88307 5.64424 6.32021C5.64424 8.75736 7.62526 10.7384 10.0624 10.7384C12.4995 10.7384 14.4806 8.75736 14.4806 6.32021Z" fill="white" stroke="#247CB8" stroke-width="0.3"></path><path d="M19.2247 19.9008V20.5268H0.9V19.9008C0.9 16.5544 2.70851 13.626 5.39907 12.0269C5.76386 12.3259 6.15708 12.5878 6.57491 12.8115C4.18481 13.9909 2.46751 16.338 2.19212 19.1099L2.17574 19.2747H2.34138H17.7859H17.9516L17.9352 19.1099C17.6597 16.3375 15.9418 13.99 13.551 12.8108C13.9677 12.5865 14.3626 12.3261 14.7282 12.0269C17.4162 13.626 19.2247 16.5544 19.2247 19.9008Z" fill="white" stroke="#247CB8" stroke-width="0.3"></path></svg>