<svg width="81" height="70" viewBox="0 0 81 70" fill="none" xmlns="http://www.w3.org/2000/svg">
<path d="M68.2319 14.1892V14.241L68.2742 14.2709L80.6176 22.9897C80.6198 23.0576 80.618 23.1445 80.6163 23.2261C80.6158 23.2509 80.6153 23.2753 80.6149 23.2985C80.6131 23.3895 80.6113 23.4816 80.6113 23.5739V68.8044C80.6113 69.1451 80.5685 69.4096 80.5166 69.5993C80.4759 69.7481 80.4306 69.8466 80.3986 69.9H1.52843C0.922487 69.7918 0.444798 69.3141 0.336572 68.7082L0.336572 23.6387C0.365429 23.4226 0.47958 23.2276 0.653814 23.0975L13.6239 14.1859L13.6673 14.1561V14.1035V1.26793C13.7474 0.680855 14.1907 0.213209 14.7724 0.1L67.1287 0.1C67.7084 0.211427 68.1518 0.678852 68.2319 1.2679V14.1892ZM15.0072 1.33988H14.9072V1.43988L14.9072 33.4963V33.5462L14.947 33.5762L40.8885 53.133L40.9487 53.1784L41.0089 53.133L66.9522 33.5762L66.9921 33.5462V33.4963V1.43988V1.33988H66.8921L15.0072 1.33988ZM13.5064 32.5313L13.6673 32.6548V32.452L13.6673 15.7803V15.7785V15.5868L13.5101 15.6965L2.13139 23.6359L2.01937 23.7141L2.12772 23.7972L13.5064 32.5313ZM1.73682 25.2056L1.57645 25.0842V25.2854L1.57645 68.0808V68.2689L1.73239 68.1637L31.6163 47.9944L31.7322 47.9162L31.6207 47.8318L1.73682 25.2056ZM3.49429 68.479L3.48633 68.4843L3.47954 68.4911L3.47772 68.4929L3.30622 68.6638H3.54829H78.3345H78.6608L78.3906 68.4809L48.8658 48.5049L48.8059 48.4644L48.7487 48.5085L41.0359 54.448C41.0358 54.4481 41.0356 54.4482 41.0355 54.4483C41.0189 54.4609 41.0023 54.4735 40.9858 54.4859C40.951 54.5122 40.9169 54.538 40.8846 54.5628C40.8557 54.5845 40.8265 54.607 40.7987 54.6281C40.7867 54.6372 40.775 54.6461 40.7636 54.6545C40.5978 54.6283 40.4419 54.5607 40.3007 54.4521L40.3002 54.4517L32.8639 48.7961L32.8069 48.7528L32.7475 48.7927L3.49429 68.479ZM79.2174 67.4931L79.3732 67.5977V67.41V25.269V25.0663L79.2124 25.1896L49.9063 47.6499L49.7957 47.7346L49.9113 47.8123L79.2174 67.4931ZM68.3903 15.8145L68.2338 15.7071V15.897V32.2837V32.3335V32.3353H68.3338H68.3351L68.3941 32.4133L79.7946 23.7977L79.9054 23.714L79.7909 23.6354L68.3903 15.8145Z" fill="white" stroke="#247CB8" stroke-width="0.2"/>
<path d="M34.88 13.0998C34.88 13.4281 34.6134 13.6948 34.2851 13.6948H25.7151C25.3868 13.6948 25.1201 13.4281 25.1201 13.0998C25.1201 12.7715 25.3868 12.5049 25.7151 12.5049H34.2851C34.6134 12.5049 34.88 12.7715 34.88 13.0998Z" fill="white" stroke="#247CB8" stroke-width="0.25"/>
<path d="M56.7808 21.6694C56.7808 21.9977 56.5141 22.2643 56.1859 22.2643H25.7151C25.3868 22.2643 25.1201 21.9977 25.1201 21.6694C25.1201 21.3411 25.3868 21.0745 25.7151 21.0745H56.1859C56.5141 21.0745 56.7808 21.3411 56.7808 21.6694Z" fill="white" stroke="#247CB8" stroke-width="0.25"/>
<path d="M56.7808 30.2392C56.7808 30.5675 56.5141 30.8342 56.1859 30.8342H25.7151C25.3868 30.8342 25.1201 30.5675 25.1201 30.2392C25.1201 29.9109 25.3868 29.6443 25.7151 29.6443H56.1859C56.5141 29.6443 56.7808 29.9109 56.7808 30.2392Z" fill="white" stroke="#247CB8" stroke-width="0.25"/>
</svg>
