<svg width="26" height="21" viewBox="0 0 26 21" fill="none" xmlns="http://www.w3.org/2000/svg"><path d="M20.3122 7.51689L20.3271 7.5383H20.3532H25.2262C25.5336 7.5383 25.7854 7.79005 25.7854 8.09749C25.7854 8.40493 25.5336 8.65668 25.2262 8.65668H23.5509H23.5124L23.5026 8.69396L20.5785 19.8117L20.5784 19.8117L20.578 19.8135C20.5225 20.0636 20.3001 20.2313 20.0481 20.2313H6.03675C5.78476 20.2313 5.56239 20.0636 5.50683 19.8135L5.50687 19.8135L5.50638 19.8117L2.58282 8.69397L2.57301 8.65668H2.53446H0.859189C0.551749 8.65668 0.3 8.40493 0.3 8.09749C0.3 7.79005 0.551749 7.5383 0.859189 7.5383H5.7327H5.7589L5.77381 7.51676L10.4341 0.785228L10.4346 0.784499C10.6006 0.535528 10.9647 0.477129 11.2181 0.646069C11.467 0.811966 11.5254 1.17582 11.3568 1.42921C11.3567 1.42934 11.3566 1.42947 11.3566 1.4296L7.15367 7.49027L7.09924 7.56876H7.19476H18.8607H18.9562L18.9018 7.49027L14.6989 1.4296C14.6988 1.42947 14.6988 1.42934 14.6987 1.42921C14.53 1.17582 14.5885 0.811966 14.8374 0.646069C15.0908 0.477129 15.4549 0.535528 15.6209 0.784498L15.6209 0.784504L15.6215 0.785349L20.3122 7.51689ZM19.5918 19.1129H19.6304L19.6401 19.0756L22.351 8.71934L22.3674 8.65668H22.3026H3.7833H3.71852L3.73493 8.71934L6.44582 19.0756L6.45559 19.1129H6.49419H19.5918Z" fill="white" stroke="#247CB8" stroke-width="0.1"></path><path d="M10.2519 16.9306C10.2519 17.238 10.0001 17.4898 9.69269 17.4898C9.38525 17.4898 9.1335 17.238 9.1335 16.9306V10.8387C9.1335 10.5312 9.38525 10.2795 9.69269 10.2795C10.0001 10.2795 10.2519 10.5312 10.2519 10.8387V16.9306Z" fill="white" stroke="#247CB8" stroke-width="0.1"></path><path d="M13.602 16.9306C13.602 17.238 13.3502 17.4898 13.0428 17.4898C12.7353 17.4898 12.4836 17.238 12.4836 16.9306V10.8387C12.4836 10.5312 12.7353 10.2795 13.0428 10.2795C13.3502 10.2795 13.602 10.5312 13.602 10.8387V16.9306Z" fill="white" stroke="#247CB8" stroke-width="0.1"></path><path d="M16.9526 16.9306C16.9526 17.238 16.7008 17.4898 16.3934 17.4898C16.0859 17.4898 15.8342 17.238 15.8342 16.9306V10.8387C15.8342 10.5312 16.0859 10.2795 16.3934 10.2795C16.7008 10.2795 16.9526 10.5312 16.9526 10.8387V16.9306Z" fill="white" stroke="#247CB8" stroke-width="0.1"></path></svg>