<svg width="19" height="22" viewBox="0 0 19 22" fill="none" xmlns="http://www.w3.org/2000/svg">
<path d="M17.8134 21H13.804C13.3823 21 12.978 20.8308 12.6821 20.5316C12.3862 20.2315 12.222 19.8255 12.227 19.4038V13.1539C12.227 13.0497 12.1853 12.9497 12.1119 12.8763C12.0386 12.803 11.9386 12.7613 11.8352 12.7613H8.56773C8.35184 12.7638 8.17763 12.938 8.17596 13.153V19.4029C8.17596 19.8214 8.00925 20.2223 7.71335 20.5182C7.41744 20.8141 7.01651 20.98 6.59807 20.98H2.5779C2.15946 20.98 1.75769 20.8141 1.46178 20.5182C1.16671 20.2231 1 19.8214 1 19.4029V8.84447C1 8.37185 1.21005 7.9234 1.57431 7.62166L9.19205 1.35759C9.47545 1.1267 9.82971 1 10.1956 1C10.5616 1 10.9158 1.1267 11.1992 1.35759L18.8169 7.62166C19.1812 7.9234 19.3913 8.37185 19.3913 8.84447V19.4029C19.3963 19.8247 19.232 20.2306 18.9361 20.5307C18.6402 20.8308 18.2351 20.9992 17.8142 20.9992L17.8134 21ZM8.55689 11.5751H11.8244C12.2436 11.5743 12.6462 11.7394 12.943 12.0353C13.2397 12.3312 13.4064 12.7338 13.4064 13.153V19.4029C13.4064 19.6172 13.579 19.7922 13.794 19.7947H17.8042C18.0201 19.7922 18.1935 19.618 18.196 19.4029V8.84447C18.1968 8.7261 18.1434 8.61441 18.0509 8.54106L10.4432 2.27698C10.299 2.15945 10.0923 2.15945 9.94807 2.27698L2.33033 8.54106C2.23781 8.61441 2.18446 8.7261 2.1853 8.84447V19.4029C2.1878 19.6188 2.36201 19.7922 2.5779 19.7947H6.58723C6.80228 19.7922 6.97483 19.6172 6.97483 19.4029V13.153C6.97483 12.7338 7.14154 12.332 7.43828 12.0353C7.73502 11.7394 8.13762 11.5735 8.55689 11.5751Z" fill="white" stroke="#247CB8" stroke-width="0.1"/>
</svg>
