<svg width="50" height="47" viewBox="0 0 50 47" fill="none" xmlns="http://www.w3.org/2000/svg">
<path d="M48.7047 14.9443C47.7601 13.8732 46.4009 13.2588 44.9724 13.2578H36.5562L38.4454 6.24695C38.8309 4.75222 38.5046 3.16413 37.562 1.94245C36.6184 0.720763 35.1638 0.00401539 33.6199 0H30.1526C28.427 0.00702694 26.8239 0.896436 25.9053 2.35804L20.5809 10.946C19.6724 12.4176 18.0633 13.311 16.3336 13.304H11.6497C11.6617 12.4136 11.3174 11.5563 10.692 10.9219C10.0666 10.2874 9.21335 9.93107 8.32394 9.93107H3.32679C2.4444 9.93107 1.59916 10.2814 0.974771 10.9048C0.350377 11.5282 3.42365e-05 12.3754 3.42365e-05 13.2578V43.2237C-0.00398116 44.1071 0.345358 44.9553 0.969752 45.5797C1.59415 46.2041 2.4434 46.5535 3.32679 46.5494H8.32394C9.20733 46.5514 10.0546 46.2031 10.682 45.5817C11.2963 44.9493 11.6427 44.1051 11.6497 43.2237V16.6769H16.3336C19.2368 16.6719 21.9251 15.1501 23.4228 12.6635L28.7322 4.05956C29.0394 3.57169 29.5764 3.27656 30.1536 3.27857H33.6209C34.1419 3.27656 34.6338 3.51949 34.948 3.93508C35.2743 4.33763 35.3797 4.87569 35.2291 5.37159L32.7927 14.4905C32.6582 14.9844 32.7586 15.5125 33.0628 15.923C33.3679 16.3336 33.8428 16.5826 34.3547 16.5986H44.9734C45.4483 16.5966 45.902 16.7954 46.2232 17.1457C46.5404 17.5041 46.688 17.9819 46.6298 18.4578L44.6311 35.4941C44.4856 36.7087 43.9003 37.828 42.9848 38.6391C42.0693 39.4502 40.8888 39.8979 39.6651 39.8969H16.6468C16.178 39.8518 15.7113 40.0064 15.3629 40.3226C15.0136 40.6398 14.8148 41.0885 14.8148 41.5603C14.8148 42.0321 15.0136 42.4808 15.3629 42.7971C15.7113 43.1133 16.178 43.2689 16.6468 43.2227H39.6641C41.724 43.2177 43.7086 42.4517 45.2374 41.0704C46.7653 39.6891 47.729 37.7919 47.9408 35.743L49.9706 18.8472C50.1252 17.4248 49.6654 16.0044 48.7057 14.9433L48.7047 14.9443ZM8.32294 43.2237H3.32578V13.2578H8.32294V43.2237Z" fill="#247CB8"/>
</svg>
