<svg width="50" height="50" viewBox="0 0 50 50" fill="none" xmlns="http://www.w3.org/2000/svg">
<path d="M39.9867 13.339C41.756 13.339 43.452 12.6361 44.7032 11.3849C45.9543 10.1348 46.6562 8.43776 46.6562 6.66948C46.6562 4.90119 45.9533 3.2042 44.7032 1.95305C43.452 0.702896 41.756 0 39.9867 0C38.2175 0 36.5215 0.702896 35.2713 1.95305C34.0202 3.2042 33.3173 4.90019 33.3173 6.66948C33.3173 8.43877 34.0202 10.1348 35.2713 11.3849C36.5225 12.6361 38.2185 13.339 39.9867 13.339ZM39.9867 3.34177C40.8694 3.34177 41.7149 3.69221 42.3394 4.31578C42.963 4.93935 43.3134 5.78584 43.3134 6.66847C43.3134 7.55111 42.963 8.3976 42.3394 9.02116C41.7159 9.64473 40.8694 9.99618 39.9867 9.99618C39.1041 9.99618 38.2586 9.64574 37.634 9.02116C37.0105 8.3976 36.659 7.55111 36.659 6.66847C36.663 5.78684 37.0155 4.94337 37.6381 4.3208C38.2616 3.69723 39.1051 3.34578 39.9857 3.34177H39.9867Z" fill="#247CB8"/>
<path d="M43.3134 16.6817C41.5542 16.6817 39.8673 17.3856 38.6281 18.6347C37.388 19.8798 36.6861 21.5628 36.6751 23.32V32.0359L33.2068 32.8945C32.3272 33.1144 31.5239 33.5682 30.8832 34.2099C30.2426 34.8515 29.7877 35.6548 29.5678 36.5345L26.709 47.9214C26.5865 48.4114 26.691 48.9295 26.9942 49.3332C27.2975 49.7369 27.7674 49.9809 28.2715 49.9989H32.8795C33.8083 49.9989 34.718 49.7419 35.5073 49.2529C36.2965 48.7648 36.9342 48.065 37.3469 47.2335L39.2999 43.3285H41.5964C43.8155 43.3455 45.9493 42.4749 47.5238 40.9125C49.0983 39.3491 49.9839 37.2223 49.9839 35.0032V23.3351C49.9799 21.5688 49.275 19.8758 48.0249 18.6287C46.7747 17.3816 45.0807 16.6807 43.3145 16.6807L43.3134 16.6817ZM46.6562 35.0032C46.6562 36.3286 46.1301 37.5998 45.1922 38.5377C44.2543 39.4756 42.9831 40.0017 41.6576 40.0017H38.3149C37.9935 39.9887 37.6752 40.069 37.3981 40.2327C37.1209 40.3964 36.897 40.6364 36.7524 40.9235L34.3626 45.7504C34.22 46.0396 33.9971 46.2806 33.7189 46.4443C33.4408 46.608 33.1215 46.6873 32.8001 46.6722H30.4575L32.7851 37.3006C32.8584 37.0064 33.011 36.7373 33.2249 36.5224C33.4398 36.3075 33.7089 36.1559 34.0031 36.0826L38.6894 34.8957C39.0408 34.8073 39.3551 34.6075 39.5831 34.3254C39.811 34.0442 39.9416 33.6958 39.9546 33.3333V23.3371C39.9586 22.4514 40.3121 21.6039 40.9387 20.9784C41.5622 20.3508 42.4107 19.9983 43.2954 19.9973C44.18 19.9973 45.0285 20.3488 45.6531 20.9754C46.2777 21.6019 46.6271 22.4514 46.6241 23.3361L46.6552 35.0042L46.6562 35.0032Z" fill="#247CB8"/>
<path d="M9.99719 13.339C11.7665 13.339 13.4645 12.6351 14.7146 11.3839C15.9658 10.1318 16.6677 8.43376 16.6667 6.66447C16.6647 4.89518 15.9598 3.19819 14.7076 1.94804C13.4554 0.697885 11.7564 -0.00300274 9.98614 9.67045e-06C8.21685 0.00302208 6.51986 0.70893 5.27072 1.96209C4.02157 3.21626 3.32269 4.91526 3.32671 6.68555C3.33072 8.45183 4.03462 10.1438 5.28578 11.3919C6.53593 12.6391 8.22991 13.34 9.99619 13.34L9.99719 13.339ZM9.99719 3.34278C10.8788 3.34278 11.7233 3.69222 12.3479 4.31479C12.9714 4.93735 13.3229 5.78283 13.3239 6.66447C13.3249 7.5461 12.9765 8.39259 12.3549 9.01716C11.7333 9.64173 10.8889 9.99418 10.0072 9.9972C9.1256 10.0002 8.27911 9.65278 7.65353 9.03222C7.02796 8.41166 6.6745 7.56718 6.67048 6.68656C6.67048 5.80292 7.01992 4.95442 7.64349 4.32884C8.26706 3.70226 9.11355 3.3478 9.99719 3.34479V3.34278Z" fill="#247CB8"/>
<path d="M20.4312 36.5343C20.2133 35.6537 19.7584 34.8494 19.1178 34.2087C18.4761 33.5671 17.6728 33.1132 16.7922 32.8953L13.3239 32.0207V23.3359C13.2124 21.0324 11.9191 18.9498 9.9038 17.8292C7.8885 16.7086 5.4374 16.7086 3.42109 17.8292C1.40579 18.9498 0.111459 21.0324 0 23.3359V35.004C0 37.2121 0.877616 39.3298 2.43804 40.8912C3.99948 42.4527 6.1172 43.3293 8.3253 43.3293H10.6368L12.5889 47.2344C13.0006 48.0668 13.6372 48.7667 14.4274 49.2557C15.2167 49.7447 16.1274 50.0018 17.0563 49.9998H21.6643C22.1683 49.9817 22.6383 49.7367 22.9405 49.334C23.2438 48.9304 23.3492 48.4122 23.2257 47.9222L20.4292 36.5353L20.4312 36.5343ZM17.0573 46.656C16.7359 46.667 16.4186 46.5857 16.1425 46.423C15.8654 46.2594 15.6414 46.0204 15.4958 45.7342L13.0899 40.9073C12.9463 40.6201 12.7224 40.3801 12.4453 40.2165C12.1681 40.0528 11.8498 39.9725 11.5285 39.9865H8.3263C7.00084 39.9865 5.72961 39.4593 4.79174 38.5225C3.85388 37.5846 3.32771 36.3134 3.32771 34.9879V23.3359C3.32771 22.145 3.96333 21.0435 4.99458 20.448C6.02583 19.8526 7.29706 19.8526 8.32932 20.448C9.36056 21.0435 9.99618 22.145 9.99618 23.3359V33.3321C10.0092 33.6946 10.1398 34.043 10.3677 34.3242C10.5957 34.6063 10.9089 34.8062 11.2614 34.8935L15.9477 36.0804C16.2429 36.1527 16.513 36.3043 16.7279 36.5192C16.9428 36.7341 17.0944 37.0042 17.1657 37.2994L19.4933 46.6711L17.0563 46.655L17.0573 46.656Z" fill="#247CB8"/>
<path d="M33.3173 26.6777V23.335H16.6667V26.6777H23.3211V33.3321H26.6638V26.6777H33.3183H33.3173Z" fill="#247CB8"/>
</svg>
