<svg width="180" height="45" viewBox="0 0 180 45" fill="none" xmlns="http://www.w3.org/2000/svg">
<path d="M74.3135 23.8584V9.38965H77.5371V16.8663L86.5624 9.229V23.6972H83.3387V16.2212L74.3129 23.8584H74.3135Z" fill="white"/>
<path d="M89.624 23.6977V9.39014H92.8476V14.9922H98.5686V9.39014H101.792V23.6977H98.5686V18.0956H92.8476V23.6977H89.624Z" fill="white"/>
<path d="M104.854 23.6977V9.39014H110.233C111.401 9.39014 112.402 9.80679 113.235 10.6394C114.068 11.4727 114.484 12.4731 114.484 13.6424C114.484 14.6095 114.148 15.4293 113.477 16.1007C114.095 16.4367 114.585 16.8937 114.948 17.471C115.31 18.0489 115.491 18.7068 115.491 19.4454C115.491 20.6275 115.072 21.6317 114.232 22.4579C113.393 23.2842 112.369 23.697 111.16 23.697H104.854V23.6977ZM108.078 15.1739H109.871C110.3 15.1739 110.657 15.0395 110.939 14.7707C111.22 14.5019 111.362 14.1659 111.362 13.7634C111.362 13.3608 111.22 13.0216 110.939 12.7457C110.657 12.4705 110.3 12.3329 109.871 12.3329H108.078V15.1746V15.1739ZM108.078 20.7357H110.858C111.288 20.7357 111.644 20.6013 111.926 20.3331C112.208 20.0643 112.349 19.7283 112.349 19.3257C112.349 18.9231 112.208 18.5839 111.926 18.3081C111.644 18.0329 111.288 17.8953 110.858 17.8953H108.078V20.7363V20.7357Z" fill="white"/>
<path d="M117.688 23.6977V9.39014H126.552V12.5742H120.911V14.9922H125.344V18.0956H120.911V20.5136H126.552V23.697H117.688V23.6977Z" fill="white"/>
<path d="M129.05 23.6977V9.39014H133.765C135.148 9.39014 136.31 9.86055 137.25 10.8007C138.19 11.7409 138.66 12.8897 138.66 14.2466C138.66 15.6034 138.19 16.7522 137.25 17.6924C136.31 18.6326 135.148 19.103 133.765 19.103H132.274V23.6977H129.05ZM132.274 16.1007H133.725C134.235 16.1007 134.664 15.9164 135.014 15.5464C135.363 15.1771 135.538 14.7439 135.538 14.2466C135.538 13.7493 135.363 13.3198 135.014 12.9569C134.664 12.594 134.235 12.4129 133.725 12.4129H132.274V16.1007Z" fill="white"/>
<path d="M147.242 23.8583C145.227 23.8583 143.505 23.1428 142.075 21.7123C140.645 20.2819 139.929 18.559 139.929 16.5436C139.929 14.5282 140.645 12.8059 142.075 11.3755C143.505 9.94503 145.227 9.22949 147.242 9.22949C148.45 9.22949 149.578 9.5079 150.626 10.0654C151.674 10.6228 152.54 11.3787 153.225 12.3323L150.787 14.3272C150.411 13.7224 149.914 13.2392 149.296 12.8763C148.678 12.5134 147.993 12.3323 147.241 12.3323C146.086 12.3323 145.119 12.7419 144.34 13.5617C143.56 14.381 143.171 15.3749 143.171 16.5442C143.171 17.7135 143.56 18.7075 144.34 19.5267C145.118 20.3465 146.085 20.7561 147.241 20.7561C147.993 20.7561 148.678 20.5744 149.296 20.2121C149.914 19.8492 150.411 19.3654 150.787 18.7612L153.225 20.7561C152.54 21.7098 151.674 22.4656 150.626 23.0231C149.578 23.5805 148.45 23.8596 147.242 23.8596V23.8583Z" fill="white"/>
<path d="M155.119 23.8584V9.38965H158.342V16.8663L167.367 9.229V23.6972H164.144V16.2212L155.119 23.8584Z" fill="white"/>
<path d="M169.14 23.6975L173.028 18.3579C172.236 17.9687 171.598 17.4145 171.115 16.6951C170.631 15.977 170.39 15.1604 170.39 14.2471C170.39 12.8909 170.86 11.742 171.8 10.8012C172.74 9.86104 173.902 9.39062 175.285 9.39062H179.999V23.6981H176.775V19.1035H176.151L172.847 23.6981H169.14V23.6975ZM175.325 16.1005H176.775V12.4128H175.325C174.801 12.4128 174.368 12.5843 174.025 12.9267C173.683 13.2691 173.511 13.7094 173.511 14.2464C173.511 14.7834 173.682 15.2276 174.025 15.5764C174.368 15.9258 174.801 16.1005 175.325 16.1005Z" fill="white"/>
<path d="M74.3136 35.3167V30.0986H75.9817C76.4571 30.0986 76.8244 30.226 77.0842 30.4807C77.344 30.7354 77.4739 31.0516 77.4739 31.4286C77.4739 31.9771 77.2512 32.3572 76.8052 32.5678C77.1091 32.6561 77.3549 32.8091 77.5436 33.0273C77.7324 33.2456 77.8264 33.5336 77.8264 33.8907C77.8264 34.3464 77.6697 34.6984 77.3561 34.9455C77.0426 35.1931 76.6216 35.3167 76.0924 35.3167H74.3142H74.3136ZM74.7545 32.4353H75.9964C76.3196 32.4353 76.5723 32.3457 76.7534 32.1672C76.9345 31.9886 77.0253 31.7569 77.0253 31.4727C77.0253 31.1886 76.9319 30.9691 76.7464 30.7854C76.5602 30.6017 76.308 30.5095 75.9894 30.5095H74.7551V32.4353H74.7545ZM74.7545 34.9051H76.143C76.5346 34.9051 76.8385 34.8143 77.0541 34.6331C77.2698 34.452 77.3773 34.1992 77.3773 33.876C77.3773 33.5528 77.273 33.3025 77.065 33.1118C76.857 32.9205 76.5467 32.8251 76.1353 32.8251H74.7538V34.9051H74.7545Z" fill="white"/>
<path d="M81.8818 35.3755C81.1326 35.3755 80.5016 35.1195 79.9898 34.6075C79.4779 34.0955 79.2219 33.4625 79.2219 32.7073C79.2219 31.9521 79.4779 31.3255 79.9898 30.8109C80.5016 30.2963 81.1326 30.0391 81.8818 30.0391C82.308 30.0391 82.7034 30.1261 83.0688 30.3002C83.4335 30.4743 83.7163 30.6983 83.9172 30.9728L83.6011 31.2519C83.4098 31.0068 83.1654 30.8135 82.8666 30.6714C82.5678 30.5293 82.2395 30.4583 81.8818 30.4583C81.2599 30.4583 80.7365 30.6727 80.3129 31.1015C79.8893 31.5303 79.6775 32.0653 79.6775 32.7073C79.6775 33.3492 79.8893 33.8772 80.3129 34.306C80.7365 34.7348 81.2592 34.9493 81.8818 34.9493C82.2395 34.9493 82.5678 34.8782 82.8666 34.7361C83.1654 34.594 83.4105 34.4008 83.6011 34.1556L83.9172 34.4347C83.7163 34.7092 83.4322 34.9345 83.0649 35.1105C82.6977 35.2872 82.3029 35.3749 81.8818 35.3749V35.3755Z" fill="white"/>
<path d="M85.717 35.3163V30.0983H88.6636V30.5246H86.1579V32.4209H88.2227V32.8549H86.1579V34.8907H88.6636V35.317H85.717V35.3163ZM86.65 29.3924C86.5764 29.466 86.4855 29.5025 86.378 29.5025C86.2705 29.5025 86.1797 29.466 86.1061 29.3924C86.0325 29.3188 85.996 29.2285 85.996 29.1204C85.996 29.0122 86.0325 28.922 86.1061 28.8484C86.1797 28.7748 86.2699 28.7383 86.378 28.7383C86.4862 28.7383 86.5764 28.7748 86.65 28.8484C86.7235 28.922 86.76 29.0128 86.76 29.1204C86.76 29.2279 86.7235 29.3188 86.65 29.3924ZM88.2662 29.3924C88.1927 29.466 88.1018 29.5025 87.9943 29.5025C87.8868 29.5025 87.7959 29.466 87.7224 29.3924C87.6488 29.3188 87.6123 29.2285 87.6123 29.1204C87.6123 29.0122 87.6488 28.922 87.7224 28.8484C87.7959 28.7748 87.8862 28.7383 87.9943 28.7383C88.1024 28.7383 88.1927 28.7748 88.2662 28.8484C88.3398 28.922 88.3763 29.0128 88.3763 29.1204C88.3763 29.2279 88.3398 29.3188 88.2662 29.3924Z" fill="white"/>
<path d="M92.2426 36.4045V34.8902H92.7052L94.9242 30.0396L97.1215 34.8902H97.5918V36.4045H97.158V35.3165H92.6758V36.4045H92.2419H92.2426ZM93.1608 34.8902H96.6659L94.9242 30.9874L93.1608 34.8902Z" fill="white"/>
<path d="M98.4146 35.3165L100.913 30.0396L103.411 35.3165H102.934L100.913 30.9874L98.8848 35.3165H98.4146Z" fill="white"/>
<path d="M104.344 35.3167L105.916 33.0165C105.505 32.9576 105.193 32.8021 104.98 32.5499C104.766 32.2977 104.66 31.9828 104.66 31.6052C104.66 31.1495 104.81 30.7847 105.111 30.5102C105.413 30.2356 105.832 30.0986 106.372 30.0986H107.863V35.3167H107.423V33.1118H106.372L104.858 35.3167H104.344H104.344ZM106.373 32.7003H107.423V30.5102H106.373C105.966 30.5102 105.653 30.6094 105.436 30.8078C105.218 31.0062 105.109 31.2718 105.109 31.6052C105.109 31.9387 105.218 32.2043 105.436 32.4027C105.654 32.6011 105.966 32.7003 106.373 32.7003Z" fill="white"/>
<path d="M114.992 35.3755C114.242 35.3755 113.611 35.1195 113.099 34.6075C112.588 34.0955 112.332 33.4625 112.332 32.7073C112.332 31.9521 112.588 31.3255 113.099 30.8109C113.611 30.2963 114.242 30.0391 114.992 30.0391C115.418 30.0391 115.813 30.1261 116.179 30.3002C116.543 30.4743 116.826 30.6983 117.027 30.9728L116.711 31.2519C116.52 31.0068 116.275 30.8135 115.976 30.6714C115.677 30.5293 115.349 30.4583 114.992 30.4583C114.37 30.4583 113.846 30.6727 113.423 31.1015C112.999 31.5303 112.787 32.0653 112.787 32.7073C112.787 33.3492 112.999 33.8772 113.423 34.306C113.846 34.7348 114.369 34.9493 114.992 34.9493C115.349 34.9493 115.677 34.8782 115.976 34.7361C116.275 34.594 116.52 34.4008 116.711 34.1556L117.027 34.4347C116.826 34.7092 116.542 34.9345 116.175 35.1105C115.807 35.2872 115.413 35.3749 114.992 35.3749V35.3755Z" fill="white"/>
<path d="M119.731 35.3167V30.5249H118.188V30.0986H121.714V30.5249H120.171V35.3167H119.73H119.731Z" fill="white"/>
<path d="M127.189 34.6073C126.675 35.1193 126.043 35.3753 125.293 35.3753C124.543 35.3753 123.912 35.1193 123.397 34.6073C122.883 34.0953 122.626 33.4623 122.626 32.7071C122.626 31.9519 122.883 31.3196 123.397 30.8076C123.912 30.2956 124.543 30.0396 125.293 30.0396C126.043 30.0396 126.675 30.2956 127.189 30.8076C127.704 31.3196 127.961 31.9532 127.961 32.7071C127.961 33.4611 127.704 34.0953 127.189 34.6073ZM125.293 34.9491C125.92 34.9491 126.447 34.7347 126.873 34.3059C127.299 33.8771 127.512 33.3446 127.512 32.7071C127.512 32.0697 127.299 31.5372 126.873 31.1084C126.447 30.6796 125.92 30.4652 125.293 30.4652C124.666 30.4652 124.147 30.6796 123.721 31.1084C123.295 31.5372 123.082 32.0703 123.082 32.7071C123.082 33.3439 123.295 33.8771 123.721 34.3059C124.147 34.7347 124.671 34.9491 125.293 34.9491Z" fill="white"/>
<path d="M129.827 35.3165V30.0396L132.311 32.9427L134.787 30.0396V35.3165H134.346V31.1493L132.311 33.575L130.268 31.1493V35.3165H129.827Z" fill="white"/>
<path d="M136.345 35.3165L138.843 30.0396L141.342 35.3165H140.872L140.137 33.751H137.558L136.823 35.3165H136.345H136.345ZM137.748 33.3395H139.945L138.85 31.0021L137.748 33.3395Z" fill="white"/>
<path d="M143.156 35.3167V30.5249H141.613V30.0986H145.14V30.5249H143.596V35.3167H143.156H143.156Z" fill="white"/>
<path d="M150.615 34.6073C150.101 35.1193 149.469 35.3753 148.719 35.3753C147.969 35.3753 147.338 35.1193 146.823 34.6073C146.309 34.0953 146.052 33.4623 146.052 32.7071C146.052 31.9519 146.309 31.3196 146.823 30.8076C147.338 30.2956 147.969 30.0396 148.719 30.0396C149.469 30.0396 150.101 30.2956 150.615 30.8076C151.13 31.3196 151.387 31.9532 151.387 32.7071C151.387 33.4611 151.13 34.0953 150.615 34.6073ZM148.719 34.9491C149.346 34.9491 149.873 34.7347 150.299 34.3059C150.725 33.8771 150.938 33.3446 150.938 32.7071C150.938 32.0697 150.725 31.5372 150.299 31.1084C149.873 30.6796 149.346 30.4652 148.719 30.4652C148.092 30.4652 147.573 30.6796 147.147 31.1084C146.721 31.5372 146.508 32.0703 146.508 32.7071C146.508 33.3439 146.721 33.8771 147.147 34.3059C147.573 34.7347 148.097 34.9491 148.719 34.9491Z" fill="white"/>
<path d="M152.371 35.3165L154.87 30.0396L157.368 35.3165H156.89L154.87 30.9874L152.841 35.3165H152.371Z" fill="white"/>
<path d="M162.9 34.6073C162.386 35.1193 161.754 35.3753 161.004 35.3753C160.254 35.3753 159.623 35.1193 159.108 34.6073C158.594 34.0953 158.337 33.4623 158.337 32.7071C158.337 31.9519 158.594 31.3196 159.108 30.8076C159.623 30.2956 160.254 30.0396 161.004 30.0396C161.754 30.0396 162.386 30.2956 162.9 30.8076C163.415 31.3196 163.672 31.9532 163.672 32.7071C163.672 33.4611 163.415 34.0953 162.9 34.6073ZM161.004 34.9491C161.631 34.9491 162.158 34.7347 162.584 34.3059C163.01 33.8771 163.223 33.3446 163.223 32.7071C163.223 32.0697 163.01 31.5372 162.584 31.1084C162.158 30.6796 161.631 30.4652 161.004 30.4652C160.377 30.4652 159.858 30.6796 159.432 31.1084C159.006 31.5372 158.793 32.0703 158.793 32.7071C158.793 33.3439 159.006 33.8771 159.432 34.3059C159.858 34.7347 160.382 34.9491 161.004 34.9491Z" fill="white"/>
<path d="M168.375 30.0986V30.5249H165.979V35.3167H165.539V30.0986H168.375Z" fill="white"/>
<path d="M173.849 34.6073C173.335 35.1193 172.703 35.3753 171.953 35.3753C171.203 35.3753 170.572 35.1193 170.057 34.6073C169.543 34.0953 169.286 33.4623 169.286 32.7071C169.286 31.9519 169.543 31.3196 170.057 30.8076C170.572 30.2956 171.203 30.0396 171.953 30.0396C172.703 30.0396 173.335 30.2956 173.849 30.8076C174.363 31.3196 174.621 31.9532 174.621 32.7071C174.621 33.4611 174.363 34.0953 173.849 34.6073ZM171.953 34.9491C172.58 34.9491 173.107 34.7347 173.533 34.3059C173.959 33.8771 174.172 33.3446 174.172 32.7071C174.172 32.0697 173.959 31.5372 173.533 31.1084C173.107 30.6796 172.58 30.4652 171.953 30.4652C171.326 30.4652 170.807 30.6796 170.381 31.1084C169.955 31.5372 169.742 32.0703 169.742 32.7071C169.742 33.3439 169.955 33.8771 170.381 34.3059C170.807 34.7347 171.331 34.9491 171.953 34.9491Z" fill="white"/>
<path d="M176.487 35.3167V30.0986H178.155C178.631 30.0986 178.998 30.226 179.258 30.4807C179.518 30.7354 179.647 31.0516 179.647 31.4286C179.647 31.9771 179.425 32.3572 178.979 32.5678C179.283 32.6561 179.528 32.8091 179.717 33.0273C179.906 33.2456 180 33.5336 180 33.8907C180 34.3464 179.843 34.6984 179.53 34.9455C179.216 35.1931 178.795 35.3167 178.266 35.3167H176.488H176.487ZM176.928 32.4353H178.17C178.493 32.4353 178.746 32.3457 178.927 32.1672C179.108 31.9886 179.199 31.7569 179.199 31.4727C179.199 31.1886 179.105 30.9691 178.92 30.7854C178.734 30.6017 178.482 30.5095 178.163 30.5095H176.929V32.4353H176.928ZM176.928 34.9051H178.316C178.708 34.9051 179.012 34.8143 179.228 34.6331C179.443 34.452 179.551 34.1992 179.551 33.876C179.551 33.5528 179.446 33.3025 179.239 33.1118C179.031 32.9205 178.72 32.8251 178.309 32.8251H176.927V34.9051H176.928Z" fill="white"/>
<path d="M61.5085 13.098C61.1752 11.3751 60.1514 9.86082 58.7821 8.79199C59.1001 9.08064 59.3976 9.38977 59.6689 9.71937C62.357 12.9828 61.3345 17.0296 59.1641 20.2521C50.4825 32.7637 25.9905 41.3598 11.2001 38.808C6.1625 37.9632 0.775508 35.1951 1.49727 29.2756C0.954029 31.9432 1.90806 34.5577 3.97161 36.3177C7.69304 39.4743 13.4428 40.2148 18.499 40.1245C19.558 40.9418 20.7033 41.6766 21.9344 42.3108C21.9453 42.3172 21.9555 42.323 21.9671 42.3275C27.4615 45.1474 33.5793 45.4757 39.0296 43.7259C39.1332 43.6926 39.2363 43.6587 39.3393 43.6241C39.5127 43.5742 39.6854 43.5147 39.8563 43.443C42.147 42.6084 44.3046 41.4007 46.2306 39.8519C46.2434 39.8436 46.2555 39.834 46.2664 39.8231C48.6173 37.9242 50.62 35.5164 52.0923 32.6575C52.0987 32.6466 52.1045 32.6364 52.109 32.6248C52.1582 32.5282 52.2069 32.4309 52.2555 32.3343C52.2613 32.3234 52.2677 32.3119 52.2734 32.301C52.2785 32.2908 52.283 32.2799 52.2869 32.2696C53.1513 30.5096 53.7624 28.6894 54.1361 26.8506C58.3246 23.2467 62.4191 18.1868 61.5073 13.0993L61.5085 13.098ZM38.0199 38.1283C38.9656 37.1894 39.8582 36.1449 40.6887 35.0172C42.2929 34.326 43.8676 33.5682 45.4052 32.7413C45.9663 32.8751 46.5019 32.9871 47.0074 33.0754C45.7078 35.0716 44.1837 36.8201 42.5072 38.2896C42.2142 38.5463 41.9166 38.7939 41.6153 39.0339C40.5045 38.8151 39.2983 38.5117 38.0186 38.1283H38.0199ZM28.5544 38.9155C30.4337 38.5104 32.2944 38.0163 34.1302 37.4461C34.2006 37.4243 34.2703 37.4006 34.3407 37.3782C35.2928 37.7347 36.2219 38.0579 37.117 38.3421C36.609 38.8125 36.0869 39.2535 35.5519 39.6605C34.3976 40.5386 33.1864 41.2606 31.9342 41.795C31.1561 41.5031 30.3608 41.1876 29.5526 40.849C28.8814 40.5681 28.2012 40.2711 27.5146 39.9588C27.8583 39.6381 28.2057 39.2893 28.5551 38.9162L28.5544 38.9155ZM27.0578 39.7488C26.7871 39.624 26.5152 39.496 26.2426 39.3661C26.7443 39.2791 27.2453 39.1843 27.7444 39.0845C27.514 39.3181 27.2849 39.5408 27.0584 39.7488H27.0578ZM35.065 37.1446C36.6704 36.6166 38.2586 36.0297 39.8211 35.3827C39.0917 36.3145 38.3187 37.1824 37.5074 37.9702C36.7178 37.7245 35.9019 37.448 35.065 37.144V37.1446ZM35.8373 40.0343C36.4529 39.5658 37.0531 39.0538 37.6334 38.5027C38.8664 38.8797 40.0367 39.1843 41.1245 39.4128C39.1179 40.9207 36.9392 42.0503 34.7003 42.755C34.0073 42.5348 33.2952 42.2923 32.5676 42.0279C33.6963 41.5025 34.7905 40.8311 35.8373 40.0336V40.0343ZM46.0252 32.4021C46.7367 32.0085 47.4399 31.5989 48.1342 31.1746C47.8622 31.6802 47.5762 32.173 47.278 32.6517C46.882 32.5839 46.4622 32.4994 46.0258 32.4021H46.0252ZM20.6221 40.7805C20.3565 40.5559 20.1057 40.321 19.8664 40.0797C20.1339 40.0676 20.3981 40.0522 20.6592 40.0362C20.7379 40.4157 20.8454 40.7645 20.9855 41.0762C20.862 40.9796 20.7404 40.881 20.6221 40.7805ZM22.1686 41.8935C21.6458 41.475 21.3042 40.8305 21.1212 40.0048C21.2242 39.9978 21.3285 39.9901 21.4302 39.9824C22.772 39.873 24.108 39.7098 25.4357 39.4992C25.8504 39.7008 26.2637 39.8992 26.6739 40.09C24.9846 41.5473 23.4279 42.25 22.1686 41.8935ZM23.5251 42.3812C24.634 42.1572 25.8568 41.4263 27.1339 40.3025C27.889 40.6481 28.6357 40.9751 29.3709 41.283C30.0184 41.5537 30.657 41.8103 31.286 42.0522C28.9447 42.922 26.473 43.1358 23.9756 42.5041C23.8252 42.4663 23.6755 42.4247 23.5251 42.3812ZM25.4044 43.2504C27.6477 43.5249 29.8521 43.1652 31.945 42.3012C32.8498 42.6372 33.7315 42.9419 34.5845 43.2126C34.6088 43.2254 34.6344 43.2337 34.6619 43.2369L34.7048 43.2504C35.239 43.4187 36.0414 43.6657 36.9513 43.7726C36.9788 43.7758 37.007 43.779 37.0351 43.7822C33.2619 44.6398 29.2468 44.5067 25.4037 43.2504H25.4044ZM39.1979 43.1729C38.4646 43.3803 37.7038 43.386 37.0044 43.3041C36.4426 43.2382 35.9192 43.114 35.479 42.9911C37.6673 42.2212 39.7878 41.0551 41.7381 39.5351C43.1068 39.7943 44.3328 39.9248 45.3764 39.9178C43.4945 41.3335 41.4047 42.4286 39.1979 43.1729ZM46.0098 39.4224C44.9675 39.496 43.6878 39.4 42.2251 39.1453C42.4247 38.9815 42.6218 38.8138 42.8176 38.6423C44.5746 37.1024 46.1679 35.2623 47.5154 33.1561C49.181 33.405 50.4946 33.3813 51.3431 33.0562C49.9469 35.5702 48.1233 37.7072 46.0098 39.4224ZM51.8364 32.116C51.4115 32.87 49.9546 33.0472 47.7822 32.7304C48.1374 32.1525 48.4739 31.5547 48.7907 30.9384C48.8342 30.8546 48.8751 30.7701 48.9167 30.6856C49.4401 30.3534 49.959 30.0142 50.4709 29.6635C51.4333 29.0049 52.4846 28.2254 53.5448 27.3479C53.1692 28.9659 52.6036 30.5653 51.8364 32.116Z" fill="white"/>
<path d="M15.8162 27.804C23.0262 26.2788 30.0519 23.9594 36.8606 21.1568C41.9622 19.0371 46.9717 16.637 51.6369 13.6622C53.7069 12.338 61.7288 7.01441 58.2294 4.34299C56.4845 3.18712 53.4068 3.41433 51.3701 3.58969C50.4551 3.6825 49.5459 3.8137 48.6411 3.96282C50.4596 3.77594 52.2953 3.65497 54.1202 3.7497C56.9286 3.90586 60.2482 4.711 57.5697 7.95523C56.2401 9.42214 54.3832 10.891 52.1853 12.3252C50.13 8.23556 46.8079 4.73596 42.4268 2.48311H42.4255C36.9272 -0.345114 30.8037 -0.675361 25.3476 1.07572C25.3265 1.08212 25.306 1.08916 25.2849 1.0962C25.2267 1.08788 25.1646 1.10196 25.1128 1.13908C25.1038 1.14548 25.0949 1.15316 25.0872 1.16084C22.4663 2.03702 20.0054 3.39705 17.8504 5.19229C17.8446 5.19421 17.8395 5.19677 17.8344 5.19933C17.7928 5.21917 17.7589 5.25053 17.7365 5.28765C15.639 7.05793 13.8365 9.24486 12.464 11.8043C12.4602 11.81 12.457 11.8158 12.4544 11.8216C12.4531 11.8248 12.4519 11.8273 12.4499 11.8305C12.3943 11.9342 12.3392 12.0385 12.2848 12.1435C12.2784 12.1544 12.2727 12.1646 12.2682 12.1761C10.7901 15.0575 9.99735 18.1091 9.82906 21.1472C9.82266 21.1734 9.82138 21.201 9.82458 21.2285C9.70813 23.4762 9.93528 25.715 10.4785 27.8699C7.40015 28.3326 4.40752 28.4926 2.19424 27.9493C1.42961 27.7227 0.594592 27.2933 0.528047 26.4273C0.444865 23.8705 5.76211 20.2563 7.80198 18.8668C5.67125 20.1097 -2.39612 24.9668 0.69825 27.8456C3.56547 30.1464 12.2586 28.5298 15.8156 27.8046L15.8162 27.804ZM13.157 25.0513C13.8308 25.6644 14.5775 26.2923 15.3869 26.9278C14.6798 27.0878 13.9568 27.2427 13.2274 27.3867C13.1653 26.618 13.1397 25.8391 13.1576 25.0513H13.157ZM19.8224 8.53124C20.7387 9.57191 21.8719 10.6593 23.1881 11.7588C22.0946 13.0638 21.1015 14.4456 20.223 15.8735C19.5914 16.9007 19.0181 17.9529 18.5081 19.0192C17.9694 18.6102 17.4626 18.2083 16.9904 17.8153C16.2673 17.2143 15.6249 16.6364 15.0734 16.0905C15.3523 15.4152 15.662 14.7445 16.0037 14.0795C17.0684 12.0072 18.3629 10.1492 19.823 8.53188L19.8224 8.53124ZM47.0133 15.3333C47.0114 15.2808 47.0101 15.2284 47.0082 15.1759C47.0792 15.1931 47.1489 15.2079 47.22 15.2245C47.1515 15.261 47.0824 15.2975 47.0139 15.334L47.0133 15.3333ZM29.8119 6.46016C30.0173 6.63296 30.2253 6.80512 30.4377 6.97601C31.4826 7.81891 32.6126 8.63685 33.8174 9.4183C32.4686 11.058 31.1057 12.9301 29.7703 15.0056C29.6398 15.2085 29.5099 15.4127 29.3806 15.6175C27.3497 14.3515 25.5159 13.0485 23.9316 11.7614C23.9066 11.7409 23.8817 11.7204 23.8567 11.7006C25.6048 9.67687 27.5455 7.97315 29.5905 6.60672C29.6641 6.55744 29.7377 6.5088 29.8113 6.4608L29.8119 6.46016ZM29.1305 16.0168C27.6428 18.4092 26.2652 20.913 25.0667 23.3866C22.7459 22.008 20.6606 20.6256 18.892 19.3091C19.4046 18.2287 19.9843 17.1618 20.6242 16.1212C21.4931 14.7087 22.4733 13.3448 23.5502 12.0596C23.5777 12.082 23.6053 12.1044 23.6334 12.1275C25.2318 13.4267 27.0823 14.7413 29.1292 16.0181L29.1305 16.0168ZM25.2702 24.0522C25.3342 24.09 25.4001 24.1277 25.4647 24.1649C25.3674 24.1962 25.2702 24.2276 25.1736 24.2583C25.2062 24.1892 25.2375 24.1207 25.2702 24.0522ZM25.4743 23.6273C26.6689 21.1581 28.0453 18.6569 29.5317 16.2652C30.9496 17.1343 32.4584 17.9849 34.0401 18.7983C34.9244 19.2534 35.8042 19.6809 36.6763 20.0835C32.9677 21.5933 29.293 22.9168 26.0649 23.9703C25.8665 23.8557 25.6695 23.7412 25.4743 23.6266V23.6273ZM34.2564 18.3785C32.6862 17.5708 31.1883 16.7273 29.7818 15.8645C29.9098 15.6623 30.0378 15.46 30.167 15.2597C31.5037 13.1809 32.8679 11.3095 34.2161 9.67367C35.3205 10.3726 36.4863 11.0407 37.7046 11.6673C38.9229 12.2939 40.1437 12.8533 41.355 13.3448C40.8911 15.0888 40.2909 16.9436 39.5608 18.8732C38.8007 19.2022 38.0373 19.5241 37.274 19.839C36.2771 19.3859 35.2693 18.9001 34.2551 18.3791L34.2564 18.3785ZM41.7959 13.5208C43.1325 14.0469 44.4551 14.4891 45.7496 14.8495C46.0119 14.9224 46.273 14.9915 46.5321 15.0581C46.5366 15.1631 46.5404 15.2687 46.5436 15.3743C46.5455 15.4415 46.5462 15.5093 46.5475 15.5765C44.5114 16.6325 42.3551 17.6495 40.1642 18.6102C40.8201 16.8393 41.3646 15.1336 41.7959 13.5208ZM46.9851 14.6856C46.8578 12.37 46.4374 10.1588 45.7553 8.11971C46.6492 8.33796 47.4977 8.4762 48.2764 8.53252C48.2847 8.53316 48.293 8.53316 48.3013 8.53252C49.2362 10.0135 49.9522 11.659 50.4429 13.4126C49.6137 13.9093 48.7479 14.4002 47.8541 14.884C47.5661 14.8219 47.2775 14.7567 46.9851 14.6856ZM46.5072 14.5647C46.2973 14.5103 46.0868 14.4539 45.8756 14.3951C44.5805 14.0347 43.256 13.5899 41.9168 13.0619C42.1542 12.139 42.3538 11.2475 42.5163 10.3918C42.7288 9.27174 42.8772 8.21316 42.9623 7.22625C43.4985 7.43618 44.0277 7.62178 44.546 7.78307C44.7693 7.85219 44.9907 7.91683 45.2089 7.97699C45.9223 10.0148 46.3664 12.235 46.5072 14.5647ZM42.0524 10.3047C41.8957 11.1316 41.7031 11.9937 41.4753 12.8846C40.296 12.404 39.1072 11.858 37.9209 11.2481C36.7339 10.6375 35.5982 9.98791 34.5206 9.30758C35.1132 8.60356 35.7018 7.94563 36.2828 7.33634C37.098 6.48192 37.8978 5.72478 38.6721 5.07069C39.2659 5.44061 39.8929 5.79646 40.5488 6.13375C41.204 6.4704 41.8586 6.77376 42.5048 7.04129C42.4236 8.05187 42.2732 9.14438 42.0524 10.3047ZM35.9418 7.01185C35.3409 7.64162 34.7324 8.3226 34.1201 9.05221C32.912 8.27076 31.7795 7.45154 30.7327 6.60736C30.5618 6.46976 30.3935 6.33151 30.2272 6.19263C32.2031 4.95228 34.266 4.0217 36.3385 3.41561C36.5151 3.55833 36.6962 3.70106 36.883 3.8425C37.3149 4.17019 37.7737 4.49211 38.2562 4.80572C37.503 5.44893 36.7282 6.18623 35.9411 7.01121L35.9418 7.01185ZM29.8509 5.87326C28.7984 4.96828 27.845 4.03962 27.0023 3.10328C27.2832 2.96824 27.5666 2.84088 27.8514 2.71991C29.8823 1.85589 31.9913 1.34516 34.0894 1.22356C34.0939 1.22996 34.099 1.237 34.1041 1.2434C34.6038 1.84501 35.2091 2.45431 35.9053 3.05336C33.8507 3.68506 31.8083 4.62908 29.8509 5.87326ZM29.4382 6.14079C29.4018 6.16511 29.3646 6.18943 29.3282 6.21439C27.2461 7.60578 25.2708 9.34022 23.4933 11.3991C22.1765 10.299 21.0484 9.21542 20.143 8.18244C22.0606 6.13631 24.2464 4.49659 26.5633 3.32025C27.4131 4.27323 28.3761 5.21917 29.4389 6.14079H29.4382ZM16.6896 18.1756C17.1913 18.5923 17.7301 19.0192 18.304 19.4531C17.1907 21.873 16.4068 24.3582 16.012 26.7832C16.0005 26.7857 15.989 26.7889 15.9775 26.7915C14.9358 25.987 13.9971 25.1953 13.1781 24.4318C13.1973 24.0381 13.2261 23.6433 13.2658 23.2464C13.4852 21.0288 14.0195 18.7721 14.8865 16.5551C15.4157 17.0761 16.0191 17.6182 16.6903 18.1763L16.6896 18.1756ZM16.5092 26.6654C16.9014 24.3754 17.645 22.0317 18.6899 19.743C20.4635 21.0595 22.5476 22.4381 24.8619 23.8116C24.7602 24.0253 24.6604 24.2385 24.5619 24.4516C23.2437 24.8657 22.019 25.2279 20.9217 25.5313C19.6528 25.8737 18.1402 26.2756 16.5092 26.6654ZM51.7854 12.5832C51.4834 12.7765 51.1756 12.9685 50.862 13.1598C50.2164 10.9095 49.2035 8.83589 47.8457 7.05025C49.4569 8.69381 50.7776 10.5658 51.7854 12.5832ZM47.9731 8.03331C46.9691 7.93219 45.8571 7.6973 44.6848 7.33378C44.1346 7.16289 43.5708 6.96321 43.0001 6.73536C43.0852 5.44509 43.0557 4.28667 42.9118 3.28697C44.9625 4.47995 46.6588 6.10495 47.9731 8.03331ZM42.032 2.81272C42.087 2.84024 42.142 2.86776 42.1971 2.89592H42.2015V2.8972H42.2073V2.89848L42.2118 2.90232H42.2124V2.9036H42.2188V2.90488H42.2258C42.2809 2.93432 42.3353 2.96312 42.3897 2.99192V2.99512C42.5707 3.99994 42.6213 5.19293 42.5413 6.54272L42.5394 6.54784C41.9526 6.30015 41.3588 6.02303 40.7644 5.7171C40.17 5.41117 39.5986 5.08925 39.0553 4.7558C40.1054 3.90586 41.1048 3.25305 42.0269 2.81528L42.0307 2.81336L42.032 2.81272ZM38.6356 4.49083C38.1179 4.15931 37.6284 3.8169 37.1684 3.46809C36.1894 2.72567 35.3518 1.95702 34.6864 1.20116C37.0187 1.14868 39.3273 1.58261 41.49 2.55607C40.5942 3.02072 39.6351 3.67097 38.6356 4.49083ZM35.5585 0.73267C32.9178 0.655868 30.231 1.19796 27.6665 2.2879C27.335 2.42935 27.0048 2.57911 26.6779 2.73847C26.3132 2.31799 25.9708 1.89622 25.6515 1.47509C28.8169 0.486264 32.2063 0.210418 35.5579 0.73267H35.5585ZM25.1787 1.62869C25.5082 2.07158 25.864 2.51447 26.2434 2.95672C23.9329 4.14523 21.7529 5.78686 19.8352 7.82403C19.1499 7.00353 18.6105 6.21887 18.2356 5.48606C20.31 3.77594 22.6685 2.47543 25.1787 1.62869ZM12.8671 12.0481C14.175 9.60519 15.8815 7.5085 17.8657 5.79774C18.2605 6.54528 18.8153 7.34274 19.5127 8.17219C18.0135 9.82599 16.6845 11.7268 15.5929 13.8478C15.5865 13.8581 15.5808 13.8683 15.5769 13.8792C15.2634 14.4904 14.9761 15.1067 14.7144 15.7269C13.1781 14.1282 12.4755 12.8302 12.8671 12.0481ZM12.3783 13.0184C12.6067 13.8978 13.3521 14.9807 14.5237 16.1909C13.5959 18.511 13.0271 20.8771 12.7967 23.201C12.7705 23.4698 12.7481 23.7386 12.7308 24.0061C11.6827 22.9853 10.8592 22.0208 10.3006 21.1466C10.4561 18.4009 11.1337 15.6444 12.3789 13.0184H12.3783ZM10.2706 21.9344C10.8804 22.7748 11.6994 23.681 12.6988 24.6276C12.6604 25.5908 12.6816 26.5438 12.759 27.4795C12.1556 27.5947 11.5496 27.7022 10.945 27.7982C10.4606 25.8935 10.2296 23.9204 10.2706 21.9344Z" fill="white"/>
<path d="M15.1108 31.3932C14.5131 33.3939 14.478 33.511 14.1612 34.6182C13.7952 33.6019 13.4279 32.5881 13.06 31.5756C12.7913 31.5948 12.5257 31.6121 12.2615 31.6274C12.8066 33.1225 13.3499 34.6214 13.8912 36.1254C14.1407 36.1126 14.3922 36.0979 14.6456 36.0819C15.2227 34.1017 15.2458 34.0224 15.6291 32.7603C16.0053 33.8073 16.3809 34.8563 16.7552 35.9078C17.0323 35.8797 17.3119 35.8502 17.5928 35.8189C17.056 34.3065 16.5172 32.7993 15.9765 31.2959C15.686 31.3305 15.3981 31.3631 15.1114 31.3932H15.1108Z" fill="white"/>
<path d="M21.6939 35.2286C21.9921 35.1768 22.2922 35.123 22.5929 35.0667C22.0619 33.5441 21.5289 32.0254 20.9939 30.5117C20.6919 30.57 20.3918 30.6256 20.0917 30.6794C20.3003 31.2676 20.5089 31.857 20.7169 32.4471C19.9868 32.5764 19.2637 32.6929 18.5497 32.7979C18.3404 32.2097 18.1312 31.6221 17.922 31.0359C17.6276 31.0794 17.3352 31.121 17.0441 31.1607C17.5835 32.666 18.121 34.1758 18.6565 35.6901C18.9464 35.6523 19.2382 35.6126 19.5318 35.571C19.3041 34.9259 19.0763 34.2808 18.8485 33.6369C19.5626 33.5339 20.285 33.4174 21.0144 33.2887C21.2416 33.9345 21.4687 34.5809 21.6946 35.2286H21.6939Z" fill="white"/>
<path d="M25.8447 34.3888C27.4552 33.9952 27.1481 32.4143 26.2645 31.9369C26.0002 31.7929 25.7794 31.7826 25.6963 31.7794C26.3195 31.3122 26.0508 29.9708 24.8485 29.8101C24.4876 29.7615 24.1612 29.8357 24.0544 29.8607C23.4062 30.0124 22.7619 30.1544 22.1207 30.2876C22.6544 31.8038 23.1861 33.3244 23.7159 34.8496C24.421 34.7075 25.1306 34.5533 25.8441 34.3888H25.8447ZM25.9298 33.3801C25.8031 33.5939 25.5958 33.6451 25.5273 33.6617C25.1402 33.7513 24.7538 33.8377 24.3686 33.9203C24.2188 33.4883 24.0685 33.0563 23.9181 32.6249C24.2847 32.5455 24.6514 32.463 25.0199 32.3779C25.7807 32.2108 26.1941 32.9347 25.9298 33.3808V33.3801ZM23.2936 30.8354C23.6193 30.7637 23.9469 30.6901 24.2745 30.614C24.8868 30.4796 25.2951 31.0434 25.0411 31.4569C24.9566 31.5938 24.8209 31.686 24.6373 31.7314C24.318 31.805 23.9994 31.8767 23.6813 31.9458C23.5521 31.5753 23.4228 31.2053 23.293 30.8354H23.2936Z" fill="white"/>
<path d="M31.6716 32.8084C31.5801 32.5383 31.4893 32.2688 31.3978 31.9988C30.5403 32.2663 29.6816 32.5191 28.8249 32.7565C28.6931 32.3706 28.5613 31.9853 28.4288 31.6007C29.1007 31.4138 29.7725 31.2179 30.445 31.0125C30.3586 30.7597 30.2729 30.5075 30.1865 30.2547C29.514 30.4608 28.8415 30.6579 28.169 30.8455C28.0455 30.487 27.9227 30.1286 27.7992 29.7709C28.6406 29.5353 29.4839 29.2845 30.3253 29.0195C30.2332 28.7507 30.1417 28.4825 30.0496 28.2144C28.8953 28.5792 27.739 28.9158 26.5873 29.2249C27.1158 30.7501 27.6431 32.2804 28.1677 33.8151C29.3329 33.5086 30.5032 33.1732 31.671 32.8097L31.6716 32.8084Z" fill="white"/>
<path d="M34.2128 27.2539C33.8161 27.0887 33.3567 27.0964 32.8467 27.2744C32.2235 27.4964 31.5977 27.7102 30.9713 27.9163C31.4954 29.4504 32.0181 30.9896 32.5383 32.5327C32.8487 32.4322 33.159 32.3298 33.4693 32.2249C33.2959 31.7103 33.1232 31.1964 32.9498 30.6824C33.2665 30.5749 33.5832 30.4655 33.8993 30.3541C35.7575 29.6699 35.2801 27.6948 34.2128 27.2532V27.2539ZM32.6765 29.8767C32.5108 29.3864 32.3445 28.8968 32.1781 28.4072C32.4705 28.3073 32.7623 28.2062 33.0534 28.1025C33.9575 27.7934 34.3338 28.6203 34.081 29.1298C33.9806 29.3314 33.8027 29.4811 33.5512 29.5733C33.2601 29.6757 32.9683 29.7768 32.6765 29.876V29.8767Z" fill="white"/>
<path d="M38.9119 26.1676C38.9926 25.8968 39.1001 25.5365 39.1807 25.2651C38.5946 25.0968 38.0001 25.1403 37.416 25.3912C34.9691 26.4754 35.1873 29.536 37.1997 30.2752C38.21 30.6438 39.6305 30.3072 40.3971 28.9401C40.1834 28.7987 39.8993 28.6099 39.6862 28.4691C38.7059 30.0819 36.9943 29.5513 36.6667 28.318C36.316 26.9989 37.5753 25.7976 38.9119 26.1676Z" fill="white"/>
<path d="M42.1118 28.7234C42.7459 26.2927 42.879 25.7838 43.2187 24.3688C43.5752 25.4549 43.9303 26.5429 44.2854 27.6335C44.558 27.4908 44.8267 27.3474 45.091 27.204C44.5823 25.636 44.0717 24.0731 43.5598 22.5146C43.2866 22.6638 43.0095 22.8129 42.728 22.9614C42.3069 24.6698 41.951 26.0778 41.66 27.1855C41.3132 26.1307 40.9664 25.0785 40.6184 24.0283C40.3317 24.1672 40.0431 24.3048 39.7539 24.4405C40.2696 25.9918 40.7834 27.5477 41.2953 29.1087C41.5692 28.9814 41.8411 28.8533 42.1124 28.7234H42.1118Z" fill="white"/>
<path d="M46.6074 26.3531C46.6356 25.7688 46.6734 24.9893 46.7015 24.4043C46.7457 24.3819 46.8 24.3544 46.8871 24.3025C47.0995 24.1745 47.3081 24.0465 47.5141 23.9179C47.685 24.4452 47.8552 24.9733 48.0254 25.5019C48.2628 25.3547 48.4957 25.2069 48.7247 25.0597C48.2193 23.4852 47.7118 21.9159 47.2025 20.3511C46.7117 20.6692 46.2011 20.9872 45.6713 21.3053C44.2777 22.1655 44.5247 24.3128 45.7084 24.5732C45.7929 24.5918 45.8627 24.5956 45.9042 24.5976C45.8531 25.2734 45.7871 26.1752 45.7328 26.8504C46.0297 26.6847 46.3208 26.5189 46.6074 26.3531ZM45.5907 22.6065C45.6573 22.3882 45.7948 22.2135 45.9983 22.0874C46.2594 21.93 46.516 21.7732 46.7681 21.6157C46.9306 22.1156 47.0931 22.6167 47.2556 23.1179C47.0067 23.2727 46.7527 23.4283 46.4942 23.5831C45.7967 23.9876 45.4243 23.1492 45.5907 22.6065Z" fill="white"/>
<path d="M50.0162 19.0166C52.337 18.0668 53.9968 17.1874 55.3968 16.1909C54.6079 18.077 53.3985 20.0048 51.5954 22.2211C51.4636 22.3824 51.3312 22.5431 51.1993 22.7037C52.1169 21.7648 54.9169 18.854 55.9765 15.2559C54.9425 16.1384 53.5822 17.101 50.0162 19.0172V19.0166Z" fill="white"/>
<path d="M54.6418 17.1626C54.0173 17.489 54.0147 17.5159 49.9266 19.4756C51.4437 18.9969 52.662 18.5175 54.0013 17.8749C52.9922 19.7067 51.9608 21.1268 50.9069 22.5291C52.4061 20.9086 53.4471 19.4506 54.389 17.6676C54.4645 17.5159 54.5656 17.3143 54.6418 17.1626Z" fill="white"/>
<path d="M49.8326 19.9316C50.6075 19.785 51.2512 19.6263 52.2052 19.3447C52.3268 19.3063 52.4887 19.2557 52.6103 19.2173C51.9947 20.2548 51.5008 21.0119 50.6126 22.3598C51.5891 21.2359 52.3255 20.1805 53.1542 18.7188C51.3062 19.3639 50.8673 19.5117 49.8326 19.9316Z" fill="white"/>
<path d="M49.7434 20.4129C50.2547 20.4116 50.6731 20.379 51.3431 20.2855C50.6143 21.586 50.5707 21.6609 50.3071 22.1672C50.7979 21.5483 51.1857 20.9524 51.7372 19.9668C50.8913 20.1089 50.4025 20.2062 49.7434 20.4129Z" fill="white"/>
<path d="M50.6565 20.8203C50.2368 20.8702 49.9988 20.9131 49.6974 21.0354C49.9034 21.0699 50.0775 21.0763 50.3392 21.0584C50.1651 21.3669 50.0608 21.5768 49.954 21.8328C50.1888 21.5755 50.3596 21.3298 50.6565 20.8203Z" fill="white"/>
</svg>
