<svg width="262" height="66" viewBox="0 0 262 66" fill="none" xmlns="http://www.w3.org/2000/svg">
<path d="M108.168 35.1216V14.0615H112.86V24.9441L125.996 13.8276V34.8868H121.304V24.0051L108.167 35.1216H108.168Z" fill="#247CB8"/>
<path d="M130.453 34.8869V14.0615H135.145V22.2156H143.472V14.0615H148.164V34.8869H143.472V26.7328H135.145V34.8869H130.453Z" fill="#247CB8"/>
<path d="M152.622 34.8869V14.0615H160.451C162.152 14.0615 163.608 14.668 164.821 15.88C166.033 17.0929 166.639 18.5489 166.639 20.2509C166.639 21.6585 166.15 22.8519 165.173 23.8291C166.073 24.3182 166.786 24.9833 167.313 25.8236C167.841 26.6648 168.105 27.6225 168.105 28.6975C168.105 30.4181 167.494 31.8798 166.272 33.0824C165.05 34.2851 163.56 34.886 161.8 34.886H152.622V34.8869ZM157.314 22.4802H159.924C160.549 22.4802 161.067 22.2845 161.478 21.8933C161.888 21.502 162.094 21.0129 162.094 20.427C162.094 19.841 161.888 19.3473 161.478 18.9458C161.067 18.5452 160.549 18.3449 159.924 18.3449H157.314V22.4811V22.4802ZM157.314 30.5756H161.361C161.986 30.5756 162.505 30.3799 162.915 29.9896C163.326 29.5983 163.531 29.1093 163.531 28.5233C163.531 27.9373 163.326 27.4436 162.915 27.0421C162.505 26.6415 161.987 26.4412 161.361 26.4412H157.314V30.5765V30.5756Z" fill="#247CB8"/>
<path d="M171.301 34.8869V14.0615H184.204V18.6961H175.993V22.2156H182.445V26.7328H175.993V30.2523H184.204V34.886H171.301V34.8869Z" fill="#247CB8"/>
<path d="M187.84 34.8869V14.0615H194.702C196.715 14.0615 198.406 14.7462 199.775 16.1147C201.144 17.4832 201.828 19.1554 201.828 21.1303C201.828 23.1053 201.144 24.7774 199.775 26.1459C198.407 27.5144 196.716 28.1991 194.702 28.1991H192.532V34.8869H187.84ZM192.532 23.8291H194.644C195.387 23.8291 196.012 23.5608 196.52 23.0224C197.029 22.4848 197.283 21.8542 197.283 21.1303C197.283 20.4065 197.029 19.7814 196.52 19.2532C196.012 18.725 195.387 18.4614 194.644 18.4614H192.532V23.8291Z" fill="#247CB8"/>
<path d="M214.318 35.1216C211.387 35.1216 208.879 34.0801 206.798 31.9981C204.716 29.916 203.675 27.4082 203.675 24.4747C203.675 21.5411 204.716 19.0343 206.798 16.9522C208.879 14.8701 211.387 13.8286 214.318 13.8286C216.078 13.8286 217.72 14.2338 219.245 15.0453C220.77 15.8567 222.031 16.9568 223.028 18.3449L219.479 21.2486C218.931 20.3683 218.208 19.6649 217.309 19.1367C216.409 18.6085 215.413 18.3449 214.318 18.3449C212.636 18.3449 211.229 18.9411 210.095 20.1345C208.96 21.3269 208.394 22.7736 208.394 24.4756C208.394 26.1776 208.96 27.6243 210.095 28.8167C211.228 30.0101 212.636 30.6063 214.318 30.6063C215.413 30.6063 216.409 30.3417 217.309 29.8145C218.208 29.2863 218.931 28.582 219.479 27.7026L223.028 30.6063C222.031 31.9943 220.77 33.0945 219.245 33.9059C217.72 34.7173 216.078 35.1235 214.318 35.1235V35.1216Z" fill="#247CB8"/>
<path d="M225.784 35.1216V14.0615H230.476V24.9441L243.612 13.8276V34.8868H238.921V24.0051L225.784 35.1216Z" fill="#247CB8"/>
<path d="M246.193 34.887L251.853 27.1148C250.699 26.5484 249.771 25.7417 249.067 24.6946C248.363 23.6494 248.012 22.4607 248.012 21.1313C248.012 19.1573 248.697 17.4851 250.065 16.1157C251.433 14.7472 253.124 14.0625 255.138 14.0625H261.999V34.8879H257.307V28.2001H256.398L251.588 34.8879H246.193V34.887ZM255.196 23.8291H257.307V18.4614H255.196C254.433 18.4614 253.802 18.7111 253.304 19.2095C252.806 19.7079 252.556 20.3488 252.556 21.1304C252.556 21.912 252.805 22.5585 253.304 23.0662C253.802 23.5748 254.434 23.8291 255.196 23.8291Z" fill="#247CB8"/>
<path d="M108.168 51.7988V44.2036H110.596C111.288 44.2036 111.822 44.389 112.2 44.7598C112.578 45.1305 112.767 45.5907 112.767 46.1394C112.767 46.9378 112.443 47.4911 111.794 47.7976C112.237 47.9262 112.594 48.1488 112.869 48.4665C113.144 48.7842 113.281 49.2034 113.281 49.7232C113.281 50.3865 113.052 50.8989 112.596 51.2584C112.14 51.619 111.527 51.7988 110.757 51.7988H108.168H108.168ZM108.809 47.6048H110.617C111.087 47.6048 111.455 47.4744 111.719 47.2145C111.982 46.9546 112.115 46.6173 112.115 46.2037C112.115 45.7901 111.979 45.4706 111.709 45.2032C111.438 44.9358 111.071 44.8017 110.607 44.8017H108.81V47.6048H108.809ZM108.809 51.1997H110.83C111.4 51.1997 111.843 51.0675 112.157 50.8038C112.47 50.5402 112.627 50.1722 112.627 49.7018C112.627 49.2313 112.475 48.8671 112.172 48.5895C111.87 48.3109 111.418 48.1721 110.819 48.1721H108.808V51.1997H108.809Z" fill="#68676B"/>
<path d="M119.184 51.8847C118.093 51.8847 117.175 51.512 116.43 50.7668C115.684 50.0215 115.312 49.1002 115.312 48.0009C115.312 46.9017 115.684 45.9897 116.43 45.2407C117.175 44.4917 118.093 44.1172 119.184 44.1172C119.804 44.1172 120.379 44.2439 120.911 44.4973C121.442 44.7507 121.854 45.0767 122.146 45.4764L121.686 45.8825C121.408 45.5257 121.052 45.2444 120.617 45.0376C120.182 44.8308 119.704 44.7274 119.184 44.7274C118.278 44.7274 117.516 45.0394 116.9 45.6636C116.283 46.2878 115.975 47.0666 115.975 48.0009C115.975 48.9353 116.283 49.7038 116.9 50.328C117.516 50.9522 118.277 51.2642 119.184 51.2642C119.704 51.2642 120.182 51.1608 120.617 50.954C121.052 50.7472 121.409 50.4659 121.686 50.1091L122.146 50.5153C121.854 50.9149 121.44 51.2428 120.906 51.499C120.371 51.7561 119.796 51.8837 119.184 51.8837V51.8847Z" fill="#68676B"/>
<path d="M124.766 51.7989V44.2037H129.055V44.8241H125.408V47.5844H128.413V48.216H125.408V51.1794H129.055V51.7998H124.766V51.7989ZM126.124 43.1762C126.017 43.2833 125.885 43.3364 125.728 43.3364C125.572 43.3364 125.439 43.2833 125.332 43.1762C125.225 43.0691 125.172 42.9377 125.172 42.7803C125.172 42.6228 125.225 42.4915 125.332 42.3844C125.439 42.2772 125.571 42.2241 125.728 42.2241C125.886 42.2241 126.017 42.2772 126.124 42.3844C126.231 42.4915 126.284 42.6238 126.284 42.7803C126.284 42.9368 126.231 43.0691 126.124 43.1762ZM128.477 43.1762C128.37 43.2833 128.237 43.3364 128.081 43.3364C127.924 43.3364 127.792 43.2833 127.685 43.1762C127.578 43.0691 127.525 42.9377 127.525 42.7803C127.525 42.6228 127.578 42.4915 127.685 42.3844C127.792 42.2772 127.923 42.2241 128.081 42.2241C128.238 42.2241 128.37 42.2772 128.477 42.3844C128.584 42.4915 128.637 42.6238 128.637 42.7803C128.637 42.9368 128.584 43.0691 128.477 43.1762Z" fill="#68676B"/>
<path d="M134.264 53.3827V51.1786H134.937L138.167 44.1182L141.366 51.1786H142.05V53.3827H141.419V51.799H134.895V53.3827H134.263H134.264ZM135.601 51.1786H140.702L138.167 45.4978L135.601 51.1786Z" fill="#68676B"/>
<path d="M143.248 51.799L146.885 44.1182L150.521 51.799H149.826L146.885 45.4978L143.932 51.799H143.248Z" fill="#68676B"/>
<path d="M151.879 51.7988L154.167 48.4507C153.568 48.365 153.114 48.1386 152.804 47.7716C152.493 47.4045 152.338 46.9462 152.338 46.3965C152.338 45.7333 152.557 45.2023 152.995 44.8026C153.434 44.403 154.045 44.2036 154.83 44.2036H157.001V51.7988H156.359V48.5895H154.83L152.627 51.7988H151.878H151.879ZM154.831 47.9905H156.36V44.8026H154.831C154.239 44.8026 153.784 44.947 153.468 45.2358C153.15 45.5246 152.992 45.9112 152.992 46.3965C152.992 46.8819 153.15 47.2685 153.468 47.5573C153.785 47.8461 154.24 47.9905 154.831 47.9905Z" fill="#68676B"/>
<path d="M167.376 51.8847C166.286 51.8847 165.367 51.512 164.622 50.7668C163.877 50.0215 163.505 49.1002 163.505 48.0009C163.505 46.9017 163.877 45.9897 164.622 45.2407C165.367 44.4917 166.286 44.1172 167.376 44.1172C167.997 44.1172 168.572 44.2439 169.104 44.4973C169.635 44.7507 170.047 45.0767 170.339 45.4764L169.879 45.8825C169.6 45.5257 169.245 45.2444 168.81 45.0376C168.375 44.8308 167.897 44.7274 167.376 44.7274C166.471 44.7274 165.709 45.0394 165.093 45.6636C164.476 46.2878 164.168 47.0666 164.168 48.0009C164.168 48.9353 164.476 49.7038 165.093 50.328C165.709 50.9522 166.47 51.2642 167.376 51.2642C167.897 51.2642 168.375 51.1608 168.81 50.954C169.245 50.7472 169.601 50.4659 169.879 50.1091L170.339 50.5153C170.047 50.9149 169.633 51.2428 169.098 51.499C168.564 51.7561 167.989 51.8837 167.376 51.8837V51.8847Z" fill="#68676B"/>
<path d="M174.275 51.7988V44.824H172.029V44.2036H177.162V44.824H174.916V51.7988H174.274H174.275Z" fill="#68676B"/>
<path d="M185.131 50.7668C184.382 51.5121 183.463 51.8847 182.371 51.8847C181.28 51.8847 180.36 51.5121 179.612 50.7668C178.863 50.0216 178.488 49.1002 178.488 48.001C178.488 46.9017 178.863 45.9813 179.612 45.2361C180.36 44.4908 181.28 44.1182 182.371 44.1182C183.463 44.1182 184.382 44.4908 185.131 45.2361C185.88 45.9813 186.254 46.9036 186.254 48.001C186.254 49.0984 185.88 50.0216 185.131 50.7668ZM182.371 51.2643C183.284 51.2643 184.05 50.9522 184.671 50.3281C185.291 49.7039 185.601 48.9288 185.601 48.001C185.601 47.0731 185.291 46.2981 184.671 45.6739C184.05 45.0497 183.284 44.7377 182.371 44.7377C181.458 44.7377 180.703 45.0497 180.083 45.6739C179.463 46.2981 179.152 47.0741 179.152 48.001C179.152 48.9279 179.463 49.7039 180.083 50.3281C180.703 50.9522 181.466 51.2643 182.371 51.2643Z" fill="#68676B"/>
<path d="M188.971 51.799V44.1182L192.585 48.3438L196.19 44.1182V51.799H195.548V45.7335L192.585 49.2642L189.612 45.7335V51.799H188.971Z" fill="#68676B"/>
<path d="M198.458 51.799L202.094 44.1182L205.731 51.799H205.047L203.978 49.5204H200.223L199.154 51.799H198.458H198.458ZM200.5 48.9214H203.698L202.105 45.5193L200.5 48.9214Z" fill="#68676B"/>
<path d="M208.372 51.7988V44.824H206.125V44.2036H211.259V44.824H209.013V51.7988H208.371H208.372Z" fill="#68676B"/>
<path d="M219.229 50.7668C218.48 51.5121 217.561 51.8847 216.469 51.8847C215.377 51.8847 214.458 51.5121 213.709 50.7668C212.961 50.0216 212.586 49.1002 212.586 48.001C212.586 46.9017 212.961 45.9813 213.709 45.2361C214.458 44.4908 215.377 44.1182 216.469 44.1182C217.561 44.1182 218.48 44.4908 219.229 45.2361C219.977 45.9813 220.352 46.9036 220.352 48.001C220.352 49.0984 219.977 50.0216 219.229 50.7668ZM216.469 51.2643C217.382 51.2643 218.148 50.9522 218.768 50.3281C219.389 49.7039 219.699 48.9288 219.699 48.001C219.699 47.0731 219.389 46.2981 218.768 45.6739C218.148 45.0497 217.382 44.7377 216.469 44.7377C215.556 44.7377 214.801 45.0497 214.181 45.6739C213.56 46.2981 213.25 47.0741 213.25 48.001C213.25 48.9279 213.56 49.7039 214.181 50.3281C214.801 50.9522 215.564 51.2643 216.469 51.2643Z" fill="#68676B"/>
<path d="M221.784 51.799L225.421 44.1182L229.057 51.799H228.362L225.421 45.4978L222.469 51.799H221.784Z" fill="#68676B"/>
<path d="M237.111 50.7668C236.362 51.5121 235.442 51.8847 234.351 51.8847C233.259 51.8847 232.34 51.5121 231.591 50.7668C230.843 50.0216 230.468 49.1002 230.468 48.001C230.468 46.9017 230.843 45.9813 231.591 45.2361C232.34 44.4908 233.259 44.1182 234.351 44.1182C235.442 44.1182 236.362 44.4908 237.111 45.2361C237.859 45.9813 238.234 46.9036 238.234 48.001C238.234 49.0984 237.859 50.0216 237.111 50.7668ZM234.351 51.2643C235.264 51.2643 236.03 50.9522 236.65 50.3281C237.271 49.7039 237.581 48.9288 237.581 48.001C237.581 47.0731 237.271 46.2981 236.65 45.6739C236.03 45.0497 235.264 44.7377 234.351 44.7377C233.438 44.7377 232.683 45.0497 232.063 45.6739C231.442 46.2981 231.132 47.0741 231.132 48.001C231.132 48.9279 231.442 49.7039 232.063 50.3281C232.683 50.9522 233.446 51.2643 234.351 51.2643Z" fill="#68676B"/>
<path d="M245.079 44.2036V44.824H241.592V51.7988H240.951V44.2036H245.079Z" fill="#68676B"/>
<path d="M253.047 50.7668C252.298 51.5121 251.379 51.8847 250.287 51.8847C249.196 51.8847 248.277 51.5121 247.528 50.7668C246.779 50.0216 246.404 49.1002 246.404 48.001C246.404 46.9017 246.779 45.9813 247.528 45.2361C248.277 44.4908 249.196 44.1182 250.287 44.1182C251.379 44.1182 252.298 44.4908 253.047 45.2361C253.796 45.9813 254.17 46.9036 254.17 48.001C254.17 49.0984 253.796 50.0216 253.047 50.7668ZM250.287 51.2643C251.2 51.2643 251.967 50.9522 252.587 50.3281C253.207 49.7039 253.517 48.9288 253.517 48.001C253.517 47.0731 253.207 46.2981 252.587 45.6739C251.967 45.0497 251.2 44.7377 250.287 44.7377C249.375 44.7377 248.619 45.0497 247.999 45.6739C247.379 46.2981 247.069 47.0741 247.069 48.001C247.069 48.9279 247.379 49.7039 247.999 50.3281C248.619 50.9522 249.382 51.2643 250.287 51.2643Z" fill="#68676B"/>
<path d="M256.887 51.7988V44.2036H259.315C260.007 44.2036 260.542 44.389 260.92 44.7598C261.298 45.1305 261.487 45.5907 261.487 46.1394C261.487 46.9378 261.163 47.4911 260.514 47.7976C260.956 47.9262 261.314 48.1488 261.588 48.4665C261.863 48.7842 262 49.2034 262 49.7232C262 50.3865 261.772 50.8989 261.315 51.2584C260.859 51.619 260.246 51.7988 259.476 51.7988H256.888H256.887ZM257.529 47.6048H259.336C259.807 47.6048 260.175 47.4744 260.438 47.2145C260.702 46.9546 260.834 46.6173 260.834 46.2037C260.834 45.7901 260.698 45.4706 260.428 45.2032C260.157 44.9358 259.79 44.8017 259.326 44.8017H257.53V47.6048H257.529ZM257.529 51.1997H259.55C260.12 51.1997 260.562 51.0675 260.876 50.8038C261.19 50.5402 261.346 50.1722 261.346 49.7018C261.346 49.2313 261.194 48.8671 260.892 48.5895C260.589 48.3109 260.137 48.1721 259.538 48.1721H257.528V51.1997H257.529Z" fill="#68676B"/>
<path d="M89.5293 19.4591C89.0441 16.9512 87.5539 14.7471 85.5608 13.1914C86.0237 13.6115 86.4568 14.0615 86.8517 14.5413C90.7643 19.2914 89.276 25.1817 86.1168 29.8722C73.4802 48.0836 37.8308 60.5956 16.3026 56.8814C8.97009 55.6517 1.12903 51.6227 2.1796 43.0065C1.38888 46.8893 2.77753 50.6948 5.78114 53.2566C11.1979 57.8512 19.567 58.929 26.9266 58.7976C28.468 59.9873 30.1351 61.0567 31.927 61.9799C31.9428 61.9892 31.9577 61.9976 31.9745 62.0041C39.972 66.1087 48.8767 66.5866 56.8099 64.0396C56.9608 63.9912 57.1108 63.9418 57.2607 63.8915C57.5131 63.8188 57.7646 63.7322 58.0133 63.6279C61.3475 62.4131 64.488 60.6552 67.2914 58.4008C67.31 58.3887 67.3277 58.3747 67.3435 58.3589C70.7653 55.5949 73.6805 52.0903 75.8235 47.929C75.8328 47.9131 75.8412 47.8982 75.8477 47.8814C75.9194 47.7408 75.9902 47.5992 76.061 47.4585C76.0694 47.4427 76.0787 47.4259 76.0871 47.4101C76.0945 47.3952 76.1011 47.3793 76.1066 47.3644C77.3649 44.8026 78.2543 42.1532 78.7982 39.4768C84.8949 34.2311 90.8546 26.866 89.5274 19.4609L89.5293 19.4591ZM55.3403 55.8921C56.7168 54.5254 58.016 53.0051 59.2249 51.3637C61.5598 50.3576 63.8519 49.2546 66.0899 48.051C66.9067 48.2457 67.6863 48.4087 68.4221 48.5373C66.5305 51.4429 64.312 53.9879 61.8718 56.1268C61.4453 56.5004 61.0122 56.8609 60.5735 57.2102C58.9567 56.8916 57.2011 56.4501 55.3384 55.8921H55.3403ZM41.5628 57.0379C44.2982 56.4482 47.0065 55.729 49.6786 54.899C49.781 54.8673 49.8825 54.8329 49.985 54.8003C51.3708 55.3191 52.7232 55.7896 54.0261 56.2032C53.2866 56.8879 52.5267 57.5298 51.748 58.1223C50.0679 59.4004 48.3048 60.4512 46.4822 61.2291C45.3497 60.8043 44.192 60.345 43.0157 59.8522C42.0387 59.4432 41.0487 59.011 40.0493 58.5564C40.5495 58.0897 41.0552 57.5819 41.5637 57.0388L41.5628 57.0379ZM39.3843 58.2508C38.9904 58.0692 38.5946 57.8828 38.1978 57.6937C38.928 57.567 39.6572 57.4292 40.3837 57.2838C40.0484 57.6239 39.715 57.948 39.3853 58.2508H39.3843ZM51.0393 54.4602C53.376 53.6917 55.6877 52.8374 57.962 51.8956C56.9003 53.252 55.7752 54.5152 54.5943 55.662C53.445 55.3042 52.2575 54.9018 51.0393 54.4593V54.4602ZM52.1634 58.6663C53.0594 57.9844 53.933 57.2391 54.7777 56.437C56.5725 56.9857 58.2759 57.4292 59.8592 57.7617C56.9385 59.9565 53.7672 61.6008 50.5084 62.6264C49.4998 62.306 48.4632 61.9529 47.4042 61.5682C49.0471 60.8033 50.6397 59.8261 52.1634 58.6654V58.6663ZM66.9924 47.5572C68.0281 46.9843 69.0516 46.3881 70.0622 45.7705C69.6663 46.5064 69.25 47.2237 68.816 47.9206C68.2395 47.8218 67.6285 47.6988 66.9934 47.5572H66.9924ZM30.0168 59.7525C29.6303 59.4255 29.2652 59.0836 28.9169 58.7324C29.3062 58.7147 29.6908 58.6924 30.0708 58.6691C30.1854 59.2215 30.3418 59.7292 30.5458 60.1829C30.3661 60.0422 30.1891 59.8988 30.0168 59.7525ZM32.2679 61.3725C31.507 60.7633 31.0096 59.8252 30.7432 58.6234C30.8932 58.6132 31.045 58.602 31.1931 58.5908C33.1461 58.4315 35.0908 58.194 37.0234 57.8875C37.6269 58.1809 38.2285 58.4697 38.8255 58.7473C36.3668 60.8685 34.1008 61.8914 32.2679 61.3725ZM34.2423 62.0824C35.8564 61.7563 37.6362 60.6925 39.4952 59.0566C40.5942 59.5597 41.6811 60.0357 42.7512 60.4838C43.6937 60.8779 44.6232 61.2514 45.5387 61.6036C42.1309 62.8696 38.5331 63.1807 34.898 62.2612C34.6791 62.2063 34.4612 62.1457 34.2423 62.0824ZM36.9777 63.3475C40.243 63.7471 43.4516 63.2236 46.498 61.9659C47.8149 62.455 49.0983 62.8984 50.3398 63.2925C50.3752 63.3111 50.4125 63.3232 50.4525 63.3279L50.5149 63.3475C51.2926 63.5925 52.4605 63.9521 53.7849 64.1076C53.825 64.1123 53.8659 64.1169 53.9069 64.1216C48.4147 65.3699 42.5705 65.1762 36.9768 63.3475H36.9777ZM57.0549 63.2347C55.9876 63.5366 54.8802 63.545 53.8622 63.4257C53.0445 63.3298 52.2826 63.149 51.6419 62.9702C54.8271 61.8495 57.9136 60.1522 60.7524 57.9397C62.7445 58.317 64.529 58.507 66.048 58.4967C63.3089 60.5574 60.2671 62.1513 57.0549 63.2347ZM66.9701 57.7757C65.4529 57.8828 63.5902 57.7431 61.4611 57.3723C61.7517 57.1339 62.0386 56.8898 62.3236 56.6401C64.881 54.3987 67.2001 51.7205 69.1615 48.6546C71.5859 49.017 73.4979 48.9826 74.7329 48.5093C72.7007 52.1685 70.0463 55.2791 66.9701 57.7757ZM75.451 47.1408C74.8326 48.2382 72.7119 48.4963 69.5499 48.0351C70.0668 47.1939 70.5567 46.3238 71.0177 45.4267C71.0811 45.3047 71.1407 45.1817 71.2012 45.0588C71.9631 44.5753 72.7184 44.0815 73.4635 43.571C74.8642 42.6124 76.3944 41.4778 77.9377 40.2006C77.391 42.5556 76.5677 44.8836 75.451 47.1408Z" fill="#247CB8"/>
<path d="M23.0214 40.8648C33.5159 38.6448 43.7421 35.2688 53.6527 31.1894C61.0783 28.104 68.3699 24.6106 75.1604 20.2807C78.1733 18.3532 89.8497 10.6044 84.7561 6.71599C82.2163 5.03357 77.7365 5.36428 74.772 5.61953C73.4402 5.75461 72.1167 5.94558 70.7998 6.16264C73.4467 5.89062 76.1188 5.71455 78.775 5.85242C82.8627 6.07973 87.6945 7.25165 83.7959 11.9738C81.8605 14.109 79.1578 16.2469 75.9586 18.3346C72.9671 12.3818 68.1315 7.28798 61.7545 4.00883H61.7526C53.7495 -0.107801 44.8365 -0.588495 36.8948 1.9603C36.8641 1.96961 36.8343 1.97986 36.8036 1.99011C36.7188 1.978 36.6285 1.99849 36.553 2.05252C36.54 2.06184 36.527 2.07302 36.5158 2.0842C32.701 3.35952 29.119 5.33912 25.9822 7.95219C25.9738 7.95499 25.9663 7.95872 25.9589 7.96244C25.8984 7.99132 25.849 8.03697 25.8164 8.091C22.7634 10.6677 20.1398 13.8509 18.1421 17.5763C18.1365 17.5847 18.1318 17.5931 18.1281 17.6015C18.1262 17.6061 18.1244 17.6098 18.1216 17.6145C18.0405 17.7654 17.9604 17.9173 17.8813 18.07C17.872 18.0859 17.8636 18.1008 17.8571 18.1176C15.7056 22.3115 14.5517 26.7533 14.3067 31.1755C14.2974 31.2136 14.2956 31.2537 14.3002 31.2938C14.1307 34.5655 14.4613 37.8241 15.2521 40.9607C10.7713 41.6343 6.41539 41.8672 3.19384 41.0762C2.08088 40.7465 0.865462 40.1214 0.768601 38.861C0.647525 35.1393 8.38707 29.8787 11.3562 27.8562C8.25481 29.6654 -3.48768 36.7351 1.01634 40.9253C5.18973 44.2743 17.8431 41.9212 23.0205 40.8657L23.0214 40.8648ZM19.1507 36.8581C20.1314 37.7505 21.2183 38.6644 22.3965 39.5894C21.3673 39.8223 20.3149 40.0478 19.2532 40.2574C19.1628 39.1386 19.1256 38.0048 19.1516 36.8581H19.1507ZM28.8526 12.8122C30.1863 14.327 31.8357 15.9097 33.7515 17.5102C32.1598 19.4096 30.7144 21.4209 29.4356 23.4993C28.5164 24.9944 27.6819 26.526 26.9396 28.078C26.1554 27.4827 25.4178 26.8977 24.7304 26.3257C23.678 25.4509 22.7429 24.6097 21.9401 23.8151C22.3462 22.8323 22.797 21.856 23.2943 20.8881C24.8441 17.8716 26.7282 15.1673 28.8535 12.8132L28.8526 12.8122ZM68.4304 22.713C68.4276 22.6366 68.4258 22.5602 68.423 22.4838C68.5264 22.509 68.6279 22.5304 68.7313 22.5546C68.6316 22.6077 68.531 22.6608 68.4314 22.7139L68.4304 22.713ZM43.3929 9.79765C43.6918 10.0492 43.9945 10.2998 44.3037 10.5485C45.8246 11.7754 47.4694 12.9659 49.2232 14.1034C47.2599 16.4901 45.2761 19.2149 43.3323 22.236C43.1424 22.5314 42.9533 22.8285 42.7652 23.1266C39.809 21.284 37.1398 19.3873 34.8338 17.5139C34.7974 17.4841 34.7611 17.4543 34.7248 17.4254C37.2692 14.4797 40.094 11.9999 43.0706 10.011C43.1777 9.93925 43.2849 9.86845 43.392 9.79858L43.3929 9.79765ZM42.401 23.7079C40.2356 27.1902 38.2304 30.8345 36.486 34.435C33.108 32.4284 30.0727 30.4162 27.4984 28.5C28.2444 26.9275 29.0882 25.3745 30.0196 23.8598C31.2844 21.8038 32.7112 19.8186 34.2787 17.948C34.3187 17.9806 34.3588 18.0132 34.3997 18.0468C36.7263 19.9379 39.4197 21.8513 42.3991 23.7098L42.401 23.7079ZM36.7821 35.4039C36.8753 35.4588 36.9712 35.5138 37.0653 35.5678C36.9237 35.6135 36.7821 35.6591 36.6415 35.7038C36.689 35.6032 36.7346 35.5036 36.7821 35.4039ZM37.0792 34.7853C38.8181 31.1913 40.8214 27.5507 42.985 24.0694C45.0488 25.3345 47.245 26.5725 49.5473 27.7566C50.8344 28.4189 52.115 29.0412 53.3844 29.6272C47.9863 31.8248 42.6376 33.7513 37.9389 35.2846C37.6502 35.1179 37.3633 34.9511 37.0792 34.7844V34.7853ZM49.8621 27.1455C47.5765 25.9698 45.3962 24.742 43.3491 23.4862C43.5354 23.1918 43.7217 22.8975 43.9098 22.6059C45.8554 19.5801 47.841 16.8562 49.8034 14.4751C51.4109 15.4924 53.1078 16.4649 54.8811 17.3769C56.6544 18.289 58.4314 19.1032 60.1945 19.8186C59.5193 22.3572 58.6456 25.0569 57.583 27.8656C56.4765 28.3444 55.3654 28.813 54.2543 29.2713C52.8033 28.6118 51.3364 27.9047 49.8602 27.1464L49.8621 27.1455ZM60.8362 20.0748C62.7818 20.8405 64.7069 21.4843 66.591 22.0087C66.9729 22.1149 67.3529 22.2156 67.7301 22.3124C67.7366 22.4652 67.7422 22.6189 67.7468 22.7726C67.7496 22.8705 67.7506 22.9692 67.7524 23.067C64.7888 24.6041 61.6502 26.0844 58.4612 27.4827C59.4159 24.905 60.2085 22.4224 60.8362 20.0748ZM68.3895 21.7703C68.2041 18.3998 67.5922 15.1812 66.5994 12.2132C67.9005 12.5309 69.1355 12.7321 70.2689 12.8141C70.281 12.815 70.2931 12.815 70.3053 12.8141C71.666 14.9698 72.7081 17.3648 73.4225 19.9174C72.2155 20.6403 70.9553 21.3548 69.6542 22.059C69.2351 21.9687 68.8151 21.8737 68.3895 21.7703ZM67.6937 21.5942C67.3883 21.515 67.0818 21.433 66.7745 21.3473C64.8894 20.8228 62.9615 20.1754 61.0122 19.4069C61.3577 18.0635 61.6483 16.7658 61.8849 15.5203C62.1941 13.8901 62.4102 12.3492 62.534 10.9127C63.3145 11.2183 64.0847 11.4885 64.8391 11.7232C65.1642 11.8238 65.4864 11.9179 65.804 12.0055C66.8425 14.9716 67.4888 18.2033 67.6937 21.5942ZM61.2097 15.3936C60.9815 16.5972 60.7011 17.8521 60.3696 19.1488C58.6531 18.4492 56.9226 17.6546 55.1959 16.7668C53.4683 15.878 51.8151 14.9325 50.2467 13.9422C51.1091 12.9175 51.966 11.9598 52.8117 11.073C53.9982 9.82932 55.1624 8.72727 56.2893 7.7752C57.1536 8.31365 58.0663 8.8316 59.021 9.32254C59.9747 9.81255 60.9275 10.2541 61.8681 10.6435C61.7499 12.1145 61.531 13.7047 61.2097 15.3936ZM52.3152 10.6007C51.4407 11.5173 50.555 12.5085 49.6637 13.5705C47.9053 12.4331 46.2568 11.2407 44.7331 10.0119C44.4844 9.81162 44.2395 9.6104 43.9973 9.40825C46.8734 7.60285 49.876 6.24834 52.8927 5.36614C53.1497 5.57388 53.4133 5.78162 53.6853 5.9875C54.3139 6.46447 54.9817 6.93305 55.6839 7.38952C54.5877 8.32576 53.4599 9.39893 52.3143 10.5997L52.3152 10.6007ZM43.4497 8.94339C41.9176 7.62614 40.5299 6.27443 39.3033 4.91153C39.7122 4.71497 40.1248 4.52958 40.5392 4.35352C43.4953 3.09589 46.5651 2.35249 49.619 2.17549C49.6255 2.18481 49.6329 2.19505 49.6404 2.20437C50.3678 3.08005 51.2488 3.96691 52.2622 4.83887C49.2716 5.75833 46.2987 7.13241 43.4497 8.94339ZM42.849 9.33279C42.7959 9.36819 42.7419 9.40359 42.6888 9.43992C39.6582 11.4652 36.7831 13.9897 34.1958 16.9866C32.2791 15.3852 30.6371 13.8081 29.3192 12.3045C32.1105 9.32627 35.292 6.93957 38.6644 5.22733C39.9012 6.61445 41.3029 7.99132 42.8499 9.33279H42.849ZM24.2927 26.8501C25.0229 27.4566 25.8071 28.078 26.6425 28.7096C25.022 32.2319 23.881 35.8492 23.3064 39.3789C23.2896 39.3826 23.2729 39.3873 23.2561 39.391C21.7399 38.22 20.3736 37.0677 19.1814 35.9563C19.2094 35.3834 19.2513 34.8086 19.309 34.231C19.6285 31.0031 20.4062 27.7184 21.6682 24.4914C22.4384 25.2497 23.3166 26.0387 24.2936 26.8511L24.2927 26.8501ZM24.0301 39.2075C24.601 35.8743 25.6832 32.4629 27.2041 29.1316C29.7858 31.0478 32.8192 33.0544 36.1879 35.0536C36.0399 35.3647 35.8946 35.675 35.7511 35.9852C33.8326 36.5879 32.0499 37.1152 30.4527 37.5568C28.6058 38.0551 26.4041 38.6402 24.0301 39.2075ZM75.3765 18.71C74.9369 18.9914 74.4889 19.2708 74.0325 19.5494C73.0928 16.274 71.6185 13.2557 69.6421 10.6566C71.9873 13.0488 73.9096 15.7737 75.3765 18.71ZM69.8275 12.0875C68.3662 11.9403 66.7475 11.5984 65.0413 11.0692C64.2403 10.8205 63.4198 10.5299 62.589 10.1982C62.7129 8.32017 62.67 6.63401 62.4605 5.17889C65.4455 6.91535 67.9145 9.28062 69.8275 12.0875ZM61.1799 4.4886C61.26 4.52865 61.3401 4.56871 61.4202 4.6097H61.4267V4.61156H61.4351V4.61343L61.4416 4.61902H61.4425V4.62088H61.4518V4.62274H61.4621C61.5422 4.66559 61.6213 4.70752 61.7005 4.74944V4.75409C61.9641 6.21667 62.0376 7.95313 61.9212 9.91782L61.9184 9.92527C61.0644 9.56475 60.2001 9.16138 59.3349 8.71609C58.4696 8.27079 57.6379 7.80221 56.8472 7.31686C58.3756 6.07973 59.8303 5.12952 61.1724 4.49232L61.178 4.48953L61.1799 4.4886ZM56.2362 6.93119C55.4828 6.44863 54.7703 5.95024 54.1006 5.44253C52.6757 4.3619 51.4565 3.24308 50.4879 2.14289C53.8827 2.0665 57.243 2.69811 60.391 4.11503C59.0871 4.79136 57.691 5.73784 56.2362 6.93119ZM51.7574 1.46097C47.9137 1.34918 44.0029 2.13823 40.2701 3.7247C39.7876 3.93058 39.307 4.14857 38.8311 4.38053C38.3003 3.76849 37.802 3.15458 37.3372 2.5416C41.9446 1.10232 46.878 0.700807 51.7564 1.46097H51.7574ZM36.649 2.76518C37.1286 3.40983 37.6464 4.05448 38.1987 4.6982C34.8356 6.42814 31.6625 8.81763 28.8712 11.7828C27.8738 10.5886 27.0886 9.44644 26.5429 8.37979C29.5623 5.89062 32.9953 3.99765 36.649 2.76518ZM18.7288 17.9312C20.6325 14.3754 23.1164 11.3236 26.0045 8.83346C26.5792 9.92155 27.3867 11.0823 28.4018 12.2896C26.2197 14.6968 24.2853 17.4636 22.6964 20.5508C22.6871 20.5657 22.6787 20.5806 22.6731 20.5965C22.2167 21.4861 21.7985 22.3832 21.4176 23.2859C19.1814 20.9589 18.1588 19.0696 18.7288 17.9312ZM18.0173 19.3435C18.3497 20.6235 19.4348 22.1997 21.1401 23.9613C19.7896 27.3383 18.9616 30.7823 18.6264 34.1649C18.5882 34.5561 18.5556 34.9474 18.5304 35.3368C17.0049 33.8509 15.8062 32.4471 14.9932 31.1745C15.2195 27.1781 16.2058 23.1658 18.0182 19.3435H18.0173ZM14.9494 32.3213C15.837 33.5445 17.0291 34.8636 18.4839 36.2414C18.428 37.6434 18.4587 39.0305 18.5714 40.3925C17.6931 40.5602 16.8111 40.7167 15.931 40.8564C15.226 38.084 14.8898 35.212 14.9494 32.3213Z" fill="#247CB8"/>
<path d="M21.9941 46.0889C21.1242 49.001 21.073 49.1715 20.612 50.7831C20.0793 49.3037 19.5447 47.8281 19.0091 46.3544C18.618 46.3823 18.2315 46.4075 17.8468 46.4298C18.6403 48.606 19.431 50.7877 20.219 52.9769C20.5822 52.9583 20.9482 52.9369 21.317 52.9136C22.1571 50.0313 22.1906 49.9158 22.7485 48.0787C23.2961 49.6028 23.8428 51.1296 24.3877 52.6602C24.791 52.6192 25.198 52.5764 25.6068 52.5307C24.8254 50.3294 24.0412 48.1355 23.2542 45.9473C22.8314 45.9976 22.4123 46.0451 21.995 46.0889H21.9941Z" fill="#247CB8"/>
<path d="M31.5768 51.6719C32.0108 51.5964 32.4476 51.5182 32.8853 51.4362C32.1123 49.22 31.3365 47.0093 30.5579 44.8062C30.1183 44.8909 29.6815 44.972 29.2447 45.0502C29.5483 45.9063 29.8519 46.7643 30.1546 47.6232C29.0919 47.8114 28.0395 47.981 27.0001 48.1337C26.6956 47.2776 26.391 46.4224 26.0865 45.5691C25.658 45.6325 25.2324 45.693 24.8087 45.7508C25.5938 47.9418 26.3761 50.1394 27.1557 52.3435C27.5776 52.2886 28.0023 52.2308 28.4298 52.1703C28.0982 51.2312 27.7666 50.2922 27.4351 49.355C28.4745 49.2051 29.526 49.0355 30.5877 48.8483C30.9183 49.7882 31.249 50.7291 31.5777 51.6719H31.5768Z" fill="#247CB8"/>
<path d="M37.6185 50.4488C39.9627 49.8759 39.5157 47.5749 38.2295 46.8799C37.8448 46.6703 37.5235 46.6554 37.4025 46.6507C38.3096 45.9707 37.9184 44.0181 36.1684 43.7843C35.6431 43.7135 35.1681 43.8215 35.0126 43.8579C34.0691 44.0787 33.1313 44.2855 32.1981 44.4792C32.9748 46.6861 33.7488 48.8996 34.5199 51.1195C35.5463 50.9127 36.5791 50.6882 37.6176 50.4488H37.6185ZM37.7424 48.9806C37.558 49.2918 37.2562 49.3663 37.1566 49.3905C36.5931 49.5209 36.0306 49.6467 35.4699 49.7669C35.252 49.138 35.0331 48.5092 34.8142 47.8813C35.3479 47.7658 35.8816 47.6457 36.418 47.5218C37.5254 47.2786 38.1271 48.3322 37.7424 48.9815V48.9806ZM33.9052 45.2767C34.3793 45.1723 34.8561 45.0652 35.333 44.9543C36.2243 44.7587 36.8185 45.5794 36.4488 46.1812C36.3258 46.3806 36.1284 46.5147 35.8611 46.5809C35.3963 46.688 34.9325 46.7923 34.4696 46.8929C34.2815 46.3536 34.0934 45.8151 33.9043 45.2767H33.9052Z" fill="#247CB8"/>
<path d="M46.0994 48.1488C45.9662 47.7556 45.8339 47.3634 45.7008 46.9703C44.4527 47.3597 43.2029 47.7277 41.9558 48.0733C41.7639 47.5116 41.5721 46.9508 41.3793 46.3909C42.3572 46.1189 43.3351 45.8338 44.314 45.5348C44.1882 45.1668 44.0634 44.7998 43.9377 44.4318C42.9589 44.7317 41.98 45.0187 41.0012 45.2916C40.8214 44.7699 40.6426 44.2483 40.4628 43.7275C41.6876 43.3847 42.9151 43.0195 44.1398 42.6338C44.0057 42.2426 43.8725 41.8522 43.7384 41.4619C42.0582 41.9929 40.3753 42.4829 38.6989 42.9329C39.4681 45.1528 40.2356 47.3802 40.9993 49.6141C42.6953 49.1679 44.3987 48.6798 46.0985 48.1506L46.0994 48.1488Z" fill="#247CB8"/>
<path d="M49.7987 40.0638C49.2213 39.8234 48.5526 39.8346 47.8103 40.0936C46.9032 40.4168 45.9923 40.728 45.0805 41.028C45.8433 43.2609 46.6042 45.5014 47.3614 47.7474C47.8131 47.6012 48.2648 47.4521 48.7165 47.2993C48.4641 46.5503 48.2126 45.8023 47.9602 45.0542C48.4213 44.8977 48.8823 44.7384 49.3424 44.5763C52.047 43.5805 51.3522 40.7056 49.7987 40.0628V40.0638ZM47.5626 43.8814C47.3213 43.1678 47.0792 42.4551 46.837 41.7425C47.2627 41.5971 47.6874 41.45 48.1111 41.299C49.4271 40.8491 49.9748 42.0527 49.6069 42.7942C49.4607 43.0877 49.2017 43.3057 48.8357 43.4398C48.412 43.5889 47.9873 43.736 47.5626 43.8804V43.8814Z" fill="#247CB8"/>
<path d="M56.6386 38.4834C56.7559 38.0893 56.9124 37.5648 57.0297 37.1699C56.1766 36.9248 55.3114 36.9882 54.4611 37.3534C50.8996 38.9315 51.2172 43.3863 54.1463 44.4622C55.6169 44.9988 57.6845 44.5088 58.8002 42.519C58.4892 42.3131 58.0756 42.0383 57.7655 41.8333C56.3387 44.1809 53.8473 43.4086 53.3705 41.6135C52.8601 39.6935 54.693 37.9449 56.6386 38.4834Z" fill="#247CB8"/>
<path d="M61.2963 42.2027C62.2193 38.6646 62.413 37.924 62.9075 35.8643C63.4263 37.4452 63.9432 39.0289 64.4601 40.6163C64.8568 40.4085 65.248 40.1999 65.6327 39.9912C64.8922 37.7088 64.149 35.4339 63.4039 33.1655C63.0063 33.3826 62.603 33.5996 62.1932 33.8158C61.5804 36.3025 61.0622 38.3519 60.6388 39.9642C60.134 38.4289 59.6292 36.8974 59.1225 35.3687C58.7053 35.5709 58.2852 35.7711 57.8643 35.9686C58.6149 38.2268 59.3628 40.4914 60.1079 42.7636C60.5065 42.5782 60.9023 42.3919 61.2972 42.2027H61.2963Z" fill="#247CB8"/>
<path d="M67.8399 38.7529C67.8809 37.9024 67.9359 36.7677 67.9768 35.9163C68.0411 35.8837 68.1203 35.8436 68.2469 35.7682C68.5562 35.5818 68.8598 35.3955 69.1597 35.2083C69.4083 35.9759 69.6561 36.7444 69.9038 37.5139C70.2493 37.2997 70.5884 37.0845 70.9218 36.8702C70.186 34.5785 69.4475 32.2943 68.7061 30.0166C67.9918 30.4796 67.2485 30.9426 66.4774 31.4056C64.4489 32.6576 64.8084 35.7831 66.5314 36.1622C66.6543 36.1892 66.7558 36.1948 66.8164 36.1976C66.7419 37.1814 66.6459 38.4939 66.5668 39.4768C66.9989 39.2355 67.4227 38.9942 67.8399 38.7529ZM66.36 33.2995C66.4569 32.9818 66.6571 32.7275 66.9533 32.544C67.3333 32.3148 67.7068 32.0866 68.0737 31.8574C68.3103 32.585 68.5468 33.3144 68.7834 34.0438C68.4211 34.2692 68.0514 34.4956 67.6751 34.7211C66.6599 35.3098 66.1179 34.0895 66.36 33.2995Z" fill="#247CB8"/>
<path d="M72.8013 28.0745C76.1793 26.6921 78.5952 25.4121 80.633 23.9616C79.4847 26.707 77.7244 29.5129 75.0999 32.7389C74.908 32.9737 74.7152 33.2075 74.5233 33.4413C75.8589 32.0747 79.9345 27.8379 81.4768 22.6006C79.9718 23.8852 77.9917 25.2863 72.8013 28.0755V28.0745Z" fill="#247CB8"/>
<path d="M79.534 25.3755C78.625 25.8506 78.6213 25.8897 72.6709 28.7422C74.8791 28.0454 76.6524 27.3476 78.6018 26.4123C77.133 29.0785 75.6317 31.1457 74.0977 33.1868C76.2799 30.828 77.7952 28.7059 79.1662 26.1105C79.2761 25.8897 79.4232 25.5963 79.534 25.3755Z" fill="#247CB8"/>
<path d="M72.534 29.4064C73.6618 29.1931 74.5988 28.9621 75.9874 28.5522C76.1644 28.4963 76.4 28.4227 76.577 28.3668C75.681 29.8769 74.962 30.9789 73.6693 32.9408C75.0905 31.305 76.1625 29.7688 77.3686 27.6411C74.6789 28.5801 74.04 28.7953 72.534 29.4064Z" fill="#247CB8"/>
<path d="M72.4045 30.1068C73.1487 30.105 73.7578 30.0575 74.7329 29.9214C73.6721 31.8144 73.6087 31.9234 73.225 32.6603C73.9394 31.7594 74.5038 30.8921 75.3066 29.4575C74.0754 29.6643 73.3638 29.8059 72.4045 30.1068Z" fill="#247CB8"/>
<path d="M73.7336 30.6992C73.1226 30.7719 72.7761 30.8343 72.3375 31.0122C72.6374 31.0625 72.8907 31.0718 73.2716 31.0458C73.0183 31.4948 72.8665 31.8003 72.7109 32.173C73.0527 31.7985 73.3014 31.4408 73.7336 30.6992Z" fill="#247CB8"/>
</svg>
