<svg width="28" height="30" viewBox="0 0 28 30" fill="none" xmlns="http://www.w3.org/2000/svg">
<path d="M27.1034 3.10858C27.1089 2.30022 26.7724 1.52678 26.1773 0.979497C25.4486 0.441405 24.5287 0.231193 23.6388 0.399117C22.4566 0.585427 21.4289 1.30983 20.8565 2.36089C20.4244 1.45201 19.6706 0.735578 18.7402 0.351927C17.8099 -0.0323377 16.7705 -0.0568521 15.823 0.282673C14.8755 0.622199 14.0886 1.30125 13.6137 2.18867C13.143 1.28348 12.3493 0.588491 11.3896 0.241612C10.4298 -0.105268 9.3751 -0.0776894 8.43497 0.318219C7.49484 0.713515 6.73734 1.44895 6.31447 2.37682C5.74267 1.3178 4.71 0.586653 3.52166 0.399117C2.63178 0.231193 1.71188 0.441405 0.983797 0.979497C0.387482 1.52678 0.0510208 2.2996 0.0565365 3.10858C-0.0188455 4.4532 -0.0188455 5.78863 0.0565365 8.03722C0.130693 10.2545 1.11985 10.4249 2.53189 10.4249C2.65691 10.4249 2.785 10.4237 2.91676 10.4219C3.16865 10.4194 3.44505 10.417 3.74229 10.4206C5.06301 10.4274 5.74083 10.2006 6.16003 9.82003C6.4254 10.1957 6.85624 10.42 7.3165 10.4206H12.6625C12.9879 10.4194 13.3029 10.3054 13.5536 10.0977C13.8122 10.333 14.1487 10.4635 14.498 10.4648H19.8434C20.3147 10.4648 20.7553 10.2306 21.0195 9.84087C21.4246 10.2012 22.0656 10.4212 23.2662 10.4212C23.3153 10.4212 23.3661 10.4212 23.4182 10.42C23.7161 10.4163 23.9919 10.4188 24.2437 10.4212C24.3755 10.4225 24.5036 10.4243 24.6286 10.4243C26.0394 10.4243 27.0298 10.2539 27.104 8.0366C27.1787 5.78863 27.1787 4.45259 27.104 3.10797L27.1034 3.10858ZM5.89466 4.2148V8.3559C5.87076 8.408 5.84624 8.4607 5.82357 8.51157C5.56004 9.10789 5.40866 9.43086 3.757 9.41125C3.44934 9.40819 3.16558 9.41003 2.90634 9.41248C1.2841 9.43086 1.1125 9.43148 1.06469 8.00412C0.991151 5.78863 0.991151 4.4771 1.06469 3.16496C1.0506 2.63545 1.25713 2.1231 1.63466 1.75109C2.15436 1.39869 2.7948 1.27306 3.40828 1.40298C5.00478 1.58255 5.76167 3.43891 5.91182 3.85566C5.90201 3.97455 5.89405 4.09406 5.89405 4.21541L5.89466 4.2148ZM13.0756 4.25892V8.99818C13.0756 9.22617 12.8905 9.41125 12.6625 9.41125H7.3165C7.08851 9.41125 6.90404 9.22617 6.90404 8.99818V4.2148C6.90404 4.09284 6.91201 3.97088 6.92611 3.84953V3.84401C7.00149 3.08897 7.34714 2.38602 7.89933 1.86508C8.45152 1.34415 9.17347 1.0414 9.93158 1.01075C9.95058 1.01075 9.9708 1.01075 9.9898 1.01075C10.808 1.01075 11.593 1.33618 12.171 1.91472C12.7495 2.49327 13.0749 3.27834 13.0749 4.09651V4.26015L13.0756 4.25892ZM20.2565 9.04231C20.2565 9.27029 20.072 9.45477 19.844 9.45538H14.498C14.27 9.45538 14.0849 9.27029 14.0849 9.04231V4.25953C14.0733 3.43646 14.3834 2.64097 14.9485 2.04281C15.5135 1.44466 16.29 1.09043 17.1125 1.05549C17.1315 1.05549 17.1517 1.05549 17.1713 1.05549C17.9313 1.05549 18.6649 1.33618 19.2305 1.84363C19.7962 2.35108 20.1547 3.04975 20.2375 3.8054C20.2375 3.83053 20.2399 3.85566 20.2436 3.88079C20.2509 3.9672 20.2565 4.05361 20.2565 4.14125V9.04415V9.04231ZM26.0958 8.00351C26.0474 9.43086 25.8801 9.43148 24.2542 9.41187C23.9955 9.41003 23.7118 9.40696 23.4035 9.41064C21.7494 9.43086 21.5999 9.10666 21.3369 8.51096C21.3149 8.4607 21.2898 8.40738 21.2658 8.35529V4.14003C21.2658 4.04074 21.2585 3.9433 21.2511 3.84463C21.4093 3.40643 22.1606 1.58133 23.751 1.40237C24.3651 1.27122 25.0061 1.39686 25.5252 1.75048C25.9028 2.12248 26.1093 2.63484 26.0952 3.16435C26.1681 4.47649 26.1681 5.78801 26.0952 8.00351H26.0958ZM16.0559 24.9841C16.0099 24.9467 15.9848 24.8903 15.9867 24.8309L16.097 21.0397C16.1068 20.7657 15.8923 20.5353 15.6177 20.5255V20.0567H15.6802C16.0057 20.0573 16.3219 19.9482 16.5775 19.7466C16.833 19.5449 17.0132 19.263 17.088 18.9462L17.4404 17.4734C17.577 16.9023 17.4447 16.2998 17.0812 15.8383C16.7178 15.3769 16.1619 15.1078 15.5748 15.1084H11.8223C11.2345 15.1084 10.6799 15.3775 10.3165 15.8389C9.95242 16.3004 9.82004 16.9029 9.95609 17.4741L10.3085 18.9474C10.3839 19.2636 10.5634 19.5462 10.819 19.7472C11.0746 19.9488 11.3908 20.0579 11.7162 20.0567H11.7806V20.5255C11.6409 20.5304 11.5097 20.5935 11.419 20.6996C11.3283 20.8056 11.2866 20.9453 11.3032 21.0838L11.8198 25.4701C11.8934 26.0976 12.2408 26.6609 12.7691 27.0077L17.1848 29.9133C17.4171 30.061 17.7253 29.9948 17.8767 29.765C18.0281 29.5352 17.9674 29.2257 17.7401 29.0706L13.325 26.1651C13.0461 25.9812 12.8623 25.684 12.8231 25.3518L12.3732 21.5294H15.0735L14.9773 24.8014C14.9662 25.1728 15.128 25.5283 15.4161 25.7636L20.4416 29.8821C20.5451 29.9685 20.6787 30.0102 20.8129 29.9979C20.9472 29.985 21.071 29.9195 21.1568 29.8153C21.2426 29.7111 21.2824 29.5769 21.2683 29.4426C21.2542 29.3084 21.1868 29.1859 21.0814 29.1013L16.0559 24.9828V24.9841ZM14.6083 20.5212H12.79V20.0573H14.6089V20.5212H14.6083ZM11.7156 19.0479C11.5134 19.0485 11.3369 18.9094 11.2897 18.712L10.9373 17.2393C10.8723 16.9685 10.9348 16.6829 11.1077 16.4647C11.2799 16.2459 11.5434 16.1184 11.8216 16.1184H15.5742C15.8524 16.1184 16.116 16.2459 16.2882 16.4647C16.4604 16.6835 16.5235 16.9691 16.4579 17.24L16.1056 18.712C16.059 18.9094 15.8825 19.0485 15.6796 19.0479H11.715H11.7156ZM13.6982 14.05C13.5646 14.05 13.4359 13.9973 13.3415 13.9023C13.2466 13.8079 13.1938 13.6792 13.1938 13.5456V12.1826C13.1938 11.9038 13.42 11.6782 13.6982 11.6782C13.9765 11.6782 14.2026 11.9038 14.2026 12.1826V13.5462C14.2026 13.6798 14.1499 13.8085 14.0549 13.9029C13.9605 13.9979 13.8318 14.0506 13.6982 14.0506V14.05ZM9.91136 14.8786C9.69808 15.0582 9.37939 15.0306 9.19982 14.8173L8.3222 13.7736C8.14264 13.5603 8.17022 13.2416 8.3841 13.0627C8.59738 12.8831 8.91607 12.9107 9.09564 13.124L9.97326 14.1677C10.0597 14.27 10.1013 14.403 10.0903 14.536C10.0793 14.669 10.0149 14.7928 9.91197 14.8786H9.91136ZM17.8099 14.9969C17.6138 14.9969 17.4355 14.8829 17.3527 14.7052C17.27 14.5274 17.2976 14.3178 17.4238 14.1671L18.3008 13.1234C18.4804 12.9101 18.7985 12.8825 19.0124 13.0621C19.2256 13.2416 19.2532 13.5597 19.0743 13.7736L18.1973 14.8173C18.101 14.9319 17.9595 14.9975 17.8105 14.9975L17.8099 14.9969Z" fill="black"/>
</svg>
