<svg width="32" height="30" viewBox="0 0 32 30" fill="none" xmlns="http://www.w3.org/2000/svg">
<path d="M26.9927 0H4.86163C3.70523 0.00207862 2.59663 0.461453 1.77904 1.27904C0.961453 2.09663 0.501386 3.20523 0.5 4.36163C0.5 4.75311 0.601852 5.13765 0.796549 5.47785C1.14437 6.15617 1.41459 6.87191 1.60028 7.61121V12.6255C1.60028 12.9283 1.72084 13.2179 1.93494 13.432C2.14904 13.6461 2.43866 13.766 2.74144 13.7667H5.63488C5.66675 13.7667 5.69654 13.7598 5.72842 13.757C5.81641 13.9621 5.96261 14.1367 6.14899 14.2593C6.33468 14.382 6.55294 14.4478 6.77604 14.4485H9.57802C9.61128 14.4485 9.64245 14.4415 9.67571 14.4388C9.7644 14.6418 9.9106 14.8143 10.0963 14.9356C10.2813 15.0568 10.4982 15.1219 10.7199 15.1226H15.3559C15.5561 15.1213 15.7522 15.0672 15.924 14.9647C16.0973 15.0686 16.2954 15.1233 16.497 15.1247H17.6382V17.978C17.6382 18.2808 17.7588 18.5704 17.9729 18.7845C18.187 18.9986 18.4766 19.1184 18.7794 19.1191H23.4126C23.554 19.1164 23.6925 19.0873 23.8228 19.0325L24.8732 20.4494V29.4298C24.8732 29.5808 24.9335 29.7263 25.0402 29.833C25.1469 29.9397 25.2924 30 25.4434 30H27.7257C27.8768 30 28.0223 29.9397 28.129 29.833C28.2357 29.7263 28.296 29.5808 28.296 29.4298V20.1134C28.296 19.7025 28.1851 19.3 27.9731 18.948C27.7618 18.596 27.4576 18.3092 27.0945 18.1172C26.3989 17.7479 25.4115 17.2227 24.5531 16.7592L24.5558 14.4519H25.0776C25.3014 14.4519 25.5196 14.3854 25.706 14.2628C25.8924 14.1395 26.0386 13.9642 26.1266 13.7591C26.1564 13.7618 26.1855 13.7681 26.2167 13.7681H29.1101C29.4129 13.7681 29.7025 13.6468 29.9166 13.4334C30.1307 13.2193 30.2506 12.9297 30.2513 12.6269V7.61051C30.4369 6.87191 30.7065 6.15617 31.055 5.47854C31.249 5.13834 31.3515 4.75311 31.3515 4.36163C31.3502 3.20523 30.8901 2.09663 30.0725 1.27974C29.257 0.461453 28.1484 0.00138575 26.992 0H26.9927ZM5.63557 12.6255H2.74214V7.54053H3.92418C4.37801 7.54053 4.81313 7.72137 5.13393 8.04287C5.45473 8.36367 5.63557 8.79879 5.63626 9.25262V12.6255H5.63557ZM9.57871 13.3073H6.77604V7.54053H7.86662C8.32045 7.54053 8.75558 7.72137 9.07638 8.04287C9.39718 8.36367 9.57802 8.79879 9.57871 9.25262V13.3073ZM15.3559 13.9808H10.7199V7.54053H13.6445C14.0983 7.54053 14.5334 7.72137 14.8542 8.04287C15.175 8.36367 15.3559 8.79879 15.3566 9.25262V13.9808H15.3559ZM17.6382 13.247V13.9829H16.497V9.25262C16.497 8.79879 16.6779 8.36367 16.9994 8.04287C17.3202 7.72207 17.7553 7.54123 18.2091 7.54053L21.1365 7.54192L21.1344 9.18888C21.1337 9.20966 21.131 9.23114 21.131 9.25262V10.3938H20.4915C19.7348 10.3952 19.0101 10.6959 18.4752 11.2308C17.9403 11.7657 17.6396 12.4904 17.6389 13.247H17.6382ZM23.4147 16.1328C23.378 16.1128 23.344 16.0934 23.3094 16.074C23.2803 16.0573 23.2491 16.0407 23.2214 16.0248L23.1743 15.9977C23.1292 15.9721 23.0842 15.9465 23.0454 15.9243L23.0412 15.9215C22.9401 15.8626 22.8618 15.8162 22.8237 15.7906C22.604 15.5986 22.2749 15.6028 22.0608 15.801C21.8467 15.9991 21.8162 16.3269 21.9908 16.561L23.0405 17.978H18.7801V13.2477C18.7801 12.7939 18.9609 12.3588 19.2824 12.038C19.6032 11.7172 20.0383 11.537 20.4921 11.5363H23.4195L23.4161 16.1342L23.4147 16.1328ZM26.5617 19.1254H26.5624C26.7419 19.2203 26.8922 19.363 26.9968 19.5369C27.1015 19.7108 27.1562 19.9104 27.1562 20.1134V28.8588H26.015V20.2596C26.015 20.137 25.9755 20.0178 25.9028 19.9194L24.4921 18.0209C25.2245 18.4145 25.9922 18.8219 26.5624 19.1254H26.5617ZM25.079 9.23184C25.079 9.23946 25.0769 9.24638 25.0769 9.25401V12.6269C25.0769 12.6345 25.079 12.6415 25.079 12.6491V13.3108H24.56V11.5363C24.56 11.2335 24.4387 10.9439 24.2253 10.7298C24.0112 10.5157 23.7216 10.3959 23.4188 10.3952H22.2728L22.2749 9.20897C22.2749 9.20273 22.277 9.19581 22.277 9.18888C22.2929 8.74613 22.48 8.32625 22.7994 8.01861C23.1188 7.71098 23.5456 7.53984 23.9891 7.54192L25.079 7.5433V9.23184ZM29.1115 12.6269H26.2201V9.23184C26.2264 8.78216 26.4086 8.35258 26.7287 8.03663C27.0488 7.72068 27.4798 7.5433 27.9301 7.54192H29.1122V12.6269H29.1115ZM30.0649 4.91524C29.7995 5.40371 29.5806 5.91575 29.4108 6.44579C29.3131 6.41739 29.2126 6.40284 29.1115 6.40076H27.9294C27.265 6.40353 26.622 6.64049 26.1148 7.07077C26.0247 6.87122 25.8785 6.70216 25.6949 6.58368C25.5113 6.46519 25.2972 6.40145 25.0783 6.40076H23.9884C23.3225 6.40214 22.6789 6.63703 22.1689 7.06522C22.0781 6.86706 21.9326 6.69939 21.7497 6.5816C21.5668 6.46381 21.3534 6.40076 21.1358 6.40006H18.2084C17.307 6.40284 16.4603 6.83242 15.9261 7.55855C15.3919 6.83242 14.5452 6.40214 13.6438 6.40006H10.7192C10.5002 6.40006 10.2861 6.4645 10.1018 6.58298C9.91822 6.70216 9.77202 6.87122 9.68195 7.07146C9.17477 6.64118 8.53178 6.40284 7.86593 6.40006H6.77535C6.5564 6.40006 6.3423 6.4645 6.158 6.58298C5.97369 6.70216 5.82819 6.87122 5.73812 7.07146C5.23093 6.64118 4.58795 6.40284 3.9221 6.40006H2.74006C2.6389 6.40145 2.53843 6.41669 2.44074 6.4451C2.27098 5.91505 2.05134 5.40233 1.78597 4.91385C1.69036 4.74618 1.63978 4.55633 1.63978 4.36302C1.64116 3.5094 1.97998 2.69112 2.58416 2.08693C3.18765 1.48344 4.00663 1.14393 4.86025 1.14324H26.9927C27.8463 1.14393 28.6646 1.48344 29.2688 2.08693C29.8723 2.69042 30.2118 3.50871 30.2132 4.36302C30.2132 4.55633 30.1626 4.74687 30.0663 4.91524H30.0649Z" fill="black"/>
</svg>
