<svg width="24" height="30" viewBox="0 0 24 30" fill="none" xmlns="http://www.w3.org/2000/svg">
<path d="M22.2437 1.85461C20.6751 0.241212 18.3535 0.000206701 17.1096 0.000206701C16.0351 -0.00715735 14.968 0.1823 13.9618 0.559874C13.3031 0.820294 12.6021 0.958872 11.8932 0.968244C11.1842 0.958872 10.484 0.820294 9.82455 0.559874C8.81903 0.1823 7.75191 -0.00715735 6.67743 0.000206701C5.4329 0.000206701 3.11122 0.241212 1.54268 1.85461C0.468865 2.95855 -0.0486269 4.48826 0.00359088 6.40224C0.0738841 8.81497 1.05397 11.6602 1.91824 14.17C2.09297 14.6774 2.42168 15.1179 2.85883 15.4299C3.29599 15.7419 3.81951 15.9099 4.35641 15.9106H4.52913V16.7688C4.52913 17.2073 4.70386 17.6277 5.01382 17.9377C5.32378 18.2477 5.7442 18.4224 6.1827 18.4224H6.93115V19.0503L6.15659 18.9767C5.85332 18.9479 5.5842 19.1702 5.55541 19.4734C5.52663 19.7767 5.74889 20.0458 6.05215 20.0746L6.93115 20.1583V21.2555L6.15659 21.1819C5.85332 21.1531 5.5842 21.3754 5.55541 21.6786C5.52663 21.9819 5.74889 22.251 6.05215 22.2798L6.93115 22.3635V23.4607L6.52077 23.4219C6.37483 23.4078 6.23023 23.4527 6.11709 23.5457C6.00462 23.6388 5.93299 23.7727 5.9196 23.9186C5.89081 24.2219 6.11307 24.491 6.41634 24.5198L7.19492 24.5941L7.77132 25.7463L7.535 25.7235C7.23174 25.6947 6.96262 25.917 6.93383 26.2202C6.90504 26.5235 7.1273 26.7926 7.43057 26.8214L8.35308 26.9091L9.74623 29.6954C9.83928 29.8822 10.0307 30 10.2396 30H13.5474C13.7563 30 13.9471 29.8822 14.0408 29.6954L15.1119 27.5525L15.8724 27.6248C15.8905 27.6261 15.9079 27.6274 15.9253 27.6274C16.2199 27.6274 16.4622 27.3965 16.4763 27.1019C16.4897 26.808 16.2701 26.5543 15.9769 26.5268L15.6408 26.4947L16.1643 25.447L16.9784 25.5247C16.9965 25.526 17.0139 25.5273 17.0313 25.5273C17.3258 25.5273 17.5682 25.2957 17.5822 25.0018C17.5963 24.7079 17.3767 24.4549 17.0835 24.4274L16.6939 24.3906L16.7976 24.1824C16.8358 24.1061 16.8559 24.0211 16.8559 23.936V23.3081L17.6304 23.3817C17.6485 23.3831 17.6659 23.3844 17.6833 23.3844C17.9772 23.3844 18.2202 23.1534 18.2336 22.8589C18.2477 22.565 18.0281 22.3119 17.7349 22.2838L16.8559 22.2001V21.1029L17.6304 21.1765C17.6485 21.1779 17.6659 21.1792 17.6833 21.1792C17.9772 21.1792 18.2202 20.9482 18.2336 20.6537C18.2477 20.3598 18.0281 20.1067 17.7349 20.0786L16.8559 19.9949V18.4224H17.6043C18.0428 18.4224 18.4633 18.2477 18.7732 17.9377C19.0832 17.6277 19.2579 17.2073 19.2586 16.7688V15.9106H19.4306C19.9675 15.9106 20.491 15.7425 20.9282 15.4306C21.3654 15.1186 21.6941 14.6781 21.8688 14.1706C22.7331 11.6602 23.7125 8.81497 23.7834 6.40224C23.8363 4.48826 23.3188 2.95855 22.245 1.85461H22.2437ZM13.206 28.8974H10.5797L9.64715 27.0323L13.9344 27.4407L13.206 28.8981V28.8974ZM14.4632 26.3829L9.06539 25.8688L8.48898 24.7166L14.9868 25.3359L14.4632 26.3829ZM15.7526 23.8055L15.5163 24.2781L8.03375 23.5658V22.4686L15.7519 23.2037V23.8062L15.7526 23.8055ZM15.7533 22.095L8.03442 21.36V20.2627L15.7526 20.9978V22.095H15.7533ZM15.754 19.8898L8.03509 19.1548V18.4217H15.754V19.8898ZM18.156 16.7681C18.156 17.0727 17.9089 17.3191 17.605 17.3191H6.18337C5.87876 17.3191 5.6324 17.0721 5.6324 16.7681V15.9099H18.1553V16.7681H18.156ZM20.8271 13.8105C20.7267 14.101 20.5386 14.3534 20.2882 14.5322C20.0378 14.7109 19.7386 14.8073 19.4313 14.8073H4.35641C4.04913 14.8073 3.74921 14.7109 3.49884 14.5322C3.24913 14.3534 3.06034 14.101 2.96059 13.8105C2.12243 11.375 1.1718 8.61414 1.10686 6.37011C0.980332 5.00575 1.42485 3.64943 2.33331 2.62315C3.62001 1.3003 5.60763 1.10281 6.67743 1.10281C7.63208 1.09611 8.58003 1.26615 9.47242 1.60423C10.245 1.90348 11.0651 2.06147 11.8932 2.07017C12.7213 2.0608 13.5414 1.90281 14.3139 1.60423C15.207 1.26615 16.1543 1.09611 17.1089 1.10281C18.1794 1.10281 20.1664 1.3003 21.4531 2.62315C22.3615 3.64876 22.806 5.00508 22.6795 6.36944C22.6139 8.6148 21.6639 11.375 20.8251 13.8098L20.8271 13.8105ZM15.7988 2.55486C15.8263 2.69813 15.7955 2.84742 15.7131 2.96792C15.6308 3.08909 15.5036 3.1721 15.3603 3.19955C14.9031 3.31871 14.4873 3.56106 14.1586 3.89981C13.5903 4.48625 12.8164 4.82901 11.9996 4.85579C11.9648 4.85579 11.9293 4.85445 11.8932 4.85311C11.857 4.85445 11.8215 4.85579 11.7867 4.85579C10.97 4.82901 10.1961 4.48625 9.62773 3.89914C9.29836 3.56039 8.88329 3.31805 8.42605 3.19888C8.12681 3.14198 7.93065 2.85344 7.98756 2.55486C8.04446 2.25628 8.333 2.05946 8.63225 2.11637C9.27827 2.26699 9.87075 2.59302 10.3427 3.05963C10.7317 3.49612 11.2867 3.74717 11.8704 3.75185C11.8785 3.75185 11.8851 3.75587 11.8932 3.75587C11.9012 3.75587 11.9079 3.75119 11.9159 3.75185C12.5004 3.74717 13.0554 3.49545 13.4436 3.05963C13.9156 2.59302 14.5074 2.26633 15.1541 2.11637C15.4534 2.05946 15.7419 2.25561 15.7988 2.55486Z" fill="black"/>
</svg>
