<svg width="29" height="30" viewBox="0 0 29 30" fill="none" xmlns="http://www.w3.org/2000/svg">
<path d="M23.6947 17.76C23.3944 17.659 23.0689 17.8199 22.9672 18.1196C21.846 21.1521 21.0844 24.3052 20.6991 27.5154C20.628 28.3119 20.2622 28.7843 19.6685 28.845C19.1905 28.8422 18.7271 28.6805 18.3522 28.3851C17.9766 28.0889 17.7111 27.6764 17.5975 27.2123C17.4965 26.6967 17.4366 26.1741 17.4171 25.6494C17.2282 23.0962 16.9112 18.8234 13.4424 18.8234C9.97368 18.8234 9.65594 23.0962 9.4678 25.6487C9.44828 26.1741 9.38836 26.696 9.28732 27.2116C9.17653 27.6771 8.91174 28.0917 8.53546 28.3878C8.15987 28.684 7.6944 28.845 7.21638 28.8443C6.6227 28.7836 6.25617 28.3119 6.18579 27.5147C5.84993 23.7199 4.59636 20.0811 3.38529 16.5622C2.28293 13.3631 1.24259 10.3403 1.17012 7.79625C1.02866 6.05142 1.62026 4.32541 2.80276 3.03421C4.06817 1.80573 5.76771 1.12773 7.53135 1.14724C8.62604 1.14515 9.69914 1.44896 10.6301 2.02453C11.4753 2.55202 12.4467 2.84328 13.4431 2.86907C14.4389 2.84398 15.4102 2.55202 16.2555 2.02453C17.1864 1.44896 18.2602 1.14515 19.3542 1.14724C21.3492 1.14724 24.0758 2.08167 25.1949 4.71354C25.2521 4.85778 25.3642 4.97206 25.5071 5.03198C25.6499 5.09191 25.8109 5.09121 25.9531 5.03059C26.0952 4.96997 26.2074 4.85429 26.2638 4.71075C26.3196 4.56651 26.3154 4.40555 26.2513 4.26479C24.912 1.11797 21.6983 0.000277487 19.3535 0.000277487C18.0721 -0.00181296 16.8143 0.347988 15.7175 1.01066C15.0367 1.44756 14.2507 1.69284 13.4417 1.72211C12.6327 1.69354 11.8467 1.44756 11.1659 1.01066C10.0691 0.347988 8.8114 -0.00111614 7.52995 0.000277487C5.45693 -0.0171429 3.46125 0.786285 1.97842 2.23496C0.575036 3.74566 -0.134322 5.77339 0.0210674 7.8297C0.098414 10.5494 1.16733 13.6516 2.29826 16.9371C3.48772 20.3905 4.7176 23.961 5.04093 27.6172C5.18308 29.2247 6.19694 29.8958 7.09862 29.987C7.18573 29.9954 7.27143 30.0003 7.35784 30.0003C8.05674 29.962 8.72638 29.7027 9.2699 29.2617C9.81342 28.8206 10.2036 28.2178 10.3848 27.5419C10.5158 26.9475 10.5911 26.3427 10.6099 25.7351C10.8266 22.8196 11.2231 19.9724 13.4403 19.9724C15.6576 19.9724 16.0548 22.8196 16.2708 25.7351C16.2903 26.3434 16.3656 26.9482 16.4959 27.5419C16.684 28.2624 17.1126 28.8972 17.7097 29.3418C18.3069 29.7864 19.0386 30.0142 19.7828 29.9877C20.6844 29.8958 21.6983 29.2254 21.8405 27.6179C22.2167 24.4982 22.9595 21.4343 24.0528 18.4882C24.1546 18.1879 23.9929 17.8624 23.6933 17.7607L23.6947 17.76Z" fill="black"/>
<path d="M15.2319 4.08195C14.7831 4.58644 14.1407 4.87632 13.4655 4.87841C13.4571 4.87841 13.4494 4.88259 13.4418 4.88259C13.4334 4.88259 13.4264 4.87841 13.4174 4.87841C12.7415 4.87771 12.099 4.58784 11.6509 4.08195C11.1228 3.55934 10.4601 3.19351 9.73679 3.02418C9.58628 2.99422 9.43089 3.02558 9.30337 3.11059C9.17655 3.1963 9.08875 3.32869 9.06018 3.4799C9.03161 3.63041 9.06436 3.7858 9.15147 3.91193C9.23857 4.03805 9.37166 4.12445 9.52287 4.15163C10.0497 4.28821 10.5291 4.56624 10.9081 4.95645C11.5395 5.61564 12.4042 6.00028 13.317 6.02815C13.3581 6.02815 13.3999 6.02676 13.4418 6.02537C13.4843 6.02676 13.5261 6.02815 13.5665 6.02815C14.4786 6.00028 15.3434 5.61564 15.9754 4.95645C16.3551 4.56624 16.8339 4.28821 17.3606 4.15163C17.5112 4.12445 17.6456 4.03875 17.7321 3.91193C17.8192 3.7858 17.8519 3.63041 17.8233 3.4799C17.7948 3.32939 17.707 3.1963 17.5801 3.11059C17.4533 3.02488 17.2972 2.99352 17.1467 3.02418C16.4227 3.19351 15.7608 3.55934 15.2319 4.08195Z" fill="black"/>
<path d="M28.4135 10.5794C27.6254 10.5077 26.8722 10.0025 26.176 9.0778C25.6646 8.3984 25.2918 7.62912 25.1071 7.11974C25.0995 7.1079 25.0918 7.09396 25.0834 7.07794C25.0423 7.00129 24.9942 6.92742 24.9406 6.85844C24.8695 6.80339 24.7936 6.75392 24.7141 6.71211L24.7099 6.71002C24.6444 6.70166 24.5782 6.69678 24.512 6.69678C24.4584 6.69678 24.404 6.69956 24.3504 6.70514C24.3455 6.70514 24.3413 6.70584 24.3364 6.70653C24.3281 6.70653 24.3204 6.70793 24.3114 6.70862C24.3051 6.71211 24.2981 6.71559 24.2912 6.71838C24.1379 6.79294 24.0131 6.91767 23.9386 7.07097C23.9295 7.08978 23.9204 7.10581 23.9121 7.11905C23.7274 7.62772 23.3539 8.3984 22.8432 9.0771C22.1471 10.0018 21.3945 10.507 20.6043 10.5787C20.2719 10.6101 20.0273 10.8965 20.0482 11.2303C20.0489 11.2449 20.0489 11.2588 20.0482 11.2735C20.0489 11.2874 20.0489 11.302 20.0482 11.316C20.028 11.6497 20.2726 11.9361 20.6057 11.9675C20.6113 11.9675 20.6175 11.9689 20.6231 11.9696C21.4063 12.0469 22.1533 12.5514 22.8439 13.4691C23.3588 14.1534 23.7337 14.9297 23.917 15.4383C23.9253 15.4523 23.9351 15.4697 23.9441 15.4906C23.9539 15.5115 23.965 15.5324 23.9776 15.5526C23.9804 15.5568 23.9825 15.5603 23.9846 15.5645C24.0089 15.607 24.0382 15.646 24.071 15.6808C24.0731 15.6829 24.0751 15.685 24.0772 15.6871C24.0898 15.701 24.1051 15.7157 24.1239 15.7317C24.1699 15.7686 24.2208 15.7986 24.2758 15.8209C24.2863 15.8251 24.2967 15.8299 24.3072 15.8355C24.3148 15.8397 24.3218 15.8432 24.3281 15.8474C24.3866 15.8669 24.4472 15.8766 24.5093 15.8766C24.5713 15.8766 24.6312 15.8669 24.6897 15.8474C24.7044 15.839 24.7211 15.8299 24.7413 15.8216C24.7977 15.7986 24.8486 15.7686 24.8946 15.7317C24.9127 15.7164 24.9287 15.701 24.9434 15.685C24.9448 15.6829 24.9469 15.6815 24.9483 15.6794C24.9824 15.6439 25.0117 15.6049 25.0347 15.5645C25.0374 15.5589 25.0409 15.554 25.0444 15.5491C25.0549 15.5331 25.0646 15.515 25.0751 15.4934C25.0855 15.4697 25.096 15.4502 25.1043 15.4362C25.2876 14.9276 25.6625 14.152 26.1767 13.4684C26.8729 12.5438 27.6261 12.0386 28.4156 11.9668C28.7473 11.9354 28.9919 11.6497 28.9717 11.316C28.971 11.302 28.971 11.2874 28.9717 11.2735C28.971 11.2588 28.971 11.2449 28.9717 11.2303C28.9926 10.8965 28.7473 10.6101 28.4142 10.578L28.4135 10.5794ZM26.4645 11.3452C26.4457 11.4344 26.3941 11.5097 26.3238 11.5585C25.7224 12.0441 25.2116 12.6253 24.8061 13.2845C24.7427 13.3876 24.6305 13.4503 24.5093 13.4503C24.388 13.4503 24.2758 13.3876 24.2124 13.2845C23.8034 12.619 23.2863 12.0337 22.6773 11.5452C22.5951 11.479 22.547 11.3794 22.547 11.2735C22.547 11.1675 22.5951 11.0679 22.6773 11.0017C23.287 10.5125 23.8034 9.92721 24.2131 9.26176C24.2765 9.15863 24.3887 9.09591 24.51 9.09591C24.6312 9.09591 24.7434 9.15863 24.8068 9.26176C25.2151 9.92512 25.7301 10.5091 26.337 10.9975C26.4408 11.0777 26.4931 11.2121 26.4645 11.3445V11.3452Z" fill="black"/>
</svg>
