<svg width="30" height="30" viewBox="0 0 30 30" fill="none" xmlns="http://www.w3.org/2000/svg">
<path d="M18.5008 12.2409C18.4009 12.1428 18.3436 12.0091 18.343 11.8691C18.3423 11.729 18.3977 11.594 18.4964 11.4947C18.5957 11.3954 18.7307 11.34 18.8708 11.3413C19.0108 11.3425 19.1445 11.3992 19.2426 11.4998L20.3549 12.6127C20.4555 12.7108 20.5121 12.8445 20.5134 12.9845C20.5147 13.1246 20.4587 13.2596 20.36 13.3589C20.2613 13.4582 20.1263 13.5136 19.9856 13.5123C19.8455 13.5117 19.7118 13.4544 19.6138 13.3544L18.5015 12.2415L18.5008 12.2409ZM16.2763 13.7244C16.0719 13.9294 16.0719 14.2611 16.2763 14.4661L17.3886 15.5784C17.5936 15.7815 17.924 15.7808 18.1284 15.5765C18.3321 15.3721 18.3328 15.0417 18.1297 14.8366L17.0174 13.7244C16.813 13.52 16.4806 13.52 16.2763 13.7244ZM14.7928 15.9489C14.6948 15.8483 14.5611 15.791 14.4203 15.7898C14.2803 15.7885 14.1453 15.8439 14.0453 15.9432C13.946 16.0425 13.8906 16.1775 13.8919 16.3182C13.8932 16.4589 13.9505 16.5926 14.0511 16.6907L15.1634 17.8036C15.369 18.0022 15.6963 17.9991 15.8987 17.7972C16.1012 17.5948 16.1037 17.2681 15.9051 17.0625L14.7928 15.9496V15.9489ZM12.5682 18.1741C12.3626 17.9755 12.0353 17.978 11.8335 18.1805C11.631 18.383 11.6285 18.7096 11.8271 18.9159L12.9394 20.0282C13.1451 20.2268 13.4723 20.2236 13.6741 20.0218C13.8766 19.8193 13.8792 19.4927 13.6805 19.2864L12.5682 18.1741ZM10.3437 20.3981C10.138 20.1975 9.81012 20.2001 9.60701 20.4025C9.40391 20.605 9.402 20.9335 9.60256 21.1392L10.7155 22.2515C10.8135 22.3521 10.9472 22.4094 11.0879 22.4106C11.2286 22.4119 11.3636 22.3565 11.4629 22.2572C11.5623 22.1579 11.6177 22.0229 11.6164 21.8822C11.6151 21.7415 11.5578 21.6078 11.4572 21.5097L10.3443 20.3974L10.3437 20.3981ZM29.9885 14.2808C29.9924 15.1868 29.6052 16.0502 28.9253 16.6493C28.2459 17.2484 27.3412 17.5254 26.4428 17.4088C25.5445 17.2923 24.7403 16.7932 24.2367 16.04C23.7331 15.2868 23.5797 14.3528 23.8152 13.478L23.1346 12.7973L10.8995 25.0325C10.704 25.2299 10.4373 25.3407 10.159 25.34H10.1577C9.87951 25.34 9.61274 25.2299 9.41665 25.0325L8.30436 26.1448C8.00957 26.4396 7.6091 26.6057 7.19207 26.6057C6.77505 26.6057 6.37457 26.4396 6.07979 26.1448L5.33805 25.4037L0.889543 29.8522C0.683894 30.0515 0.356002 30.0489 0.153536 29.8465C-0.0489291 29.644 -0.0514758 29.3161 0.147806 29.1111L4.59695 24.6619L3.85522 23.9208C3.56043 23.6254 3.39426 23.2256 3.39426 22.8086C3.39426 22.3915 3.56043 21.9911 3.85522 21.6963L4.9675 20.584C4.77077 20.3873 4.66062 20.1205 4.66062 19.8429C4.66062 19.5653 4.77077 19.2985 4.9675 19.1018L17.2033 6.86537L16.5233 6.18475C15.6249 6.42542 14.6661 6.2567 13.9046 5.72316C13.1432 5.18962 12.6561 4.34665 12.5752 3.42027C12.4944 2.4939 12.8274 1.57898 13.4851 0.921289C14.1427 0.263595 15.0564 -0.069391 15.9828 0.0121045C16.9091 0.0929633 17.7521 0.580026 18.2857 1.34214C18.8192 2.10361 18.9879 3.06246 18.7472 3.96082L21.2812 6.49482L23.5058 4.27024L22.3935 3.15796C22.0058 2.75876 21.8574 2.18447 22.0045 1.64711C22.151 1.11038 22.5705 0.690809 23.1073 0.544372C23.644 0.397935 24.2183 0.545645 24.6175 0.933386L29.0666 5.38253C29.4524 5.78237 29.5989 6.35538 29.4524 6.89147C29.306 7.42756 28.8871 7.84522 28.3516 7.9923C27.8162 8.13937 27.2425 7.9923 26.8427 7.6071L25.7304 6.49545L23.5058 8.72003L26.0398 11.2534C26.9821 10.9981 27.9887 11.1967 28.7636 11.7908C29.5378 12.3848 29.9911 13.3054 29.9892 14.2815L29.9885 14.2808ZM27.5838 6.86537C27.6818 6.96596 27.8155 7.02263 27.9556 7.0239C28.0957 7.02454 28.2306 6.96915 28.33 6.87046C28.4293 6.77177 28.4847 6.6368 28.4834 6.49609C28.4828 6.35602 28.4255 6.22168 28.3255 6.12427L23.877 1.67449C23.779 1.5758 23.6453 1.51977 23.5065 1.51977C23.3677 1.51977 23.2333 1.57453 23.1346 1.67321C23.0359 1.7719 22.9812 1.90496 22.9812 2.0444C22.9812 2.18383 23.0372 2.31754 23.1359 2.41559L27.5851 6.86537H27.5838ZM22.0223 7.23592L22.3929 7.6071L22.7634 7.97765L24.988 5.75308L24.2463 5.01134L22.0217 7.23528L22.0223 7.23592ZM17.2027 4.64079C17.5961 4.24732 17.817 3.71378 17.817 3.15796C17.817 2.60213 17.5961 2.06796 17.2027 1.67512C16.8092 1.28165 16.2756 1.06072 15.7198 1.06072C15.164 1.06072 14.6298 1.28165 14.237 1.67512C13.8435 2.06859 13.6226 2.60213 13.6226 3.15796C13.6226 3.71378 13.8435 4.24732 14.237 4.64079C14.6304 5.03299 15.164 5.25328 15.7198 5.25328C16.2756 5.25328 16.8092 5.03299 17.2027 4.64016V4.64079ZM8.67555 24.2901L5.70924 21.3238L4.59695 22.4367C4.39258 22.6411 4.39258 22.9735 4.59695 23.1778L6.82216 25.4018C7.02908 25.6004 7.35634 25.6004 7.5639 25.4018L8.67618 24.2895L8.67555 24.2901ZM22.3935 12.055L17.9444 7.60583L5.70924 19.841L10.159 24.2908L22.3935 12.0556V12.055ZM24.6207 12.0524L24.9893 11.6838L22.3948 9.0893H22.3935L21.6524 8.34693L18.3156 5.01007L17.5745 5.75117L18.6855 6.86218L23.1353 11.312L23.1372 11.3145L24.2476 12.4249L24.6162 12.0562L24.6187 12.0537L24.6213 12.0512L24.6207 12.0524ZM28.9405 14.2795C28.9405 13.7237 28.719 13.1915 28.3261 12.798C27.9333 12.4052 27.401 12.1836 26.8452 12.1829C26.2894 12.1823 25.7565 12.402 25.3624 12.7935L25.3573 12.7986C24.9657 13.1927 24.7461 13.7256 24.7467 14.2808C24.7474 14.836 24.9676 15.3689 25.3598 15.7624C25.759 16.1438 26.2907 16.357 26.8427 16.357C27.3947 16.357 27.9263 16.1444 28.3255 15.7624C28.7203 15.3702 28.9418 14.836 28.9405 14.2795Z" fill="black"/>
</svg>
