<svg width="20" height="30" viewBox="0 0 20 30" fill="none" xmlns="http://www.w3.org/2000/svg">
<path d="M1.47566 24.0986C1.20394 24.0986 0.984174 23.8782 0.984174 23.6071V13.2792C0.984174 13.0075 1.20454 12.7877 1.47566 12.7877C1.74679 12.7877 1.96715 13.0081 1.96715 13.2792V23.6071C1.96715 23.7373 1.9152 23.8627 1.82323 23.9546C1.73067 24.0466 1.60585 24.0986 1.47566 24.0986ZM18.6886 13.7605V23.1245C18.9561 23.1478 19.2057 23.2703 19.3879 23.4679C19.57 23.6656 19.6715 23.9242 19.6721 24.1935V27.1598C19.6709 27.9128 19.3718 28.6348 18.8391 29.1669C18.3064 29.699 17.5849 29.9988 16.8319 30H2.84025C2.08719 29.9988 1.36518 29.6996 0.832487 29.1669C0.300388 28.6348 0.000597193 27.9128 0 27.1598V24.1935C0 23.9075 0.114064 23.6333 0.316512 23.4309C0.518961 23.2284 0.793073 23.115 1.07913 23.1144H17.7056V13.7707H1.07913C0.793073 13.7707 0.518961 13.6566 0.316512 13.4542C0.114064 13.2517 0.000597193 12.9776 0 12.6916V9.72532C0.00119439 8.97225 0.300388 8.25025 0.833084 7.71815C1.36578 7.18545 2.08719 6.88626 2.84025 6.88506H6.88564V5.90149H6.76262C6.63004 5.90149 6.50284 5.84774 6.41027 5.75279C6.31771 5.65783 6.26754 5.52944 6.27053 5.39686L6.38161 0.957922C6.38698 0.701129 6.49268 0.456279 6.67662 0.277121C6.86056 0.0979634 7.10779 -0.00176785 7.36459 2.37273e-05H12.3076C12.5643 -0.00117066 12.8116 0.0979634 12.9955 0.277719C13.1795 0.456876 13.2858 0.701726 13.2905 0.958519L13.4016 5.39746C13.4052 5.53003 13.3544 5.65843 13.2619 5.75338C13.1693 5.84834 13.0421 5.90208 12.9095 5.90208H12.7865V6.88566H16.8319C17.5849 6.88686 18.307 7.18605 18.8391 7.71875C19.3712 8.25084 19.6709 8.97285 19.6715 9.72591V12.6922C19.6703 12.9609 19.5694 13.2195 19.3873 13.4178C19.2051 13.6154 18.9555 13.7385 18.688 13.7611L18.6886 13.7605ZM7.26665 4.91791H12.4055L12.307 0.983601H7.36459L7.26665 4.91791ZM7.86921 5.90149V6.88506H11.8035V5.90149H7.86921ZM18.6892 24.1935C18.6892 24.141 18.6468 24.0986 18.5942 24.0986H1.07913C1.02658 24.0986 0.984174 24.141 0.984174 24.1935V27.1598C0.984174 27.6519 1.18065 28.1236 1.52822 28.4724C1.87638 28.8206 2.34816 29.0164 2.84025 29.017H16.8319C17.3246 29.0164 17.7964 28.8206 18.1445 28.4724C18.4927 28.1242 18.6886 27.6525 18.6886 27.1598V24.1935H18.6892ZM18.6892 12.6916V9.72532C18.6892 9.23323 18.4927 8.76085 18.1451 8.41328C17.797 8.06512 17.3252 7.86924 16.8331 7.86864H2.84085C2.34816 7.86924 1.87638 8.06512 1.52822 8.41328C1.18005 8.76145 0.984174 9.23323 0.984174 9.72591V12.6922C0.984174 12.7447 1.02658 12.7871 1.07913 12.7871H18.5936C18.6462 12.7871 18.6886 12.7447 18.6886 12.6922L18.6892 12.6916ZM17.2135 10.7632C16.9418 10.7632 16.7214 10.9836 16.7214 11.2547V11.3109C16.7214 11.5826 16.9418 11.8024 17.2135 11.8024C17.4852 11.8024 17.705 11.582 17.705 11.3109V11.2547C17.705 11.1245 17.653 10.9991 17.5611 10.9072C17.4691 10.8152 17.3437 10.7632 17.2135 10.7632ZM17.1801 10.1117C17.2744 10.0215 17.3282 9.89731 17.3311 9.76712C17.3335 9.63693 17.2846 9.51032 17.1938 9.41656C16.8486 9.05467 16.3703 8.85043 15.8698 8.85222H13.573C13.3013 8.85222 13.0809 9.07258 13.0809 9.34371C13.0809 9.61483 13.3013 9.8352 13.573 9.8352H15.8698C16.1021 9.8346 16.3243 9.92896 16.4843 10.0968C16.5745 10.1911 16.6987 10.2455 16.8289 10.2485C16.9591 10.2508 17.0857 10.2019 17.1795 10.1117H17.1801ZM8.85279 1.47569C8.58107 1.47569 8.3607 1.69605 8.3607 1.96778V3.93493C8.3607 4.20665 8.58107 4.42642 8.85279 4.42642C9.12451 4.42642 9.34428 4.20606 9.34428 3.93493V1.96778C9.34428 1.83759 9.29233 1.71218 9.20036 1.62021C9.10839 1.52824 8.98298 1.47629 8.85279 1.47629V1.47569ZM10.8199 1.47569C10.5482 1.47569 10.3285 1.69605 10.3285 1.96778V3.93493C10.3285 4.20665 10.5488 4.42642 10.8199 4.42642C11.0911 4.42642 11.312 4.20606 11.312 3.93493V1.96778C11.312 1.83759 11.2601 1.71218 11.1681 1.62021C11.0761 1.52824 10.9507 1.47629 10.8205 1.47629L10.8199 1.47569ZM4.4264 21.1478C4.16602 21.1478 3.9158 21.0439 3.73126 20.8594C3.54673 20.6749 3.44342 20.4252 3.44282 20.1643V16.722C3.44282 16.4611 3.54673 16.2114 3.73126 16.0269C3.9158 15.8424 4.16602 15.739 4.4264 15.7385H15.2463C15.5067 15.7385 15.7569 15.8424 15.9415 16.0269C16.126 16.2114 16.2293 16.4611 16.2299 16.722V20.1648C16.2299 20.4252 16.126 20.6754 15.9415 20.86C15.7569 21.0445 15.5067 21.1484 15.2463 21.1484H4.4264V21.1478ZM4.4264 20.1643H15.2469V16.7214H4.4264V20.1643Z" fill="black"/>
</svg>
