<svg width="29" height="30" viewBox="0 0 29 30" fill="none" xmlns="http://www.w3.org/2000/svg">
<path d="M18.4335 3.47961C18.4621 3.62943 18.4301 3.78413 18.3444 3.90956C18.2586 4.03569 18.1269 4.12209 17.9771 4.15067C17.4503 4.28725 16.9716 4.56598 16.5918 4.95552C15.9605 5.61473 15.0957 5.99938 14.1828 6.02726C14.1417 6.02726 14.0999 6.02587 14.0581 6.02447C14.0156 6.02587 13.9738 6.02726 13.9333 6.02726C13.0212 5.99938 12.1564 5.61473 11.5244 4.95552C11.1446 4.56598 10.6659 4.28725 10.139 4.15067C9.98853 4.12349 9.85404 4.03778 9.76763 3.91165C9.68122 3.78552 9.64777 3.62943 9.67634 3.47891C9.70491 3.32839 9.79271 3.1953 9.91954 3.10958C10.0464 3.02387 10.2025 2.99251 10.353 3.02318C11.0763 3.19251 11.739 3.55835 12.2672 4.08098C12.7153 4.58619 13.3585 4.87608 14.0337 4.87747C14.0421 4.87747 14.0497 4.88165 14.0581 4.88165C14.0664 4.88165 14.0734 4.87747 14.0818 4.87747C14.757 4.87468 15.3988 4.5848 15.8483 4.08098C16.3765 3.55835 17.0392 3.19251 17.7625 3.02318C18.0733 2.96464 18.3736 3.16882 18.4328 3.47961H18.4335ZM28.1162 11.8842C28.1162 12.0361 28.0555 12.1825 27.9482 12.2898C27.8409 12.3971 27.6946 12.4577 27.5427 12.4577H26.6528C26.2458 13.8974 25.733 15.3956 25.2027 16.9363C24.0132 20.3899 22.7832 23.9605 22.4599 27.6168C22.3177 29.2244 21.3038 29.8955 20.4021 29.9868C20.3164 29.9951 20.2293 29.9993 20.1429 30C19.4433 29.9617 18.7743 29.7024 18.2308 29.2613C17.6872 28.8202 17.297 28.2175 17.1158 27.5415C16.9855 26.9471 16.9103 26.3423 16.8907 25.7339C16.674 22.8184 16.2775 19.9711 14.0602 19.9711C11.8428 19.9711 11.4456 22.8184 11.2296 25.7339C11.2101 26.3423 11.1348 26.9471 11.0045 27.5415C10.8233 28.2182 10.4331 28.8202 9.88888 29.2613C9.34534 29.7031 8.67637 29.9617 7.97674 30C7.89103 30 7.80393 29.9951 7.71752 29.9868C6.81581 29.8948 5.8019 29.2244 5.65975 27.6168C5.33572 23.9612 4.10579 20.3906 2.91698 16.9363C2.38668 15.3956 1.87381 13.8974 1.46685 12.4577H0.574197C0.257134 12.4577 0 12.2006 0 11.8835C0 11.5665 0.257134 11.31 0.574197 11.31H1.16233C0.867568 10.1714 0.691267 9.00417 0.63761 7.82929C0.482214 5.77291 1.1916 3.7451 2.59504 2.23435C4.07722 0.786315 6.07367 -0.0171433 8.14608 0.000277731C9.42757 -0.00181279 10.6854 0.347305 11.7822 1.0107C12.4637 1.44762 13.249 1.69291 14.0581 1.72217C14.8671 1.6936 15.6525 1.44762 16.334 1.0107C17.4308 0.348002 18.6886 -0.00111595 19.9701 0.000277731C22.0432 -0.0171433 24.0389 0.785618 25.5211 2.23505C26.9253 3.7458 27.6339 5.77361 27.4785 7.82999C27.4249 9.00486 27.2486 10.1714 26.9538 11.3107H27.542C27.6946 11.3107 27.8402 11.3713 27.9475 11.4786C28.0555 11.586 28.1155 11.7323 28.1155 11.8842H28.1162ZM25.457 12.4577H19.0314V13.2465C19.0314 13.7127 18.8454 14.1594 18.5165 14.4883C18.1869 14.8179 17.7402 15.0033 17.274 15.004H10.8429C10.3767 15.004 9.92999 14.8179 9.60039 14.4883C9.27078 14.1587 9.08542 13.712 9.08542 13.2465V12.4577H2.65915C3.0438 13.7754 3.51278 15.1503 3.99987 16.5628C5.21168 20.0819 6.4646 23.7201 6.80117 27.5158C6.87225 28.3122 7.23809 28.7847 7.8318 28.8453C8.31053 28.8453 8.77532 28.6837 9.15092 28.3875C9.52652 28.0913 9.79202 27.6767 9.90351 27.2119C10.0046 26.6963 10.0645 26.1736 10.084 25.6489C10.2728 23.0957 10.5899 18.8234 14.0588 18.8234C17.5277 18.8234 17.8454 23.0964 18.0336 25.6489C18.0531 26.1736 18.113 26.6963 18.214 27.2119C18.3269 27.676 18.5931 28.0893 18.968 28.3854C19.3436 28.6816 19.807 28.8432 20.2851 28.8446C20.8788 28.784 21.2453 28.3122 21.3157 27.5151C21.6516 23.7201 22.9052 20.0812 24.117 16.5621C24.6034 15.1496 25.0731 13.7747 25.4577 12.457L25.457 12.4577ZM10.8422 13.8563H17.2733C17.6099 13.8563 17.883 13.5831 17.883 13.2465V10.5212C17.883 10.1846 17.6099 9.91145 17.2733 9.91145H10.8422C10.5056 9.91145 10.2324 10.1846 10.2324 10.5212V13.2465C10.2324 13.5831 10.5056 13.8563 10.8422 13.8563ZM26.3309 7.79654C26.4723 6.05095 25.8807 4.32557 24.6982 3.03433C23.4327 1.80579 21.7331 1.12777 19.9694 1.14728C18.8746 1.14588 17.8015 1.44971 16.8705 2.0246C16.0253 2.55211 15.0539 2.84339 14.0574 2.86917C13.0609 2.84409 12.0902 2.55211 11.2449 2.0246C10.314 1.44971 9.24012 1.14519 8.14538 1.14728C6.38237 1.12707 4.68208 1.80579 3.41661 3.03433C2.23407 4.32557 1.64246 6.05095 1.78391 7.79654C1.84315 8.98465 2.03129 10.1623 2.34487 11.31H9.08403V10.5212C9.08403 10.0557 9.27008 9.60902 9.59899 9.27942C9.9286 8.94981 10.3753 8.76445 10.8415 8.76445H17.2726C17.7388 8.76445 18.1855 8.95051 18.5151 9.27942C18.8447 9.60902 19.03 10.0557 19.03 10.5212V11.31H25.7692C26.0828 10.163 26.2709 8.98465 26.3302 7.79654H26.3309ZM11.578 12.4194V12.7574C11.578 13.0744 11.8352 13.3316 12.1515 13.3316C12.4679 13.3316 12.7257 13.0744 12.7257 12.758V12.4201H15.3897V12.758C15.3897 13.0751 15.6469 13.3316 15.9639 13.3316C16.281 13.3316 16.5374 13.0744 16.5374 12.758V12.4201C16.8545 12.4201 17.1109 12.1629 17.1109 11.8459C17.1109 11.5288 16.8538 11.2724 16.5374 11.2724V10.9337C16.5374 10.6167 16.2803 10.3602 15.9639 10.3602C15.6476 10.3602 15.3897 10.6174 15.3897 10.9344V11.2731H12.7257V10.9344C12.7257 10.6174 12.4686 10.3609 12.1522 10.3609C11.8359 10.3609 11.5787 10.618 11.5787 10.9351V11.2738C11.2617 11.2738 11.0045 11.5302 11.0045 11.8473C11.0045 12.1643 11.2617 12.4215 11.5787 12.4215L11.578 12.4194Z" fill="black"/>
</svg>
