<svg width="30" height="30" viewBox="0 0 30 30" fill="none" xmlns="http://www.w3.org/2000/svg">
<path d="M17.8711 15C17.8711 16.5855 16.5855 17.8711 15 17.8711C13.4145 17.8711 12.1289 16.5855 12.1289 15C12.1289 13.4145 13.4145 12.1289 15 12.1289C16.5855 12.1289 17.8711 13.4145 17.8711 15Z" fill="white"/>
<path d="M21.7142 9.91987C21.576 9.54605 21.3562 9.20737 21.0697 8.92964C20.792 8.6437 20.4533 8.42339 20.0795 8.28511C19.776 8.16733 19.3201 8.02671 18.4804 7.98862C17.5722 7.94702 17.2998 7.93823 15 7.93823C12.7002 7.93823 12.4277 7.94702 11.5195 7.98862C10.6799 8.02729 10.2234 8.16733 9.92048 8.28511C9.54607 8.42339 9.20798 8.64312 8.93025 8.92964C8.64431 9.20737 8.424 9.54605 8.28572 9.91987C8.16794 10.2234 8.02732 10.6792 7.98923 11.5195C7.94763 12.4277 7.93884 12.7001 7.93884 15C7.93884 17.2998 7.94763 17.5722 7.98923 18.4804C8.02732 19.3201 8.16794 19.7759 8.28572 20.0794C8.424 20.4539 8.64373 20.7919 8.93025 21.0697C9.20798 21.3556 9.54665 21.5759 9.92048 21.7142C10.224 21.8326 10.6799 21.9726 11.5201 22.0107C12.4283 22.0523 12.7002 22.0611 15.0006 22.0611C17.301 22.0611 17.5734 22.0523 18.481 22.0107C19.3207 21.9726 19.7771 21.832 20.0806 21.7142C20.8318 21.4242 21.4254 20.8306 21.7154 20.0794C21.8332 19.7759 21.9738 19.3201 22.0119 18.4804C22.0535 17.5722 22.0623 17.2998 22.0623 15C22.0623 12.7001 22.0535 12.4277 22.0119 11.5195C21.9738 10.6798 21.8332 10.2234 21.7154 9.91987H21.7142ZM15 19.4226C12.5572 19.4226 10.5767 17.4427 10.5767 15C10.5767 12.5572 12.5572 10.5773 15 10.5773C17.4427 10.5773 19.4226 12.5572 19.4226 15C19.4226 17.4427 17.4422 19.4226 15 19.4226ZM19.5978 11.4357C19.0271 11.4357 18.5642 10.9728 18.5642 10.4021C18.5642 9.8314 19.0271 9.36851 19.5978 9.36851C20.1685 9.36851 20.6314 9.8314 20.6314 10.4021C20.6314 10.9728 20.1685 11.4357 19.5978 11.4357Z" fill="white"/>
<path d="M15 0C6.71719 0 0 6.71719 0 15C0 23.2828 6.71719 30 15 30C23.2828 30 30 23.2828 30 15C30 6.71719 23.2828 0 15 0ZM23.5611 18.5514C23.5195 19.4684 23.3736 20.0941 23.1609 20.642C22.7133 21.7992 21.7986 22.7139 20.642 23.1609C20.0941 23.3736 19.4678 23.5195 18.5514 23.5611C17.6326 23.6027 17.3396 23.6133 15 23.6133C12.6604 23.6133 12.3674 23.6033 11.4486 23.5611C10.5322 23.5195 9.90586 23.3736 9.35801 23.1609C8.7832 22.9447 8.2623 22.6055 7.83223 22.1672C7.39395 21.7371 7.05527 21.2162 6.83906 20.6414C6.62637 20.0936 6.48047 19.4672 6.43887 18.5508C6.39668 17.632 6.38672 17.3385 6.38672 14.9994C6.38672 12.6604 6.39668 12.3668 6.43887 11.448C6.48047 10.5311 6.62637 9.90527 6.83906 9.35742C7.05527 8.78262 7.39453 8.26172 7.83281 7.83164C8.26289 7.39336 8.78379 7.0541 9.35859 6.83789C9.90645 6.6252 10.5328 6.4793 11.4492 6.4377C12.368 6.39609 12.6609 6.38555 15.0006 6.38555C17.3402 6.38555 17.6332 6.39551 18.552 6.4377C19.4689 6.4793 20.0947 6.6252 20.6426 6.83731C21.2174 7.05352 21.7383 7.39277 22.1684 7.83105C22.6066 8.26113 22.9459 8.78203 23.1615 9.35684C23.3748 9.90469 23.5201 10.5311 23.5623 11.4475C23.6039 12.3662 23.6139 12.6592 23.6139 14.9988C23.6139 17.3385 23.6039 17.6314 23.5617 18.5502L23.5611 18.5514Z" fill="white"/>
</svg>
