<svg width="24" height="21" viewBox="0 0 24 21" fill="none" xmlns="http://www.w3.org/2000/svg"><path d="M11.5961 3.49902L12 4.05271L12.4039 3.49902C13.4929 2.00626 15.4158 1 17.383 1C20.4726 1 23.0004 3.55472 23 6.70754V6.70761C23 9.31161 21.3743 11.9131 19.1406 14.2405C16.9212 16.5529 14.1811 18.5123 12.1216 19.8286L12.1213 19.8288L12 19.9064L11.8787 19.8288L11.8784 19.8286C9.81886 18.5123 7.07883 16.5529 4.85942 14.2405C2.62568 11.9131 1 9.31161 1 6.70761C1 3.55465 3.52709 1 6.61705 1C8.58423 1 10.5071 2.00626 11.5961 3.49902Z" stroke="white"></path></svg>